%TF.GenerationSoftware,KiCad,Pcbnew,10.0.3*%
%TF.CreationDate,2026-08-28T16:17:33-04:00*%
%TF.ProjectId,PiCOLECO,5069434f-4c45-4434-9f2e-6b696361645f,1*%
%TF.SameCoordinates,Original*%
%TF.FileFunction,Profile,NP*%
%FSLAX46Y46*%
G04 Gerber Fmt 4.6, Leading zero omitted, Abs format (unit mm)*
G04 Created by KiCad (PCBNEW 10.0.3) date 2026-08-28 16:17:33*
%MOMM*%
%LPD*%
G01*
G04 APERTURE LIST*
%TA.AperFunction,Profile*%
%ADD10C,0.025400*%
%TD*%
G04 APERTURE END LIST*
%TO.C,X1*%
D10*
X78752700Y-71132700D02*
X78752700Y-113432700D01*
X78752700Y-71132700D02*
X119392700Y-71132700D01*
X78752700Y-119032700D02*
X78752700Y-127782700D01*
X78752700Y-133532700D02*
X78752700Y-152516700D01*
X79722700Y-113432700D02*
X78752700Y-113432700D01*
X79722700Y-113432700D02*
X79722700Y-119032700D01*
X79722700Y-119032700D02*
X78752700Y-119032700D01*
X79722700Y-127782700D02*
X78752700Y-127782700D01*
X79722700Y-127782700D02*
X79722700Y-133532700D01*
X79722700Y-133532700D02*
X78752700Y-133532700D01*
X79768700Y-153532700D02*
X118376700Y-153532700D01*
X118422700Y-110935200D02*
X118422700Y-116535200D01*
X118422700Y-127782700D02*
X118422700Y-133532700D01*
X119392700Y-71132700D02*
X119392700Y-110935200D01*
X119392700Y-110935200D02*
X118422700Y-110935200D01*
X119392700Y-116532700D02*
X118422700Y-116532700D01*
X119392700Y-116532700D02*
X119392700Y-127782700D01*
X119392700Y-127782700D02*
X118422700Y-127782700D01*
X119392700Y-133532700D02*
X118422700Y-133532700D01*
X119392700Y-133532700D02*
X119392700Y-152516700D01*
X79768700Y-153532700D02*
G75*
G02*
X78752700Y-152516700I2J1016002D01*
G01*
X119392700Y-152516700D02*
G75*
G02*
X118376700Y-153532700I-1016000J0D01*
G01*
%TD*%
M02*
