M48
; DRILL file KiCad 10.0.3 date 2026-08-28T16:17:39
; FORMAT={-:-/ absolute / metric / decimal}
; #@! TF.CreationDate,2026-08-28T16:17:39-04:00
; #@! TF.GenerationSoftware,Kicad,Pcbnew,10.0.3
; #@! TF.FileFunction,Plated,1,2,PTH
FMAT,2
METRIC
; #@! TA.AperFunction,Plated,PTH,ViaDrill
T1C0.350
; #@! TA.AperFunction,Plated,PTH,ViaDrill
T2C0.400
; #@! TA.AperFunction,Plated,PTH,ViaDrill
T3C0.500
; #@! TA.AperFunction,Plated,PTH,ComponentDrill
T4C0.900
; #@! TA.AperFunction,Plated,PTH,ComponentDrill
T5C1.000
; #@! TA.AperFunction,Plated,PTH,ComponentDrill
T6C1.100
%
G90
G05
T1
X79.4Y-112.674
X79.451Y-127.102
X79.502Y-119.532
X79.502Y-134.163
X79.959Y-144.882
X80.162Y-93.523
X82.55Y-144.983
X83.261Y-74.168
X84.43Y-135.636
X84.531Y-123.8
X85.141Y-145.237
X86.766Y-135.687
X86.919Y-123.85
X87.528Y-79.705
X87.935Y-120.701
X87.986Y-103.632
X88.036Y-145.542
X88.544Y-96.723
X88.849Y-113.335
X89.306Y-135.687
X89.357Y-139.344
X90.018Y-145.593
X91.084Y-121.615
X91.745Y-93.32
X91.948Y-119.075
X92.71Y-145.288
X92.913Y-139.141
X92.913Y-143.002
X92.964Y-99.974
X93.015Y-134.366
X93.624Y-129.845
X94.386Y-90.119
X94.386Y-110.592
X94.793Y-96.723
X95.199Y-145.136
X95.352Y-128.524
X95.707Y-122.834
X96.52Y-118.161
X96.571Y-121.107
X97.028Y-99.06
X97.485Y-145.237
X97.79Y-138.074
X99.416Y-105.258
X99.974Y-145.186
X100.228Y-84.328
X100.686Y-143.205
X100.787Y-76.81
X100.838Y-88.341
X100.838Y-126.34
X100.94Y-72.288
X100.94Y-135.788
X101.143Y-119.228
X101.549Y-97.485
X101.549Y-127.102
X102.565Y-145.034
X103.378Y-128.372
X103.48Y-130.099
X104.8Y-110.033
X105.004Y-116.078
X105.105Y-130.302
X105.359Y-134.569
X105.41Y-145.034
X105.664Y-97.079
X105.766Y-107.544
X105.867Y-90.424
X105.918Y-82.347
X108.153Y-145.085
X108.864Y-94.691
X109.169Y-116.637
X109.601Y-106.248
X110.287Y-85.598
X110.49Y-144.983
X110.592Y-126.543
X113.03Y-144.932
X113.436Y-134.874
X113.792Y-131.826
X115.367Y-144.882
T2
X80.336Y-97.261
X82.245Y-140.259
X83.363Y-139.598
X83.819Y-138.194
X83.82Y-142.088
X84.743Y-137.509
X86.36Y-144.577
X87.274Y-138.024
X89.865Y-141.122
X90.78Y-135.788
X92.05Y-133.299
X93.903Y-131.54
X94.894Y-125.476
X95.301Y-141.072
X96.486Y-127.511
X102.479Y-143.799
X106.68Y-131.369
X109.372Y-121.869
X110.541Y-128.676
T3
X114.96Y-111.252
T4
X114.125Y-87.122
X114.125Y-99.822
T5
X85.6Y-73.385
X85.6Y-75.925
X85.6Y-78.465
X85.6Y-81.005
X85.6Y-83.545
X85.6Y-86.085
X85.6Y-88.625
X85.6Y-91.165
X85.6Y-93.705
X85.6Y-96.245
X85.6Y-98.785
X85.6Y-101.325
X85.6Y-103.865
X85.6Y-106.405
X85.6Y-108.945
X85.6Y-111.485
X85.6Y-114.025
X85.6Y-116.565
X85.6Y-119.105
X85.6Y-121.645
X103.375Y-73.385
X103.375Y-75.925
X103.375Y-78.465
X103.375Y-81.005
X103.375Y-83.545
X103.375Y-86.085
X103.375Y-88.625
X103.375Y-91.165
X103.375Y-93.705
X103.375Y-96.245
X103.375Y-98.785
X103.375Y-101.325
X103.375Y-103.865
X103.375Y-106.405
X103.375Y-108.945
X103.375Y-111.485
X103.375Y-114.025
X103.375Y-116.565
X103.375Y-119.105
X103.375Y-121.645
T6
X109.875Y-73.65
X109.875Y-78.15
X116.375Y-73.65
X116.375Y-78.15
M30
