%TF.GenerationSoftware,KiCad,Pcbnew,10.0.3*%
%TF.CreationDate,2026-08-28T16:17:33-04:00*%
%TF.ProjectId,PiCOLECO,5069434f-4c45-4434-9f2e-6b696361645f,1*%
%TF.SameCoordinates,Original*%
%TF.FileFunction,Soldermask,Top*%
%TF.FilePolarity,Negative*%
%FSLAX46Y46*%
G04 Gerber Fmt 4.6, Leading zero omitted, Abs format (unit mm)*
G04 Created by KiCad (PCBNEW 10.0.3) date 2026-08-28 16:17:33*
%MOMM*%
%LPD*%
G01*
G04 APERTURE LIST*
G04 Aperture macros list*
%AMRoundRect*
0 Rectangle with rounded corners*
0 $1 Rounding radius*
0 $2 $3 $4 $5 $6 $7 $8 $9 X,Y pos of 4 corners*
0 Add a 4 corners polygon primitive as box body*
4,1,4,$2,$3,$4,$5,$6,$7,$8,$9,$2,$3,0*
0 Add four circle primitives for the rounded corners*
1,1,$1+$1,$2,$3*
1,1,$1+$1,$4,$5*
1,1,$1+$1,$6,$7*
1,1,$1+$1,$8,$9*
0 Add four rect primitives between the rounded corners*
20,1,$1+$1,$2,$3,$4,$5,0*
20,1,$1+$1,$4,$5,$6,$7,0*
20,1,$1+$1,$6,$7,$8,$9,0*
20,1,$1+$1,$8,$9,$2,$3,0*%
G04 Aperture macros list end*
%ADD10C,0.250000*%
%ADD11C,0.100000*%
%ADD12R,1.750000X7.000000*%
%ADD13R,1.750000X5.750000*%
%ADD14RoundRect,0.250000X-0.650000X0.650000X-0.650000X-0.650000X0.650000X-0.650000X0.650000X0.650000X0*%
%ADD15C,1.800000*%
%ADD16R,1.700000X1.700000*%
%ADD17O,1.700000X1.700000*%
%ADD18C,2.000000*%
G04 APERTURE END LIST*
D10*
G36*
X111945548Y-127403054D02*
G01*
X112007541Y-127364084D01*
X112046897Y-127324114D01*
X112068801Y-127282673D01*
X112075974Y-127238190D01*
X112066590Y-127187343D01*
X112038534Y-127144564D01*
X111987851Y-127107577D01*
X111905981Y-127076990D01*
X111828202Y-127063382D01*
X111738644Y-127058580D01*
X111650716Y-127062702D01*
X110903974Y-127126449D01*
X110816871Y-126624164D01*
X111611973Y-126607677D01*
X111669401Y-126607677D01*
X111838296Y-126615627D01*
X111974025Y-126637345D01*
X112082062Y-126670153D01*
X112167199Y-126712156D01*
X112233419Y-126762375D01*
X112289035Y-126826163D01*
X112334081Y-126904373D01*
X112368279Y-126999567D01*
X112390406Y-127115021D01*
X112398374Y-127254585D01*
X112388187Y-127380515D01*
X112358984Y-127490475D01*
X112311775Y-127587263D01*
X112246152Y-127672984D01*
X112160329Y-127748902D01*
X111945548Y-127403054D01*
G37*
G36*
X112353037Y-125605121D02*
G01*
X112048863Y-125683157D01*
X111990153Y-126033676D01*
X112349281Y-126156774D01*
X112228473Y-126513064D01*
X110772358Y-126006840D01*
X110788979Y-125843167D01*
X111421189Y-125843167D01*
X111769327Y-125962052D01*
X111806971Y-125744248D01*
X111421189Y-125843167D01*
X110788979Y-125843167D01*
X110809636Y-125639743D01*
X112265842Y-125104668D01*
X112353037Y-125605121D01*
G37*
G36*
X112352853Y-124397585D02*
G01*
X112313378Y-124766056D01*
X111539067Y-124835940D01*
X110875948Y-125359291D01*
X110772175Y-124796647D01*
X111216758Y-124547703D01*
X110776113Y-124245727D01*
X110894998Y-123889071D01*
X111526702Y-124358475D01*
X112352853Y-124397585D01*
G37*
G36*
X112040803Y-123386969D02*
G01*
X112031951Y-123319343D01*
X112007698Y-123269644D01*
X111968537Y-123233279D01*
X111937185Y-123218227D01*
X111902958Y-123213221D01*
X111863852Y-123223939D01*
X111811625Y-123263991D01*
X111739926Y-123351432D01*
X111686986Y-123431207D01*
X111591949Y-123564612D01*
X111519028Y-123651934D01*
X111463871Y-123704698D01*
X111389016Y-123755479D01*
X111315559Y-123784202D01*
X111241671Y-123793542D01*
X111159221Y-123784723D01*
X111085308Y-123758908D01*
X111017878Y-123715708D01*
X110955662Y-123652982D01*
X110898296Y-123567037D01*
X110846273Y-123452869D01*
X110814736Y-123329644D01*
X110803957Y-123195269D01*
X110812077Y-123082609D01*
X110835202Y-122985055D01*
X110872175Y-122900163D01*
X110922824Y-122825991D01*
X110987963Y-122761219D01*
X111033667Y-122726414D01*
X111177557Y-123034984D01*
X111129997Y-123051969D01*
X111094830Y-123082255D01*
X111069937Y-123128041D01*
X111061877Y-123180431D01*
X111071828Y-123241219D01*
X111100629Y-123289967D01*
X111150538Y-123329725D01*
X111196056Y-123347918D01*
X111243228Y-123353905D01*
X111289497Y-123346418D01*
X111334265Y-123323219D01*
X111379156Y-123281054D01*
X111424853Y-123214228D01*
X111482189Y-123099923D01*
X111547582Y-122974780D01*
X111601073Y-122892067D01*
X111644580Y-122841178D01*
X111715435Y-122787206D01*
X111794360Y-122755214D01*
X111884090Y-122744274D01*
X111965374Y-122752082D01*
X112037858Y-122774784D01*
X112103407Y-122812316D01*
X112163286Y-122865942D01*
X112218045Y-122938157D01*
X112267491Y-123032512D01*
X112310051Y-123156539D01*
X112336458Y-123294016D01*
X112345618Y-123447053D01*
X112337294Y-123562130D01*
X112313868Y-123659095D01*
X112276866Y-123741020D01*
X112226675Y-123810331D01*
X112162527Y-123868646D01*
X111945456Y-123523348D01*
X111999953Y-123487275D01*
X112030429Y-123442745D01*
X112040803Y-123386969D01*
G37*
G36*
X112313378Y-121793101D02*
G01*
X112352853Y-122161572D01*
X111049696Y-122266627D01*
X110994833Y-121933327D01*
X111026523Y-122637204D01*
X110795164Y-122666697D01*
X110741767Y-121338077D01*
X110973034Y-121308584D01*
X110991535Y-121764342D01*
X112313378Y-121793101D01*
G37*
G36*
X111760504Y-119865057D02*
G01*
X111882930Y-119888871D01*
X111992626Y-119927150D01*
X112091302Y-119979492D01*
X112180296Y-120046185D01*
X112258272Y-120127429D01*
X112318478Y-120217954D01*
X112362031Y-120319051D01*
X112388994Y-120432611D01*
X112398374Y-120561018D01*
X112389983Y-120671490D01*
X112365694Y-120770568D01*
X112326130Y-120860165D01*
X112270957Y-120941777D01*
X112198907Y-121016400D01*
X112107847Y-121084461D01*
X111990173Y-121147073D01*
X111861054Y-121192581D01*
X111718691Y-121220722D01*
X111560957Y-121230457D01*
X111421533Y-121223103D01*
X111295309Y-121201866D01*
X111180691Y-121167661D01*
X111076279Y-121120954D01*
X110980911Y-121061747D01*
X110889688Y-120982479D01*
X110821223Y-120896676D01*
X110772953Y-120803455D01*
X110743670Y-120701197D01*
X110733615Y-120587671D01*
X110737228Y-120538578D01*
X111032568Y-120538578D01*
X111040599Y-120597842D01*
X111064411Y-120650862D01*
X111105483Y-120699556D01*
X111167613Y-120744722D01*
X111256508Y-120785966D01*
X111356249Y-120815984D01*
X111466319Y-120834638D01*
X111588160Y-120841104D01*
X111727076Y-120833001D01*
X111838382Y-120810819D01*
X111926966Y-120777048D01*
X111996931Y-120733118D01*
X112042022Y-120684529D01*
X112067529Y-120633306D01*
X112075974Y-120577596D01*
X112065338Y-120522471D01*
X112031975Y-120470175D01*
X111969451Y-120418447D01*
X111866688Y-120367120D01*
X111743602Y-120327880D01*
X111610561Y-120303773D01*
X111466069Y-120295496D01*
X111322716Y-120304950D01*
X111215334Y-120330142D01*
X111136126Y-120367530D01*
X111078913Y-120415480D01*
X111053104Y-120452559D01*
X111037787Y-120493187D01*
X111032568Y-120538578D01*
X110737228Y-120538578D01*
X110741514Y-120480348D01*
X110764591Y-120381801D01*
X110802500Y-120290528D01*
X110855679Y-120205321D01*
X110925323Y-120125334D01*
X111013334Y-120050123D01*
X111112653Y-119985146D01*
X111218875Y-119933419D01*
X111332854Y-119894644D01*
X111455637Y-119868926D01*
X111588434Y-119856774D01*
X111623331Y-119856774D01*
X111760504Y-119865057D01*
G37*
G36*
X110819344Y-118983270D02*
G01*
X110858912Y-118612693D01*
X112266025Y-118505623D01*
X112352945Y-119006993D01*
X111428333Y-119349085D01*
X112228748Y-119367220D01*
X112349648Y-119723784D01*
X110762008Y-119703176D01*
X110799377Y-119335163D01*
X111710892Y-118997467D01*
X110819344Y-118983270D01*
G37*
G36*
X112352945Y-117925577D02*
G01*
X112313378Y-118294139D01*
X110906264Y-118401118D01*
X110819161Y-117900756D01*
X112352945Y-117925577D01*
G37*
G36*
X112353037Y-116887117D02*
G01*
X112048863Y-116965153D01*
X111990153Y-117315672D01*
X112349281Y-117438770D01*
X112228473Y-117795060D01*
X110772358Y-117288836D01*
X110788979Y-117125162D01*
X111421189Y-117125162D01*
X111769327Y-117244048D01*
X111806971Y-117026244D01*
X111421189Y-117125162D01*
X110788979Y-117125162D01*
X110809636Y-116921739D01*
X112265842Y-116386664D01*
X112353037Y-116887117D01*
G37*
G36*
X110819344Y-115557032D02*
G01*
X110858912Y-115186454D01*
X112266025Y-115079384D01*
X112352945Y-115580754D01*
X111428333Y-115922846D01*
X112228748Y-115940982D01*
X112349648Y-116297546D01*
X110762008Y-116276938D01*
X110799377Y-115908925D01*
X111710892Y-115571228D01*
X110819344Y-115557032D01*
G37*
G36*
X110676645Y-114623719D02*
G01*
X111162261Y-114731705D01*
X111126357Y-114886310D01*
X110636803Y-114940258D01*
X110676645Y-114623719D01*
G37*
G36*
X112040803Y-114047611D02*
G01*
X112031951Y-113979985D01*
X112007698Y-113930286D01*
X111968537Y-113893921D01*
X111937185Y-113878869D01*
X111902958Y-113873863D01*
X111863852Y-113884581D01*
X111811625Y-113924633D01*
X111739926Y-114012074D01*
X111686986Y-114091849D01*
X111591949Y-114225254D01*
X111519028Y-114312576D01*
X111463871Y-114365340D01*
X111389016Y-114416121D01*
X111315559Y-114444844D01*
X111241671Y-114454184D01*
X111159221Y-114445365D01*
X111085308Y-114419550D01*
X111017878Y-114376350D01*
X110955662Y-114313624D01*
X110898296Y-114227679D01*
X110846273Y-114113511D01*
X110814736Y-113990286D01*
X110803957Y-113855911D01*
X110812077Y-113743251D01*
X110835202Y-113645697D01*
X110872175Y-113560805D01*
X110922824Y-113486633D01*
X110987963Y-113421861D01*
X111033667Y-113387056D01*
X111177557Y-113695627D01*
X111129997Y-113712611D01*
X111094830Y-113742897D01*
X111069937Y-113788683D01*
X111061877Y-113841073D01*
X111071828Y-113901861D01*
X111100629Y-113950609D01*
X111150538Y-113990367D01*
X111196056Y-114008560D01*
X111243228Y-114014547D01*
X111289497Y-114007060D01*
X111334265Y-113983861D01*
X111379156Y-113941696D01*
X111424853Y-113874870D01*
X111482189Y-113760565D01*
X111547582Y-113635422D01*
X111601073Y-113552709D01*
X111644580Y-113501820D01*
X111715435Y-113447848D01*
X111794360Y-113415856D01*
X111884090Y-113404916D01*
X111965374Y-113412724D01*
X112037858Y-113435426D01*
X112103407Y-113472958D01*
X112163286Y-113526584D01*
X112218045Y-113598799D01*
X112267491Y-113693154D01*
X112310051Y-113817181D01*
X112336458Y-113954658D01*
X112345618Y-114107695D01*
X112337294Y-114222772D01*
X112313868Y-114319737D01*
X112276866Y-114401662D01*
X112226675Y-114470973D01*
X112162527Y-114529288D01*
X111945456Y-114183990D01*
X111999953Y-114147917D01*
X112030429Y-114103387D01*
X112040803Y-114047611D01*
G37*
G36*
X114871754Y-126808903D02*
G01*
X114493850Y-127216849D01*
X114832095Y-127216849D01*
X114871571Y-127587427D01*
X113568505Y-127692482D01*
X113517672Y-127406443D01*
X113500357Y-127541809D01*
X113493950Y-127713181D01*
X113260484Y-127685796D01*
X113276272Y-127429436D01*
X113304823Y-127209578D01*
X113307991Y-127194501D01*
X113570978Y-127194501D01*
X114097718Y-127204485D01*
X114050300Y-127087670D01*
X113999150Y-127006719D01*
X113945106Y-126953486D01*
X113887608Y-126922109D01*
X113833295Y-126912034D01*
X113776872Y-126921945D01*
X113722131Y-126952942D01*
X113666898Y-127010197D01*
X113610454Y-127102544D01*
X113570978Y-127194501D01*
X113307991Y-127194501D01*
X113344226Y-127022063D01*
X113392866Y-126863032D01*
X113449458Y-126728952D01*
X113513092Y-126616653D01*
X113579220Y-126532322D01*
X113643733Y-126472340D01*
X113707178Y-126432444D01*
X113770562Y-126409568D01*
X113835310Y-126402055D01*
X113905235Y-126410875D01*
X113972846Y-126437714D01*
X114039907Y-126484755D01*
X114107528Y-126556129D01*
X114176120Y-126657594D01*
X114225371Y-126755583D01*
X114268719Y-126865872D01*
X114674376Y-126312754D01*
X114871754Y-126808903D01*
G37*
G36*
X113492942Y-126262104D02*
G01*
X113261767Y-126234718D01*
X113315256Y-125137824D01*
X113546523Y-125165210D01*
X113517947Y-125741226D01*
X114026094Y-125751301D01*
X113997426Y-125419008D01*
X114226678Y-125433755D01*
X114257453Y-125761651D01*
X114620612Y-125761651D01*
X114589837Y-125172903D01*
X114819090Y-125185543D01*
X114872762Y-126136350D01*
X113569696Y-126241405D01*
X113508696Y-125873300D01*
X113492942Y-126262104D01*
G37*
G36*
X114833378Y-124183262D02*
G01*
X114872853Y-124551733D01*
X113569696Y-124656788D01*
X113514833Y-124323488D01*
X113546523Y-125027365D01*
X113315164Y-125056857D01*
X113261767Y-123728237D01*
X113493034Y-123698745D01*
X113511535Y-124154502D01*
X114833378Y-124183262D01*
G37*
G36*
X114871754Y-122696830D02*
G01*
X114493850Y-123104777D01*
X114832095Y-123104777D01*
X114871571Y-123475354D01*
X113568505Y-123580409D01*
X113517672Y-123294370D01*
X113500357Y-123429736D01*
X113493950Y-123601109D01*
X113260484Y-123573723D01*
X113276272Y-123317363D01*
X113304823Y-123097505D01*
X113307991Y-123082429D01*
X113570978Y-123082429D01*
X114097718Y-123092412D01*
X114050300Y-122975597D01*
X113999150Y-122894646D01*
X113945106Y-122841414D01*
X113887608Y-122810037D01*
X113833295Y-122799962D01*
X113776872Y-122809873D01*
X113722131Y-122840869D01*
X113666898Y-122898125D01*
X113610454Y-122990471D01*
X113570978Y-123082429D01*
X113307991Y-123082429D01*
X113344226Y-122909991D01*
X113392866Y-122750960D01*
X113449458Y-122616879D01*
X113513092Y-122504581D01*
X113579220Y-122420249D01*
X113643733Y-122360268D01*
X113707178Y-122320372D01*
X113770562Y-122297496D01*
X113835310Y-122289983D01*
X113905235Y-122298803D01*
X113972846Y-122325642D01*
X114039907Y-122372683D01*
X114107528Y-122444056D01*
X114176120Y-122545522D01*
X114225371Y-122643510D01*
X114268719Y-122753800D01*
X114674376Y-122200681D01*
X114871754Y-122696830D01*
G37*
G36*
X114280504Y-120800018D02*
G01*
X114402930Y-120823833D01*
X114512626Y-120862111D01*
X114611302Y-120914454D01*
X114700296Y-120981146D01*
X114778272Y-121062390D01*
X114838478Y-121152916D01*
X114882031Y-121254013D01*
X114908994Y-121367573D01*
X114918374Y-121495980D01*
X114909983Y-121606451D01*
X114885694Y-121705530D01*
X114846130Y-121795126D01*
X114790957Y-121876739D01*
X114718907Y-121951361D01*
X114627847Y-122019423D01*
X114510173Y-122082034D01*
X114381054Y-122127542D01*
X114238691Y-122155683D01*
X114080957Y-122165419D01*
X113941533Y-122158065D01*
X113815309Y-122136828D01*
X113700691Y-122102623D01*
X113596279Y-122055915D01*
X113500911Y-121996708D01*
X113409688Y-121917441D01*
X113341223Y-121831637D01*
X113292953Y-121738416D01*
X113263670Y-121636159D01*
X113253615Y-121522633D01*
X113257228Y-121473540D01*
X113552568Y-121473540D01*
X113560599Y-121532804D01*
X113584411Y-121585823D01*
X113625483Y-121634518D01*
X113687613Y-121679683D01*
X113776508Y-121720927D01*
X113876249Y-121750946D01*
X113986319Y-121769600D01*
X114108160Y-121776065D01*
X114247076Y-121767962D01*
X114358382Y-121745781D01*
X114446966Y-121712010D01*
X114516931Y-121668079D01*
X114562022Y-121619491D01*
X114587529Y-121568267D01*
X114595974Y-121512558D01*
X114585338Y-121457432D01*
X114551975Y-121405137D01*
X114489451Y-121353409D01*
X114386688Y-121302081D01*
X114263602Y-121262842D01*
X114130561Y-121238734D01*
X113986069Y-121230457D01*
X113842716Y-121239912D01*
X113735334Y-121265103D01*
X113656126Y-121302492D01*
X113598913Y-121350442D01*
X113573104Y-121387521D01*
X113557787Y-121428149D01*
X113552568Y-121473540D01*
X113257228Y-121473540D01*
X113261514Y-121415310D01*
X113284591Y-121316763D01*
X113322500Y-121225490D01*
X113375679Y-121140283D01*
X113445323Y-121060296D01*
X113533334Y-120985085D01*
X113632653Y-120920108D01*
X113738875Y-120868381D01*
X113852854Y-120829605D01*
X113975637Y-120803887D01*
X114108434Y-120791736D01*
X114143331Y-120791736D01*
X114280504Y-120800018D01*
G37*
G36*
X114068501Y-119460551D02*
G01*
X113364990Y-119268393D01*
X113364990Y-118913295D01*
X114099733Y-118700712D01*
X113294831Y-118538413D01*
X113384132Y-118036127D01*
X114836217Y-118486755D01*
X114875601Y-118856234D01*
X114039375Y-119083654D01*
X114875601Y-119298893D01*
X114836217Y-119666265D01*
X113384132Y-120116985D01*
X113294831Y-119614608D01*
X114068501Y-119460551D01*
G37*
G36*
X114873037Y-117295980D02*
G01*
X114568863Y-117374015D01*
X114510153Y-117724534D01*
X114869281Y-117847633D01*
X114748473Y-118203922D01*
X113292358Y-117697698D01*
X113308979Y-117534025D01*
X113941189Y-117534025D01*
X114289327Y-117652910D01*
X114326971Y-117435107D01*
X113941189Y-117534025D01*
X113308979Y-117534025D01*
X113329636Y-117330601D01*
X114785842Y-116795526D01*
X114873037Y-117295980D01*
G37*
G36*
X114871754Y-115841422D02*
G01*
X114493850Y-116249369D01*
X114832095Y-116249369D01*
X114871571Y-116619946D01*
X113568505Y-116725001D01*
X113517672Y-116438962D01*
X113500357Y-116574328D01*
X113493950Y-116745701D01*
X113260484Y-116718315D01*
X113276272Y-116461955D01*
X113304823Y-116242097D01*
X113307991Y-116227020D01*
X113570978Y-116227020D01*
X114097718Y-116237004D01*
X114050300Y-116120189D01*
X113999150Y-116039238D01*
X113945106Y-115986005D01*
X113887608Y-115954629D01*
X113833295Y-115944554D01*
X113776872Y-115954464D01*
X113722131Y-115985461D01*
X113666898Y-116042716D01*
X113610454Y-116135063D01*
X113570978Y-116227020D01*
X113307991Y-116227020D01*
X113344226Y-116054582D01*
X113392866Y-115895551D01*
X113449458Y-115761471D01*
X113513092Y-115649172D01*
X113579220Y-115564841D01*
X113643733Y-115504860D01*
X113707178Y-115464963D01*
X113770562Y-115442088D01*
X113835310Y-115434575D01*
X113905235Y-115443394D01*
X113972846Y-115470234D01*
X114039907Y-115517275D01*
X114107528Y-115588648D01*
X114176120Y-115690114D01*
X114225371Y-115788102D01*
X114268719Y-115898392D01*
X114674376Y-115345273D01*
X114871754Y-115841422D01*
G37*
G36*
X113492942Y-115294623D02*
G01*
X113261767Y-115267238D01*
X113315256Y-114170343D01*
X113546523Y-114197729D01*
X113517947Y-114773745D01*
X114026094Y-114783820D01*
X113997426Y-114451528D01*
X114226678Y-114466274D01*
X114257453Y-114794170D01*
X114620612Y-114794170D01*
X114589837Y-114205422D01*
X114819090Y-114218062D01*
X114872762Y-115168869D01*
X113569696Y-115273924D01*
X113508696Y-114905819D01*
X113492942Y-115294623D01*
G37*
G36*
X114560803Y-113621163D02*
G01*
X114551951Y-113553537D01*
X114527698Y-113503838D01*
X114488537Y-113467473D01*
X114457185Y-113452421D01*
X114422958Y-113447415D01*
X114383852Y-113458133D01*
X114331625Y-113498185D01*
X114259926Y-113585626D01*
X114206986Y-113665401D01*
X114111949Y-113798806D01*
X114039028Y-113886128D01*
X113983871Y-113938892D01*
X113909016Y-113989673D01*
X113835559Y-114018396D01*
X113761671Y-114027736D01*
X113679221Y-114018917D01*
X113605308Y-113993102D01*
X113537878Y-113949902D01*
X113475662Y-113887176D01*
X113418296Y-113801231D01*
X113366273Y-113687063D01*
X113334736Y-113563838D01*
X113323957Y-113429463D01*
X113332077Y-113316803D01*
X113355202Y-113219249D01*
X113392175Y-113134357D01*
X113442824Y-113060185D01*
X113507963Y-112995413D01*
X113553667Y-112960608D01*
X113697557Y-113269178D01*
X113649997Y-113286163D01*
X113614830Y-113316449D01*
X113589937Y-113362235D01*
X113581877Y-113414625D01*
X113591828Y-113475413D01*
X113620629Y-113524161D01*
X113670538Y-113563919D01*
X113716056Y-113582112D01*
X113763228Y-113588099D01*
X113809497Y-113580612D01*
X113854265Y-113557413D01*
X113899156Y-113515248D01*
X113944853Y-113448422D01*
X114002189Y-113334117D01*
X114067582Y-113208974D01*
X114121073Y-113126261D01*
X114164580Y-113075372D01*
X114235435Y-113021400D01*
X114314360Y-112989408D01*
X114404090Y-112978468D01*
X114485374Y-112986276D01*
X114557858Y-113008978D01*
X114623407Y-113046510D01*
X114683286Y-113100136D01*
X114738045Y-113172351D01*
X114787491Y-113266706D01*
X114830051Y-113390733D01*
X114856458Y-113528210D01*
X114865618Y-113681247D01*
X114857294Y-113796324D01*
X114833868Y-113893289D01*
X114796866Y-113975214D01*
X114746675Y-114044525D01*
X114682527Y-114102840D01*
X114465456Y-113757542D01*
X114519953Y-113721469D01*
X114550429Y-113676939D01*
X114560803Y-113621163D01*
G37*
D11*
%TO.C,X1*%
X78943200Y-146547700D02*
X78943200Y-153469200D01*
X119138700Y-153469200D01*
X119138700Y-146547700D01*
X78943200Y-146547700D01*
G36*
X119138700Y-153469200D02*
G01*
X78943200Y-153469200D01*
X78943200Y-146547700D01*
X119138700Y-146547700D01*
X119138700Y-153469200D01*
G37*
%TD*%
D12*
%TO.C,X1*%
X81292700Y-149976700D03*
X83832700Y-149976700D03*
X86372700Y-149976700D03*
X88912700Y-149976700D03*
X91452700Y-149976700D03*
X93992700Y-149976700D03*
X96532700Y-149976700D03*
X99072700Y-149976700D03*
X101612700Y-149976700D03*
X104152700Y-149976700D03*
X106692700Y-149976700D03*
X109232700Y-149976700D03*
X111772700Y-149976700D03*
X114312700Y-149976700D03*
D13*
X116852700Y-149341700D03*
%TD*%
D14*
%TO.C,D1*%
X114125000Y-87122000D03*
D15*
X114125000Y-99822000D03*
%TD*%
D16*
%TO.C,J1*%
X85600000Y-73385000D03*
D17*
X85600000Y-75925000D03*
X85600000Y-78465000D03*
X85600000Y-81005000D03*
X85600000Y-83545000D03*
X85600000Y-86085000D03*
X85600000Y-88625000D03*
X85600000Y-91165000D03*
X85600000Y-93705000D03*
X85600000Y-96245000D03*
X85600000Y-98785000D03*
X85600000Y-101325000D03*
X85600000Y-103865000D03*
X85600000Y-106405000D03*
X85600000Y-108945000D03*
X85600000Y-111485000D03*
X85600000Y-114025000D03*
X85600000Y-116565000D03*
X85600000Y-119105000D03*
X85600000Y-121645000D03*
%TD*%
D18*
%TO.C,SW1*%
X109875000Y-73650000D03*
X116375000Y-73650000D03*
X109875000Y-78150000D03*
X116375000Y-78150000D03*
%TD*%
D16*
%TO.C,J2*%
X103375000Y-73385000D03*
D17*
X103375000Y-75925000D03*
X103375000Y-78465000D03*
X103375000Y-81005000D03*
X103375000Y-83545000D03*
X103375000Y-86085000D03*
X103375000Y-88625000D03*
X103375000Y-91165000D03*
X103375000Y-93705000D03*
X103375000Y-96245000D03*
X103375000Y-98785000D03*
X103375000Y-101325000D03*
X103375000Y-103865000D03*
X103375000Y-106405000D03*
X103375000Y-108945000D03*
X103375000Y-111485000D03*
X103375000Y-114025000D03*
X103375000Y-116565000D03*
X103375000Y-119105000D03*
X103375000Y-121645000D03*
%TD*%
M02*
