%TF.GenerationSoftware,KiCad,Pcbnew,10.0.3*%
%TF.CreationDate,2026-08-28T16:17:33-04:00*%
%TF.ProjectId,PiCOLECO,5069434f-4c45-4434-9f2e-6b696361645f,1*%
%TF.SameCoordinates,Original*%
%TF.FileFunction,Copper,L1,Top*%
%TF.FilePolarity,Positive*%
%FSLAX46Y46*%
G04 Gerber Fmt 4.6, Leading zero omitted, Abs format (unit mm)*
G04 Created by KiCad (PCBNEW 10.0.3) date 2026-08-28 16:17:33*
%MOMM*%
%LPD*%
G01*
G04 APERTURE LIST*
G04 Aperture macros list*
%AMRoundRect*
0 Rectangle with rounded corners*
0 $1 Rounding radius*
0 $2 $3 $4 $5 $6 $7 $8 $9 X,Y pos of 4 corners*
0 Add a 4 corners polygon primitive as box body*
4,1,4,$2,$3,$4,$5,$6,$7,$8,$9,$2,$3,0*
0 Add four circle primitives for the rounded corners*
1,1,$1+$1,$2,$3*
1,1,$1+$1,$4,$5*
1,1,$1+$1,$6,$7*
1,1,$1+$1,$8,$9*
0 Add four rect primitives between the rounded corners*
20,1,$1+$1,$2,$3,$4,$5,0*
20,1,$1+$1,$4,$5,$6,$7,0*
20,1,$1+$1,$6,$7,$8,$9,0*
20,1,$1+$1,$8,$9,$2,$3,0*%
G04 Aperture macros list end*
%TA.AperFunction,EtchedComponent*%
%ADD10C,0.400000*%
%TD*%
%TA.AperFunction,EtchedComponent*%
%ADD11C,0.000000*%
%TD*%
%TA.AperFunction,EtchedComponent*%
%ADD12C,0.500000*%
%TD*%
%TA.AperFunction,EtchedComponent*%
%ADD13C,0.100000*%
%TD*%
%TA.AperFunction,ConnectorPad*%
%ADD14R,1.750000X7.000000*%
%TD*%
%TA.AperFunction,ConnectorPad*%
%ADD15R,1.750000X5.750000*%
%TD*%
%TA.AperFunction,ComponentPad*%
%ADD16RoundRect,0.250000X-0.650000X0.650000X-0.650000X-0.650000X0.650000X-0.650000X0.650000X0.650000X0*%
%TD*%
%TA.AperFunction,ComponentPad*%
%ADD17C,1.800000*%
%TD*%
%TA.AperFunction,ComponentPad*%
%ADD18R,1.700000X1.700000*%
%TD*%
%TA.AperFunction,ComponentPad*%
%ADD19O,1.700000X1.700000*%
%TD*%
%TA.AperFunction,ComponentPad*%
%ADD20C,2.000000*%
%TD*%
%TA.AperFunction,ViaPad*%
%ADD21C,0.800000*%
%TD*%
%TA.AperFunction,ViaPad*%
%ADD22C,0.400000*%
%TD*%
%TA.AperFunction,Conductor*%
%ADD23C,0.300000*%
%TD*%
%TA.AperFunction,Conductor*%
%ADD24C,0.250000*%
%TD*%
%TA.AperFunction,Conductor*%
%ADD25C,1.500000*%
%TD*%
G04 APERTURE END LIST*
%TO.C,REF\u002A\u002A*%
D10*
X118705640Y-82804000D02*
G75*
G02*
X113705640Y-82804000I-2500000J0D01*
G01*
X113705640Y-82804000D02*
G75*
G02*
X118705640Y-82804000I2500000J0D01*
G01*
D11*
%TA.AperFunction,EtchedComponent*%
G36*
X116376666Y-81504897D02*
G01*
X116427319Y-81508462D01*
X116477390Y-81513844D01*
X116526881Y-81521043D01*
X116575790Y-81530058D01*
X116624120Y-81540891D01*
X116671868Y-81553541D01*
X116719037Y-81568009D01*
X116765626Y-81584294D01*
X116811635Y-81602397D01*
X116857066Y-81622317D01*
X116901917Y-81644056D01*
X116946190Y-81667613D01*
X116989884Y-81692988D01*
X117033000Y-81720182D01*
X117075538Y-81749194D01*
X117117499Y-81780024D01*
X116731154Y-82176926D01*
X116699986Y-82155783D01*
X116668745Y-82136005D01*
X116637430Y-82117592D01*
X116606040Y-82100543D01*
X116574574Y-82084860D01*
X116543032Y-82070540D01*
X116511411Y-82057586D01*
X116479711Y-82045995D01*
X116447930Y-82035769D01*
X116416068Y-82026906D01*
X116384124Y-82019407D01*
X116352096Y-82013272D01*
X116319984Y-82008501D01*
X116287786Y-82005093D01*
X116255501Y-82003048D01*
X116223128Y-82002367D01*
X116206036Y-82002574D01*
X116189174Y-82003196D01*
X116172541Y-82004231D01*
X116156139Y-82005680D01*
X116139966Y-82007543D01*
X116124022Y-82009819D01*
X116108307Y-82012508D01*
X116092822Y-82015609D01*
X116077566Y-82019123D01*
X116062538Y-82023049D01*
X116047739Y-82027387D01*
X116033169Y-82032136D01*
X116018827Y-82037297D01*
X116004714Y-82042868D01*
X115990828Y-82048851D01*
X115977171Y-82055244D01*
X115970497Y-82058624D01*
X115964034Y-82062149D01*
X115957782Y-82065819D01*
X115951743Y-82069633D01*
X115945915Y-82073593D01*
X115940299Y-82077697D01*
X115934894Y-82081946D01*
X115929701Y-82086340D01*
X115924720Y-82090879D01*
X115919951Y-82095562D01*
X115915394Y-82100390D01*
X115911048Y-82105362D01*
X115906914Y-82110480D01*
X115902992Y-82115742D01*
X115899282Y-82121148D01*
X115895784Y-82126700D01*
X115892497Y-82132395D01*
X115889423Y-82138236D01*
X115886560Y-82144221D01*
X115883909Y-82150350D01*
X115881471Y-82156624D01*
X115879244Y-82163043D01*
X115877229Y-82169606D01*
X115875427Y-82176314D01*
X115873836Y-82183166D01*
X115872457Y-82190162D01*
X115871291Y-82197303D01*
X115870336Y-82204589D01*
X115869594Y-82212018D01*
X115869063Y-82219592D01*
X115868639Y-82235174D01*
X115868742Y-82239809D01*
X115869051Y-82244442D01*
X115869567Y-82249073D01*
X115870288Y-82253703D01*
X115871216Y-82258332D01*
X115872350Y-82262960D01*
X115873691Y-82267588D01*
X115875237Y-82272215D01*
X115876990Y-82276843D01*
X115878948Y-82281470D01*
X115881113Y-82286099D01*
X115883485Y-82290728D01*
X115886062Y-82295358D01*
X115888846Y-82299989D01*
X115891835Y-82304622D01*
X115895031Y-82309257D01*
X116270726Y-82478723D01*
X116530018Y-82595126D01*
X117006374Y-82806727D01*
X118524804Y-83484033D01*
X118307740Y-84023638D01*
X117191304Y-83526261D01*
X117183346Y-83560930D01*
X117174092Y-83594790D01*
X117163542Y-83627840D01*
X117151694Y-83660081D01*
X117138549Y-83691513D01*
X117124106Y-83722137D01*
X117108366Y-83751951D01*
X117091326Y-83780957D01*
X117072988Y-83809155D01*
X117053350Y-83836544D01*
X117032412Y-83863125D01*
X117010175Y-83888897D01*
X116986636Y-83913862D01*
X116961797Y-83938019D01*
X116935656Y-83961369D01*
X116908213Y-83983911D01*
X116879734Y-84005479D01*
X116850623Y-84025873D01*
X116820878Y-84045091D01*
X116790500Y-84063132D01*
X116759488Y-84079997D01*
X116727841Y-84095684D01*
X116695558Y-84110193D01*
X116662638Y-84123523D01*
X116629082Y-84135674D01*
X116594888Y-84146644D01*
X116560056Y-84156433D01*
X116524584Y-84165040D01*
X116488473Y-84172465D01*
X116451722Y-84178708D01*
X116414329Y-84183766D01*
X116376295Y-84187640D01*
X116376295Y-84642790D01*
X116032363Y-84642790D01*
X116032363Y-84187640D01*
X115971175Y-84185669D01*
X115910647Y-84181007D01*
X115850780Y-84173654D01*
X115791574Y-84163611D01*
X115733029Y-84150876D01*
X115675146Y-84135451D01*
X115617925Y-84117335D01*
X115561367Y-84096529D01*
X115505472Y-84073033D01*
X115450240Y-84046846D01*
X115395673Y-84017970D01*
X115341769Y-83986404D01*
X115288530Y-83952148D01*
X115235957Y-83915203D01*
X115184049Y-83875568D01*
X115132806Y-83833244D01*
X115540265Y-83420507D01*
X115576936Y-83453173D01*
X115614232Y-83483731D01*
X115652152Y-83512182D01*
X115690696Y-83538525D01*
X115729863Y-83562761D01*
X115769654Y-83584890D01*
X115810067Y-83604911D01*
X115851102Y-83622824D01*
X115892759Y-83638630D01*
X115935038Y-83652329D01*
X115977937Y-83663920D01*
X116021458Y-83673403D01*
X116065598Y-83680779D01*
X116110358Y-83686048D01*
X116155738Y-83689209D01*
X116201736Y-83690263D01*
X116220731Y-83689996D01*
X116239379Y-83689194D01*
X116257679Y-83687857D01*
X116275631Y-83685984D01*
X116293235Y-83683575D01*
X116310490Y-83680628D01*
X116327396Y-83677143D01*
X116343953Y-83673120D01*
X116360161Y-83668557D01*
X116376018Y-83663454D01*
X116391526Y-83657810D01*
X116406684Y-83651625D01*
X116421491Y-83644898D01*
X116435947Y-83637629D01*
X116450052Y-83629815D01*
X116463806Y-83621458D01*
X116470472Y-83617082D01*
X116476928Y-83612529D01*
X116483173Y-83607801D01*
X116489208Y-83602896D01*
X116495031Y-83597816D01*
X116500644Y-83592559D01*
X116506046Y-83587127D01*
X116511236Y-83581518D01*
X116516216Y-83575733D01*
X116520985Y-83569772D01*
X116525542Y-83563635D01*
X116529888Y-83557321D01*
X116534023Y-83550831D01*
X116537946Y-83544164D01*
X116541658Y-83537321D01*
X116545159Y-83530301D01*
X116548447Y-83523104D01*
X116551524Y-83515731D01*
X116554390Y-83508182D01*
X116557043Y-83500455D01*
X116559485Y-83492552D01*
X116561714Y-83484471D01*
X116563732Y-83476214D01*
X116565537Y-83467780D01*
X116568512Y-83450381D01*
X116570637Y-83432273D01*
X116571913Y-83413456D01*
X116572338Y-83393930D01*
X116572027Y-83380189D01*
X116571093Y-83366782D01*
X116569537Y-83353708D01*
X116567359Y-83340969D01*
X116564560Y-83328562D01*
X116561140Y-83316488D01*
X116557100Y-83304747D01*
X116552440Y-83293338D01*
X116547160Y-83282261D01*
X116541260Y-83271516D01*
X116534742Y-83261103D01*
X116527606Y-83251021D01*
X116519851Y-83241270D01*
X116511479Y-83231849D01*
X116502490Y-83222759D01*
X116492884Y-83214000D01*
X116207200Y-83092225D01*
X115857990Y-82933409D01*
X115387005Y-82726994D01*
X113873575Y-82049965D01*
X114138145Y-81526104D01*
X115270601Y-82034038D01*
X115280372Y-82005298D01*
X115291177Y-81977282D01*
X115303015Y-81949988D01*
X115315888Y-81923418D01*
X115329794Y-81897570D01*
X115344735Y-81872447D01*
X115360710Y-81848047D01*
X115377721Y-81824370D01*
X115395767Y-81801418D01*
X115414849Y-81779189D01*
X115434966Y-81757684D01*
X115456119Y-81736904D01*
X115478309Y-81716848D01*
X115501535Y-81697517D01*
X115525799Y-81678910D01*
X115551099Y-81661028D01*
X115577138Y-81643994D01*
X115603718Y-81627929D01*
X115630841Y-81612835D01*
X115658506Y-81598711D01*
X115686712Y-81585558D01*
X115715459Y-81573374D01*
X115744747Y-81562161D01*
X115774576Y-81551917D01*
X115804946Y-81542644D01*
X115835855Y-81534341D01*
X115867305Y-81527009D01*
X115899294Y-81520646D01*
X115931822Y-81515254D01*
X115964890Y-81510831D01*
X115998496Y-81507379D01*
X116032641Y-81504897D01*
X116032641Y-81049748D01*
X116376666Y-81049748D01*
X116376666Y-81504897D01*
G37*
%TD.AperFunction*%
%TO.C,X1*%
D12*
X117894100Y-145912700D02*
G75*
G02*
X117068600Y-146738200I-825500J0D01*
G01*
D13*
X117678200Y-152135700D02*
X118313200Y-152135700D01*
X118821200Y-151945200D01*
X119075200Y-151627700D01*
X119075200Y-150992700D01*
X119075200Y-136324200D01*
X117678200Y-136324200D01*
X117678200Y-152135700D01*
%TA.AperFunction,EtchedComponent*%
G36*
X119075200Y-150992700D02*
G01*
X119075200Y-151627700D01*
X118821200Y-151945200D01*
X118313200Y-152135700D01*
X117678200Y-152135700D01*
X117678200Y-136324200D01*
X119075200Y-136324200D01*
X119075200Y-150992700D01*
G37*
%TD.AperFunction*%
%TD*%
D14*
%TO.P,X1,2,~{EN-C0}_2*%
%TO.N,/~{FCE2}*%
X81292700Y-149976700D03*
%TO.P,X1,4,D3_4*%
%TO.N,D3*%
X83832700Y-149976700D03*
%TO.P,X1,6,D4_6*%
%TO.N,D4*%
X86372700Y-149976700D03*
%TO.P,X1,8,D5_8*%
%TO.N,D5*%
X88912700Y-149976700D03*
%TO.P,X1,10,D6_10*%
%TO.N,D6*%
X91452700Y-149976700D03*
%TO.P,X1,12,D7_12*%
%TO.N,D7*%
X93992700Y-149976700D03*
%TO.P,X1,14,A11_14*%
%TO.N,A11*%
X96532700Y-149976700D03*
%TO.P,X1,16,A10_16*%
%TO.N,A10*%
X99072700Y-149976700D03*
%TO.P,X1,18,~{EN-80}_18*%
%TO.N,/~{FCE0}*%
X101612700Y-149976700D03*
%TO.P,X1,20,A14_20*%
%TO.N,A14*%
X104152700Y-149976700D03*
%TO.P,X1,22,~{EN-A0}_22*%
%TO.N,/~{FCE1}*%
X106692700Y-149976700D03*
%TO.P,X1,24,A12_24*%
%TO.N,A12*%
X109232700Y-149976700D03*
%TO.P,X1,26,A9_26*%
%TO.N,A9*%
X111772700Y-149976700D03*
%TO.P,X1,28,A8_28*%
%TO.N,A8*%
X114312700Y-149976700D03*
D15*
%TO.P,X1,30,Vcc_30*%
%TO.N,+5V*%
X116852700Y-149341700D03*
%TD*%
D16*
%TO.P,D1,1,K_1*%
%TO.N,Net-(D1-K)*%
X114125000Y-87122000D03*
D17*
%TO.P,D1,2,A_2*%
%TO.N,+5V*%
X114125000Y-99822000D03*
%TD*%
D18*
%TO.P,J1,1,Pin_1_1*%
%TO.N,A0*%
X85600000Y-73385000D03*
D19*
%TO.P,J1,2,Pin_2_2*%
%TO.N,A1*%
X85600000Y-75925000D03*
%TO.P,J1,3,Pin_3_3*%
%TO.N,A2*%
X85600000Y-78465000D03*
%TO.P,J1,4,Pin_4_4*%
%TO.N,A3*%
X85600000Y-81005000D03*
%TO.P,J1,5,Pin_5_5*%
%TO.N,A4*%
X85600000Y-83545000D03*
%TO.P,J1,6,Pin_6_6*%
%TO.N,GND*%
X85600000Y-86085000D03*
%TO.P,J1,7,Pin_7_7*%
%TO.N,A5*%
X85600000Y-88625000D03*
%TO.P,J1,8,Pin_8_8*%
%TO.N,A6*%
X85600000Y-91165000D03*
%TO.P,J1,9,Pin_9_9*%
%TO.N,A7*%
X85600000Y-93705000D03*
%TO.P,J1,10,Pin_10_10*%
%TO.N,A8*%
X85600000Y-96245000D03*
%TO.P,J1,11,Pin_11_11*%
%TO.N,A9*%
X85600000Y-98785000D03*
%TO.P,J1,12,Pin_12_12*%
%TO.N,A10*%
X85600000Y-101325000D03*
%TO.P,J1,13,Pin_13_13*%
%TO.N,A11*%
X85600000Y-103865000D03*
%TO.P,J1,14,Pin_14_14*%
%TO.N,A12*%
X85600000Y-106405000D03*
%TO.P,J1,15,Pin_15_15*%
%TO.N,GND*%
X85600000Y-108945000D03*
%TO.P,J1,16,Pin_16_16*%
%TO.N,A13*%
X85600000Y-111485000D03*
%TO.P,J1,17,Pin_17_17*%
%TO.N,A14*%
X85600000Y-114025000D03*
%TO.P,J1,18,Pin_18_18*%
%TO.N,unconnected-(J1-Pin_18-Pad18)*%
X85600000Y-116565000D03*
%TO.P,J1,19,Pin_19_19*%
%TO.N,D0*%
X85600000Y-119105000D03*
%TO.P,J1,20,Pin_20_20*%
%TO.N,D1*%
X85600000Y-121645000D03*
%TD*%
D20*
%TO.P,SW1,1,1_1*%
%TO.N,RST*%
X109875000Y-73650000D03*
X116375000Y-73650000D03*
%TO.P,SW1,2,2_2*%
%TO.N,GND*%
X109875000Y-78150000D03*
X116375000Y-78150000D03*
%TD*%
D18*
%TO.P,J2,1,Pin_1_1*%
%TO.N,unconnected-(J2-Pin_1-Pad1)*%
X103375000Y-73385000D03*
D19*
%TO.P,J2,2,Pin_2_2*%
%TO.N,Net-(D1-K)*%
X103375000Y-75925000D03*
%TO.P,J2,3,Pin_3_3*%
%TO.N,GND*%
X103375000Y-78465000D03*
%TO.P,J2,4,Pin_4_4*%
%TO.N,unconnected-(J2-Pin_4-Pad4)*%
X103375000Y-81005000D03*
%TO.P,J2,5,Pin_5_5*%
%TO.N,unconnected-(J2-Pin_5-Pad5)*%
X103375000Y-83545000D03*
%TO.P,J2,6,Pin_6_6*%
%TO.N,GND*%
X103375000Y-86085000D03*
%TO.P,J2,7,Pin_7_7*%
%TO.N,RST*%
X103375000Y-88625000D03*
%TO.P,J2,8,Pin_8_8*%
%TO.N,unconnected-(J2-Pin_8-Pad8)*%
X103375000Y-91165000D03*
%TO.P,J2,9,Pin_9_9*%
%TO.N,unconnected-(J2-Pin_9-Pad9)*%
X103375000Y-93705000D03*
%TO.P,J2,10,Pin_10_10*%
%TO.N,/~{FCE3}*%
X103375000Y-96245000D03*
%TO.P,J2,11,Pin_11_11*%
%TO.N,/~{FCE2}*%
X103375000Y-98785000D03*
%TO.P,J2,12,Pin_12_12*%
%TO.N,GND*%
X103375000Y-101325000D03*
%TO.P,J2,13,Pin_13_13*%
%TO.N,/~{FCE1}*%
X103375000Y-103865000D03*
%TO.P,J2,14,Pin_14_14*%
%TO.N,/~{FCE0}*%
X103375000Y-106405000D03*
%TO.P,J2,15,Pin_15_15*%
%TO.N,D7*%
X103375000Y-108945000D03*
%TO.P,J2,16,Pin_16_16*%
%TO.N,D6*%
X103375000Y-111485000D03*
%TO.P,J2,17,Pin_17_17*%
%TO.N,D5*%
X103375000Y-114025000D03*
%TO.P,J2,18,Pin_18_18*%
%TO.N,D4*%
X103375000Y-116565000D03*
%TO.P,J2,19,Pin_19_19*%
%TO.N,D3*%
X103375000Y-119105000D03*
%TO.P,J2,20,Pin_20_20*%
%TO.N,D2*%
X103375000Y-121645000D03*
%TD*%
D21*
%TO.N,/~{FCE2}*%
X80336100Y-97261100D03*
%TO.N,D1*%
X83820000Y-142087600D03*
%TO.N,D3*%
X87274400Y-138023600D03*
%TO.N,D0*%
X86360000Y-144576800D03*
%TO.N,D4*%
X89865200Y-141122400D03*
%TO.N,A0*%
X82245200Y-140258800D03*
%TO.N,D5*%
X90779600Y-135788400D03*
%TO.N,A1*%
X83362800Y-139598400D03*
%TO.N,D6*%
X92049600Y-133299200D03*
%TO.N,A2*%
X83819300Y-138193500D03*
%TO.N,D7*%
X93903200Y-131540300D03*
%TO.N,A11*%
X96486300Y-127511100D03*
%TO.N,A3*%
X84743200Y-137509400D03*
%TO.N,A10*%
X94894400Y-125476000D03*
%TO.N,A4*%
X95300800Y-141071600D03*
%TO.N,/~{FCE0}*%
X102478600Y-143799500D03*
%TO.N,A5*%
X109372400Y-121869200D03*
%TO.N,/~{FCE1}*%
X106680000Y-131368800D03*
%TO.N,A6*%
X110540800Y-128676400D03*
D22*
%TO.N,GND*%
X92913200Y-143002000D03*
X108864400Y-94691200D03*
X105105200Y-130302000D03*
X97790000Y-138074400D03*
X97028000Y-99060000D03*
X108153200Y-145084800D03*
X100838000Y-126339600D03*
X79502000Y-134162800D03*
X90017600Y-145592800D03*
X109601000Y-106248200D03*
X79959200Y-144881600D03*
X91744800Y-93319600D03*
X88544400Y-96723200D03*
X100685600Y-143205200D03*
X115366800Y-144881600D03*
X113792000Y-131826000D03*
X100787200Y-76809600D03*
X92913200Y-139141200D03*
X87934800Y-120700800D03*
X87985600Y-103632000D03*
X101549200Y-97485200D03*
X86918800Y-123850400D03*
X104800400Y-110032800D03*
X103479600Y-130098800D03*
X84531200Y-123799600D03*
X110591600Y-126542800D03*
X87528400Y-79705200D03*
X105918000Y-82346800D03*
X79502000Y-119532400D03*
X101549200Y-127101600D03*
X80162400Y-93522800D03*
X99415600Y-105257600D03*
X105410000Y-145034000D03*
X101142800Y-119227600D03*
X100228400Y-84328000D03*
X113436400Y-134874000D03*
X113030000Y-144932400D03*
X94386400Y-110591600D03*
X91084400Y-121615200D03*
X93014800Y-134366000D03*
X96520000Y-118160800D03*
X79400400Y-112674400D03*
X103378000Y-128371600D03*
X105765600Y-107543600D03*
X83261200Y-74168000D03*
X105359200Y-134569200D03*
X105867200Y-90424000D03*
X100939600Y-135788400D03*
X86766400Y-135686800D03*
X110490000Y-144983200D03*
X109169200Y-116636800D03*
X95707200Y-122834400D03*
X89306400Y-135686800D03*
X84429600Y-135636000D03*
X97485200Y-145237200D03*
X95351600Y-128524000D03*
X89357200Y-139344400D03*
X105003600Y-116078000D03*
X93624400Y-129844800D03*
X94792800Y-96723200D03*
X85140800Y-145237200D03*
X82550000Y-144983200D03*
X94386400Y-90119200D03*
X100939600Y-72288400D03*
X92710000Y-145288000D03*
X79451200Y-127101600D03*
X105664000Y-97078800D03*
X100838000Y-88341200D03*
X91948000Y-119075200D03*
X110286800Y-85598000D03*
X92964000Y-99974400D03*
X88849200Y-113334800D03*
X96570800Y-121107200D03*
D21*
X114960400Y-111252000D03*
D22*
X88036400Y-145542000D03*
X95199200Y-145135600D03*
X99974400Y-145186400D03*
X102565200Y-145034000D03*
%TD*%
%TO.N,/~{FCE2}*%
D23*
X81292700Y-149976700D02*
X81292700Y-142303500D01*
X81292700Y-142303500D02*
X80336100Y-141346900D01*
X80336100Y-141346900D02*
X80336100Y-97261100D01*
%TO.N,D1*%
X83820000Y-142087600D02*
X83820000Y-140614400D01*
X85600000Y-138834400D02*
X85600000Y-121645000D01*
X83820000Y-140614400D02*
X85600000Y-138834400D01*
%TO.N,D3*%
X87274400Y-139090400D02*
X87274400Y-138023600D01*
X85191600Y-143662400D02*
X85191600Y-141173200D01*
X83832700Y-145021300D02*
X85191600Y-143662400D01*
X83832700Y-149976700D02*
X83832700Y-145021300D01*
X85191600Y-141173200D02*
X87274400Y-139090400D01*
%TO.N,D0*%
D24*
X88038600Y-141208000D02*
X86360000Y-142886600D01*
X86360000Y-142886600D02*
X86360000Y-144576800D01*
X88038600Y-122352600D02*
X88038600Y-141208000D01*
X85600000Y-120281700D02*
X85967700Y-120281700D01*
X85967700Y-120281700D02*
X88038600Y-122352600D01*
X85600000Y-119105000D02*
X85600000Y-120281700D01*
%TO.N,D4*%
D23*
X86372700Y-146189700D02*
X89865200Y-142697200D01*
X89865200Y-142697200D02*
X89865200Y-141122400D01*
X86372700Y-149976700D02*
X86372700Y-146189700D01*
%TO.N,A0*%
X81280000Y-139293600D02*
X82245200Y-140258800D01*
X85600000Y-73385000D02*
X81280000Y-77705000D01*
X81280000Y-77705000D02*
X81280000Y-139293600D01*
%TO.N,D5*%
X90779600Y-135788400D02*
X90779600Y-143713200D01*
X88912700Y-145580100D02*
X88912700Y-149976700D01*
X90779600Y-143713200D02*
X88912700Y-145580100D01*
%TO.N,A1*%
X81991200Y-79533800D02*
X85600000Y-75925000D01*
X81991200Y-138226800D02*
X81991200Y-79533800D01*
X83362800Y-139598400D02*
X81991200Y-138226800D01*
%TO.N,D6*%
X92049600Y-144729200D02*
X91452700Y-145326100D01*
X91452700Y-145326100D02*
X91452700Y-149976700D01*
X92049600Y-133299200D02*
X92049600Y-144729200D01*
%TO.N,A2*%
X85600000Y-78465000D02*
X82702400Y-81362600D01*
X82702400Y-137076600D02*
X83819300Y-138193500D01*
X82702400Y-81362600D02*
X82702400Y-137076600D01*
%TO.N,D7*%
X93992700Y-131629800D02*
X93903200Y-131540300D01*
X93992700Y-149976700D02*
X93992700Y-131629800D01*
%TO.N,A11*%
X96532700Y-149976700D02*
X96532700Y-127557500D01*
X96532700Y-127557500D02*
X96486300Y-127511100D01*
%TO.N,A3*%
X84743200Y-137509400D02*
X83413600Y-136179800D01*
X83413600Y-136179800D02*
X83413600Y-83191400D01*
X83413600Y-83191400D02*
X85600000Y-81005000D01*
%TO.N,A10*%
X99072700Y-149976700D02*
X99072700Y-128485900D01*
X96062800Y-125476000D02*
X94894400Y-125476000D01*
X99072700Y-128485900D02*
X96062800Y-125476000D01*
%TO.N,A4*%
X84124800Y-85020200D02*
X84124800Y-117043200D01*
X84124800Y-117043200D02*
X84916600Y-117835000D01*
X89712800Y-120751600D02*
X89712800Y-124256800D01*
X85600000Y-83545000D02*
X84124800Y-85020200D01*
X95300800Y-129844800D02*
X95300800Y-141071600D01*
X89712800Y-124256800D02*
X95300800Y-129844800D01*
X86796200Y-117835000D02*
X89712800Y-120751600D01*
X84916600Y-117835000D02*
X86796200Y-117835000D01*
%TO.N,/~{FCE0}*%
X101612700Y-144665400D02*
X102478600Y-143799500D01*
X101612700Y-149976700D02*
X101612700Y-144665400D01*
%TO.N,A14*%
X85600000Y-114025000D02*
X104152700Y-132577700D01*
X104152700Y-132577700D02*
X104152700Y-149976700D01*
%TO.N,A5*%
X109372400Y-118250200D02*
X109372400Y-121869200D01*
D24*
X91948000Y-94973000D02*
X91948000Y-101732500D01*
X103860500Y-112738300D02*
X107987400Y-116865200D01*
X102953800Y-112738300D02*
X103860500Y-112738300D01*
X91948000Y-101732500D02*
X102953800Y-112738300D01*
D23*
X107987400Y-116865200D02*
X109372400Y-118250200D01*
D24*
X85600000Y-88625000D02*
X91948000Y-94973000D01*
%TO.N,/~{FCE1}*%
D23*
X106692700Y-131381500D02*
X106680000Y-131368800D01*
D24*
X106692700Y-149976700D02*
X106692700Y-146150000D01*
D23*
X106692700Y-144538700D02*
X106692700Y-149976700D01*
X106692700Y-149976700D02*
X106692700Y-131381500D01*
%TO.N,A6*%
X107442000Y-125577600D02*
X110540800Y-128676400D01*
X85600000Y-91165000D02*
X90881200Y-96446200D01*
X104881000Y-117835000D02*
X107442000Y-120396000D01*
X102239400Y-117835000D02*
X104881000Y-117835000D01*
X90881200Y-101653948D02*
X100888800Y-111661548D01*
X107442000Y-120396000D02*
X107442000Y-125577600D01*
X100888800Y-111661548D02*
X100888800Y-116484400D01*
X100888800Y-116484400D02*
X102239400Y-117835000D01*
X90881200Y-96446200D02*
X90881200Y-101653948D01*
%TO.N,A12*%
X109232700Y-149976700D02*
X109232700Y-132346700D01*
X109232700Y-132346700D02*
X90486300Y-113600300D01*
X90486300Y-113600300D02*
X90486300Y-111291300D01*
X90486300Y-111291300D02*
X85600000Y-106405000D01*
%TO.N,A9*%
X97637600Y-110822600D02*
X85600000Y-98785000D01*
X97637600Y-118770400D02*
X97637600Y-110822600D01*
X111772700Y-149976700D02*
X111772700Y-132905500D01*
X111772700Y-132905500D02*
X97637600Y-118770400D01*
%TO.N,A8*%
X98755200Y-118922800D02*
X98755200Y-110744000D01*
X89865200Y-101854000D02*
X89865200Y-100510200D01*
X114312700Y-134480300D02*
X98755200Y-118922800D01*
X89865200Y-100510200D02*
X85600000Y-96245000D01*
X114312700Y-149976700D02*
X114312700Y-134480300D01*
X98755200Y-110744000D02*
X89865200Y-101854000D01*
%TO.N,GND*%
D25*
X98450400Y-86085000D02*
X98450400Y-87680800D01*
X103375000Y-101325000D02*
X104677800Y-101325000D01*
X101629800Y-101325000D02*
X103375000Y-101325000D01*
X104677800Y-101325000D02*
X109601000Y-106248200D01*
X98450400Y-86897800D02*
X97637600Y-86085000D01*
X98450400Y-86847000D02*
X99212400Y-86085000D01*
X110388400Y-107035600D02*
X110388400Y-110134400D01*
X98450400Y-87680800D02*
X98450400Y-86897800D01*
X97637600Y-86085000D02*
X85600000Y-86085000D01*
X98450400Y-98145600D02*
X101629800Y-101325000D01*
X103375000Y-86085000D02*
X99212400Y-86085000D01*
X99212400Y-86085000D02*
X98450400Y-86085000D01*
X109601000Y-106248200D02*
X110388400Y-107035600D01*
X98450400Y-86085000D02*
X97637600Y-86085000D01*
D24*
X103375000Y-86085000D02*
X103375000Y-86673300D01*
D25*
X98450400Y-87680800D02*
X98450400Y-98145600D01*
X98450400Y-87680800D02*
X98450400Y-86847000D01*
X110388400Y-110134400D02*
X111506000Y-111252000D01*
X111506000Y-111252000D02*
X114960400Y-111252000D01*
%TO.N,+5V*%
D24*
X116852700Y-103769400D02*
X116852700Y-149341700D01*
D25*
X115309000Y-101006000D02*
X114125000Y-99822000D01*
X117068600Y-146738200D02*
X117068600Y-102858600D01*
X117068600Y-102858600D02*
X115309000Y-101099000D01*
D24*
X114125000Y-101041700D02*
X116852700Y-103769400D01*
X114125000Y-99915000D02*
X114125000Y-101041700D01*
D25*
X115309000Y-101099000D02*
X115309000Y-101006000D01*
X115309000Y-101099000D02*
X114125000Y-99915000D01*
%TO.N,Net-(D1-K)*%
X103375000Y-75925000D02*
X103407800Y-75925000D01*
X114125000Y-86642200D02*
X114125000Y-87122000D01*
X103407800Y-75925000D02*
X114125000Y-86642200D01*
%TD*%
%TA.AperFunction,Conductor*%
%TO.N,GND*%
G36*
X118981515Y-71146859D02*
G01*
X118994618Y-71148588D01*
X118999962Y-71149294D01*
X119028077Y-71156838D01*
X119121540Y-71195594D01*
X119146742Y-71210158D01*
X119226990Y-71271787D01*
X119247560Y-71292374D01*
X119309124Y-71372680D01*
X119323664Y-71397892D01*
X119362339Y-71491385D01*
X119369860Y-71519505D01*
X119378553Y-71585780D01*
X119379500Y-71600281D01*
X119379500Y-79240277D01*
X119378539Y-79254882D01*
X119365912Y-79350451D01*
X119358370Y-79378554D01*
X119319633Y-79471975D01*
X119305076Y-79497169D01*
X119243486Y-79577388D01*
X119222905Y-79597959D01*
X119142659Y-79659508D01*
X119117459Y-79674052D01*
X119024018Y-79712746D01*
X118995911Y-79720275D01*
X118888343Y-79734435D01*
X118873795Y-79735389D01*
X117031851Y-79735447D01*
X116966312Y-79714154D01*
X116925805Y-79658406D01*
X116925803Y-79589495D01*
X116966306Y-79533744D01*
X116981227Y-79524600D01*
X117161169Y-79432915D01*
X117161176Y-79432911D01*
X117244105Y-79372659D01*
X117244106Y-79372658D01*
X116545235Y-78673787D01*
X116587292Y-78662518D01*
X116712708Y-78590110D01*
X116815110Y-78487708D01*
X116887518Y-78362292D01*
X116898787Y-78320235D01*
X117597658Y-79019106D01*
X117597659Y-79019105D01*
X117657911Y-78936176D01*
X117657915Y-78936169D01*
X117765101Y-78725806D01*
X117765103Y-78725800D01*
X117838064Y-78501252D01*
X117838065Y-78501248D01*
X117874999Y-78268061D01*
X117875000Y-78268053D01*
X117875000Y-78031946D01*
X117874999Y-78031938D01*
X117838065Y-77798751D01*
X117838064Y-77798747D01*
X117765103Y-77574199D01*
X117765101Y-77574193D01*
X117657911Y-77363822D01*
X117597659Y-77280893D01*
X117597658Y-77280892D01*
X116898786Y-77979763D01*
X116887518Y-77937708D01*
X116815110Y-77812292D01*
X116712708Y-77709890D01*
X116587292Y-77637482D01*
X116545234Y-77626212D01*
X117244105Y-76927340D01*
X117161165Y-76867081D01*
X116950806Y-76759899D01*
X116950800Y-76759896D01*
X116726252Y-76686935D01*
X116726248Y-76686934D01*
X116493061Y-76650000D01*
X116256938Y-76650000D01*
X116023751Y-76686934D01*
X116023747Y-76686935D01*
X115799199Y-76759896D01*
X115799193Y-76759899D01*
X115588831Y-76867083D01*
X115505892Y-76927340D01*
X116204765Y-77626212D01*
X116162708Y-77637482D01*
X116037292Y-77709890D01*
X115934890Y-77812292D01*
X115862482Y-77937708D01*
X115851212Y-77979764D01*
X115152340Y-77280892D01*
X115092083Y-77363831D01*
X114984899Y-77574193D01*
X114984896Y-77574199D01*
X114911935Y-77798747D01*
X114911934Y-77798751D01*
X114875000Y-78031938D01*
X114875000Y-78268061D01*
X114911934Y-78501248D01*
X114911935Y-78501252D01*
X114984896Y-78725800D01*
X114984899Y-78725806D01*
X115092081Y-78936165D01*
X115152340Y-79019105D01*
X115851212Y-78320233D01*
X115862482Y-78362292D01*
X115934890Y-78487708D01*
X116037292Y-78590110D01*
X116162708Y-78662518D01*
X116204764Y-78673787D01*
X115505892Y-79372658D01*
X115505893Y-79372659D01*
X115588822Y-79432911D01*
X115768853Y-79524641D01*
X115817580Y-79573368D01*
X115828360Y-79641430D01*
X115797076Y-79702830D01*
X115735676Y-79734115D01*
X115718237Y-79735488D01*
X113402864Y-79735562D01*
X113402862Y-79735562D01*
X113402847Y-79735562D01*
X112902864Y-79735577D01*
X112902989Y-83771437D01*
X112881696Y-83836975D01*
X112825948Y-83877482D01*
X112757037Y-83877484D01*
X112712647Y-83850282D01*
X106894303Y-78031938D01*
X108375000Y-78031938D01*
X108375000Y-78268061D01*
X108411934Y-78501248D01*
X108411935Y-78501252D01*
X108484896Y-78725800D01*
X108484899Y-78725806D01*
X108592081Y-78936165D01*
X108652340Y-79019105D01*
X109351212Y-78320233D01*
X109362482Y-78362292D01*
X109434890Y-78487708D01*
X109537292Y-78590110D01*
X109662708Y-78662518D01*
X109704764Y-78673787D01*
X109005892Y-79372658D01*
X109005893Y-79372659D01*
X109088822Y-79432911D01*
X109299193Y-79540101D01*
X109299199Y-79540103D01*
X109523747Y-79613064D01*
X109523751Y-79613065D01*
X109756938Y-79649999D01*
X109756947Y-79650000D01*
X109993053Y-79650000D01*
X109993061Y-79649999D01*
X110226248Y-79613065D01*
X110226252Y-79613064D01*
X110450800Y-79540103D01*
X110450806Y-79540101D01*
X110661169Y-79432915D01*
X110661176Y-79432911D01*
X110744105Y-79372659D01*
X110744106Y-79372658D01*
X110045235Y-78673787D01*
X110087292Y-78662518D01*
X110212708Y-78590110D01*
X110315110Y-78487708D01*
X110387518Y-78362292D01*
X110398787Y-78320235D01*
X111097658Y-79019106D01*
X111097659Y-79019105D01*
X111157911Y-78936176D01*
X111157915Y-78936169D01*
X111265101Y-78725806D01*
X111265103Y-78725800D01*
X111338064Y-78501252D01*
X111338065Y-78501248D01*
X111374999Y-78268061D01*
X111375000Y-78268053D01*
X111375000Y-78031946D01*
X111374999Y-78031938D01*
X111338065Y-77798751D01*
X111338064Y-77798747D01*
X111265103Y-77574199D01*
X111265101Y-77574193D01*
X111157911Y-77363822D01*
X111097659Y-77280893D01*
X111097658Y-77280892D01*
X110398786Y-77979763D01*
X110387518Y-77937708D01*
X110315110Y-77812292D01*
X110212708Y-77709890D01*
X110087292Y-77637482D01*
X110045234Y-77626212D01*
X110744105Y-76927340D01*
X110661165Y-76867081D01*
X110450806Y-76759899D01*
X110450800Y-76759896D01*
X110226252Y-76686935D01*
X110226248Y-76686934D01*
X109993061Y-76650000D01*
X109756938Y-76650000D01*
X109523751Y-76686934D01*
X109523747Y-76686935D01*
X109299199Y-76759896D01*
X109299193Y-76759899D01*
X109088831Y-76867083D01*
X109005892Y-76927340D01*
X109704765Y-77626212D01*
X109662708Y-77637482D01*
X109537292Y-77709890D01*
X109434890Y-77812292D01*
X109362482Y-77937708D01*
X109351212Y-77979764D01*
X108652340Y-77280892D01*
X108592083Y-77363831D01*
X108484899Y-77574193D01*
X108484896Y-77574199D01*
X108411935Y-77798747D01*
X108411934Y-77798751D01*
X108375000Y-78031938D01*
X106894303Y-78031938D01*
X104381272Y-75518907D01*
X104360767Y-75490685D01*
X104294850Y-75361315D01*
X104195346Y-75224359D01*
X104195342Y-75224355D01*
X104195338Y-75224350D01*
X104075649Y-75104661D01*
X104075644Y-75104657D01*
X104075641Y-75104654D01*
X104018492Y-75063133D01*
X103938690Y-75005153D01*
X103938683Y-75005149D01*
X103787855Y-74928297D01*
X103787849Y-74928295D01*
X103626848Y-74875982D01*
X103626842Y-74875980D01*
X103459653Y-74849500D01*
X103459644Y-74849500D01*
X103290356Y-74849500D01*
X103290346Y-74849500D01*
X103123157Y-74875980D01*
X103123151Y-74875982D01*
X102962150Y-74928295D01*
X102962144Y-74928297D01*
X102811316Y-75005149D01*
X102811309Y-75005153D01*
X102674360Y-75104653D01*
X102674350Y-75104661D01*
X102554661Y-75224350D01*
X102554653Y-75224360D01*
X102455153Y-75361309D01*
X102455149Y-75361316D01*
X102378297Y-75512144D01*
X102378295Y-75512150D01*
X102325982Y-75673151D01*
X102325980Y-75673157D01*
X102299500Y-75840346D01*
X102299500Y-76009653D01*
X102325980Y-76176842D01*
X102325982Y-76176848D01*
X102378295Y-76337849D01*
X102378297Y-76337855D01*
X102455149Y-76488683D01*
X102455153Y-76488690D01*
X102513133Y-76568492D01*
X102554654Y-76625641D01*
X102554657Y-76625644D01*
X102554661Y-76625649D01*
X102674350Y-76745338D01*
X102674355Y-76745342D01*
X102674359Y-76745346D01*
X102811315Y-76844850D01*
X102854946Y-76867081D01*
X102962144Y-76921702D01*
X102962147Y-76921703D01*
X102962151Y-76921705D01*
X103029703Y-76943653D01*
X103074089Y-76970854D01*
X103075584Y-76972349D01*
X103106869Y-77033749D01*
X103096089Y-77101811D01*
X103047362Y-77150538D01*
X103031198Y-77157234D01*
X102856779Y-77213906D01*
X102856773Y-77213908D01*
X102667447Y-77310376D01*
X102667440Y-77310380D01*
X102495535Y-77435277D01*
X102495525Y-77435285D01*
X102345285Y-77585525D01*
X102345277Y-77585535D01*
X102220380Y-77757440D01*
X102220376Y-77757447D01*
X102123908Y-77946773D01*
X102123905Y-77946782D01*
X102058243Y-78148868D01*
X102058240Y-78148878D01*
X102047768Y-78215000D01*
X102941988Y-78215000D01*
X102909075Y-78272007D01*
X102875000Y-78399174D01*
X102875000Y-78530826D01*
X102909075Y-78657993D01*
X102941988Y-78715000D01*
X102047769Y-78715000D01*
X102058240Y-78781121D01*
X102058243Y-78781131D01*
X102123905Y-78983217D01*
X102123908Y-78983226D01*
X102220376Y-79172552D01*
X102220380Y-79172559D01*
X102345277Y-79344464D01*
X102345285Y-79344474D01*
X102495525Y-79494714D01*
X102495535Y-79494722D01*
X102667440Y-79619619D01*
X102667447Y-79619623D01*
X102856773Y-79716091D01*
X102856782Y-79716094D01*
X103032749Y-79773269D01*
X103088499Y-79813774D01*
X103109794Y-79879312D01*
X103088500Y-79944850D01*
X103032751Y-79985354D01*
X102962158Y-80008292D01*
X102962144Y-80008297D01*
X102811316Y-80085149D01*
X102811309Y-80085153D01*
X102674360Y-80184653D01*
X102674350Y-80184661D01*
X102554661Y-80304350D01*
X102554653Y-80304360D01*
X102455153Y-80441309D01*
X102455149Y-80441316D01*
X102378297Y-80592144D01*
X102378295Y-80592150D01*
X102325982Y-80753151D01*
X102325980Y-80753157D01*
X102299500Y-80920346D01*
X102299500Y-81089653D01*
X102325980Y-81256842D01*
X102325982Y-81256848D01*
X102378295Y-81417849D01*
X102378297Y-81417855D01*
X102455149Y-81568683D01*
X102455153Y-81568690D01*
X102493685Y-81621724D01*
X102554654Y-81705641D01*
X102554657Y-81705644D01*
X102554661Y-81705649D01*
X102674350Y-81825338D01*
X102674355Y-81825342D01*
X102674359Y-81825346D01*
X102811315Y-81924850D01*
X102842621Y-81940801D01*
X102962144Y-82001702D01*
X102962147Y-82001703D01*
X102962151Y-82001705D01*
X103123153Y-82054018D01*
X103123154Y-82054018D01*
X103123157Y-82054019D01*
X103290346Y-82080499D01*
X103290354Y-82080499D01*
X103290356Y-82080500D01*
X103290357Y-82080500D01*
X103459643Y-82080500D01*
X103459644Y-82080500D01*
X103459645Y-82080499D01*
X103459653Y-82080499D01*
X103626842Y-82054019D01*
X103626843Y-82054018D01*
X103626847Y-82054018D01*
X103787849Y-82001705D01*
X103938685Y-81924850D01*
X104075641Y-81825346D01*
X104195346Y-81705641D01*
X104294850Y-81568685D01*
X104371705Y-81417849D01*
X104424018Y-81256847D01*
X104426004Y-81244308D01*
X104450499Y-81089653D01*
X104450500Y-81089642D01*
X104450500Y-80920357D01*
X104450499Y-80920346D01*
X104424019Y-80753157D01*
X104424017Y-80753151D01*
X104380489Y-80619186D01*
X104371705Y-80592151D01*
X104371703Y-80592147D01*
X104371702Y-80592144D01*
X104331235Y-80512724D01*
X104294850Y-80441315D01*
X104195346Y-80304359D01*
X104195342Y-80304355D01*
X104195338Y-80304350D01*
X104075649Y-80184661D01*
X104075644Y-80184657D01*
X104075641Y-80184654D01*
X104018492Y-80143133D01*
X103938690Y-80085153D01*
X103938683Y-80085149D01*
X103787855Y-80008297D01*
X103787841Y-80008292D01*
X103717248Y-79985354D01*
X103661499Y-79944849D01*
X103640205Y-79879311D01*
X103661500Y-79813773D01*
X103717250Y-79773269D01*
X103893217Y-79716094D01*
X103893226Y-79716091D01*
X104082552Y-79619623D01*
X104082559Y-79619619D01*
X104254464Y-79494722D01*
X104254474Y-79494714D01*
X104404714Y-79344474D01*
X104404722Y-79344464D01*
X104529619Y-79172559D01*
X104529623Y-79172552D01*
X104626091Y-78983226D01*
X104626094Y-78983217D01*
X104682765Y-78808802D01*
X104723270Y-78753052D01*
X104788808Y-78731757D01*
X104854346Y-78753051D01*
X104867650Y-78764415D01*
X112966842Y-86863607D01*
X112998127Y-86925007D01*
X112999500Y-86942449D01*
X112999500Y-87817474D01*
X112999500Y-87817475D01*
X112999501Y-87817484D01*
X113004370Y-87862788D01*
X113005588Y-87874116D01*
X113053371Y-88002224D01*
X113053372Y-88002226D01*
X113135313Y-88111687D01*
X113244774Y-88193628D01*
X113372886Y-88241412D01*
X113372889Y-88241412D01*
X113372892Y-88241413D01*
X113387725Y-88243007D01*
X113429515Y-88247500D01*
X114820484Y-88247499D01*
X114877114Y-88241412D01*
X115005226Y-88193628D01*
X115114687Y-88111687D01*
X115196628Y-88002226D01*
X115244412Y-87874114D01*
X115250500Y-87817485D01*
X115250499Y-86426516D01*
X115244412Y-86369886D01*
X115196628Y-86241774D01*
X115114687Y-86132313D01*
X115008414Y-86052758D01*
X114968711Y-85996438D01*
X114969695Y-85927534D01*
X115010991Y-85872368D01*
X115075235Y-85852000D01*
X118872692Y-85852000D01*
X118887245Y-85852954D01*
X118910278Y-85855986D01*
X118994859Y-85867121D01*
X119022971Y-85874654D01*
X119116441Y-85913371D01*
X119141645Y-85927922D01*
X119221908Y-85989511D01*
X119242488Y-86010091D01*
X119304074Y-86090350D01*
X119318628Y-86115558D01*
X119357345Y-86209028D01*
X119364879Y-86237144D01*
X119378546Y-86340955D01*
X119379500Y-86355509D01*
X119379500Y-110450932D01*
X119378127Y-110468375D01*
X119359335Y-110587018D01*
X119348555Y-110620195D01*
X119296602Y-110722159D01*
X119276097Y-110750381D01*
X119195181Y-110831297D01*
X119166959Y-110851802D01*
X119064996Y-110903755D01*
X119031820Y-110914535D01*
X119007433Y-110918397D01*
X118993358Y-110920627D01*
X118975917Y-110922000D01*
X118417231Y-110922000D01*
X118409500Y-110929731D01*
X118409500Y-116540669D01*
X118417231Y-116548400D01*
X118417232Y-116548400D01*
X118443815Y-116548400D01*
X118456382Y-116545900D01*
X118969203Y-116545900D01*
X118986390Y-116547233D01*
X119031696Y-116554301D01*
X119064950Y-116565030D01*
X119166826Y-116616707D01*
X119195125Y-116637201D01*
X119276006Y-116717873D01*
X119296574Y-116746121D01*
X119348513Y-116847864D01*
X119359328Y-116881088D01*
X119378123Y-116999551D01*
X119379500Y-117017023D01*
X119379500Y-127298432D01*
X119378127Y-127315875D01*
X119359335Y-127434518D01*
X119348555Y-127467695D01*
X119296602Y-127569659D01*
X119276097Y-127597881D01*
X119195181Y-127678797D01*
X119166959Y-127699302D01*
X119064996Y-127751255D01*
X119031820Y-127762035D01*
X119007433Y-127765897D01*
X118993358Y-127768127D01*
X118975917Y-127769500D01*
X118417231Y-127769500D01*
X118409500Y-127777231D01*
X118409500Y-133538169D01*
X118417231Y-133545900D01*
X118417232Y-133545900D01*
X118975917Y-133545900D01*
X118993359Y-133547273D01*
X119002167Y-133548668D01*
X119031819Y-133553364D01*
X119064993Y-133564143D01*
X119166959Y-133616097D01*
X119195181Y-133636602D01*
X119276097Y-133717518D01*
X119296602Y-133745740D01*
X119348555Y-133847703D01*
X119359335Y-133880880D01*
X119378127Y-133999524D01*
X119379500Y-134016967D01*
X119379500Y-135988136D01*
X119358205Y-136053674D01*
X119302455Y-136094179D01*
X119233545Y-136094179D01*
X119209304Y-136082936D01*
X119176528Y-136062642D01*
X119176522Y-136062640D01*
X119075208Y-136043701D01*
X119075202Y-136043700D01*
X119075200Y-136043700D01*
X119075198Y-136043700D01*
X118155600Y-136043700D01*
X118090062Y-136022405D01*
X118049557Y-135966655D01*
X118044100Y-135932200D01*
X118044100Y-102762524D01*
X118039483Y-102739311D01*
X118006612Y-102574057D01*
X117933077Y-102396527D01*
X117826320Y-102236755D01*
X117690445Y-102100880D01*
X116217433Y-100627868D01*
X116193262Y-100591693D01*
X116173479Y-100543931D01*
X116173478Y-100543929D01*
X116173477Y-100543927D01*
X116066720Y-100384155D01*
X115930845Y-100248280D01*
X115232943Y-99550378D01*
X115205742Y-99505991D01*
X115199130Y-99485641D01*
X115168042Y-99389958D01*
X115087614Y-99232110D01*
X114983483Y-99088786D01*
X114983479Y-99088782D01*
X114983475Y-99088777D01*
X114858222Y-98963524D01*
X114858217Y-98963520D01*
X114858214Y-98963517D01*
X114798408Y-98920065D01*
X114714895Y-98859389D01*
X114714888Y-98859385D01*
X114557048Y-98778960D01*
X114557039Y-98778957D01*
X114388560Y-98724215D01*
X114388551Y-98724213D01*
X114213586Y-98696500D01*
X114213579Y-98696500D01*
X114036421Y-98696500D01*
X114036413Y-98696500D01*
X113861448Y-98724213D01*
X113861439Y-98724215D01*
X113692960Y-98778957D01*
X113692951Y-98778960D01*
X113535111Y-98859385D01*
X113535104Y-98859389D01*
X113391787Y-98963516D01*
X113391777Y-98963524D01*
X113266524Y-99088777D01*
X113266516Y-99088787D01*
X113162389Y-99232104D01*
X113162385Y-99232111D01*
X113081960Y-99389951D01*
X113081957Y-99389960D01*
X113027215Y-99558439D01*
X113027213Y-99558448D01*
X112999500Y-99733413D01*
X112999500Y-99910586D01*
X113027213Y-100085551D01*
X113027215Y-100085560D01*
X113081957Y-100254039D01*
X113081960Y-100254048D01*
X113162385Y-100411888D01*
X113162389Y-100411895D01*
X113197895Y-100460764D01*
X113266517Y-100555214D01*
X113266520Y-100555217D01*
X113266524Y-100555222D01*
X113391777Y-100680475D01*
X113391782Y-100680479D01*
X113391786Y-100680483D01*
X113487684Y-100750157D01*
X113517387Y-100771738D01*
X113535110Y-100784614D01*
X113614372Y-100825000D01*
X113682360Y-100859642D01*
X113710582Y-100880147D01*
X113741842Y-100911407D01*
X113773127Y-100972807D01*
X113774500Y-100990249D01*
X113774500Y-101087842D01*
X113774499Y-101087842D01*
X113774500Y-101087844D01*
X113798386Y-101176988D01*
X113798387Y-101176989D01*
X113798386Y-101176989D01*
X113844529Y-101256911D01*
X113844533Y-101256916D01*
X116060442Y-103472823D01*
X116091727Y-103534223D01*
X116093100Y-103551665D01*
X116093100Y-145812680D01*
X116071805Y-145878218D01*
X116016055Y-145918723D01*
X115981977Y-145924179D01*
X114800077Y-145928172D01*
X114734467Y-145907099D01*
X114693774Y-145851486D01*
X114688200Y-145816673D01*
X114688200Y-134430866D01*
X114688200Y-134430865D01*
X114662610Y-134335362D01*
X114613175Y-134249738D01*
X114543262Y-134179825D01*
X103274279Y-122910842D01*
X103242994Y-122849442D01*
X103253774Y-122781380D01*
X103302501Y-122732653D01*
X103353121Y-122720500D01*
X103459643Y-122720500D01*
X103459644Y-122720500D01*
X103459645Y-122720499D01*
X103459653Y-122720499D01*
X103626842Y-122694019D01*
X103626843Y-122694018D01*
X103626847Y-122694018D01*
X103787849Y-122641705D01*
X103938685Y-122564850D01*
X104075641Y-122465346D01*
X104195346Y-122345641D01*
X104294850Y-122208685D01*
X104371705Y-122057849D01*
X104424018Y-121896847D01*
X104447954Y-121745721D01*
X104450499Y-121729653D01*
X104450500Y-121729642D01*
X104450500Y-121560357D01*
X104450499Y-121560346D01*
X104424019Y-121393157D01*
X104424017Y-121393151D01*
X104420830Y-121383342D01*
X104371705Y-121232151D01*
X104371703Y-121232147D01*
X104371702Y-121232144D01*
X104331235Y-121152724D01*
X104294850Y-121081315D01*
X104195346Y-120944359D01*
X104195342Y-120944355D01*
X104195338Y-120944350D01*
X104075649Y-120824661D01*
X104075644Y-120824657D01*
X104075641Y-120824654D01*
X104018492Y-120783133D01*
X103938690Y-120725153D01*
X103938683Y-120725149D01*
X103787855Y-120648297D01*
X103787849Y-120648295D01*
X103626848Y-120595982D01*
X103626842Y-120595980D01*
X103459653Y-120569500D01*
X103459644Y-120569500D01*
X103290356Y-120569500D01*
X103290346Y-120569500D01*
X103123157Y-120595980D01*
X103123151Y-120595982D01*
X102962150Y-120648295D01*
X102962144Y-120648297D01*
X102811316Y-120725149D01*
X102811309Y-120725153D01*
X102674360Y-120824653D01*
X102674350Y-120824661D01*
X102554661Y-120944350D01*
X102554653Y-120944360D01*
X102455153Y-121081309D01*
X102455149Y-121081316D01*
X102378297Y-121232144D01*
X102378295Y-121232150D01*
X102325982Y-121393151D01*
X102325980Y-121393157D01*
X102299500Y-121560346D01*
X102299500Y-121666879D01*
X102278205Y-121732417D01*
X102222455Y-121772922D01*
X102153545Y-121772922D01*
X102109158Y-121745721D01*
X99163358Y-118799921D01*
X99132073Y-118738521D01*
X99130700Y-118721079D01*
X99130700Y-110703669D01*
X99151995Y-110638131D01*
X99207745Y-110597626D01*
X99276655Y-110597626D01*
X99321042Y-110624827D01*
X100480642Y-111784427D01*
X100511927Y-111845827D01*
X100513300Y-111863269D01*
X100513300Y-116533833D01*
X100513299Y-116533833D01*
X100538890Y-116629338D01*
X100575813Y-116693290D01*
X100588325Y-116714962D01*
X100588329Y-116714967D01*
X102008835Y-118135473D01*
X102008842Y-118135479D01*
X102051649Y-118160192D01*
X102051652Y-118160193D01*
X102094462Y-118184910D01*
X102142210Y-118197705D01*
X102142211Y-118197705D01*
X102162393Y-118203112D01*
X102189964Y-118210500D01*
X102189965Y-118210500D01*
X102479328Y-118210500D01*
X102544866Y-118231795D01*
X102585371Y-118287545D01*
X102585371Y-118356455D01*
X102558170Y-118400842D01*
X102554661Y-118404350D01*
X102554653Y-118404360D01*
X102455153Y-118541309D01*
X102455149Y-118541316D01*
X102378297Y-118692144D01*
X102378295Y-118692150D01*
X102325982Y-118853151D01*
X102325980Y-118853157D01*
X102299500Y-119020346D01*
X102299500Y-119189653D01*
X102325980Y-119356842D01*
X102325982Y-119356848D01*
X102378295Y-119517849D01*
X102378297Y-119517855D01*
X102455149Y-119668683D01*
X102455153Y-119668690D01*
X102513133Y-119748492D01*
X102554654Y-119805641D01*
X102554657Y-119805644D01*
X102554661Y-119805649D01*
X102674350Y-119925338D01*
X102674354Y-119925341D01*
X102674359Y-119925346D01*
X102811315Y-120024850D01*
X102882724Y-120061235D01*
X102962144Y-120101702D01*
X102962147Y-120101703D01*
X102962151Y-120101705D01*
X103123153Y-120154018D01*
X103123154Y-120154018D01*
X103123157Y-120154019D01*
X103290346Y-120180499D01*
X103290354Y-120180499D01*
X103290356Y-120180500D01*
X103290357Y-120180500D01*
X103459643Y-120180500D01*
X103459644Y-120180500D01*
X103459645Y-120180499D01*
X103459653Y-120180499D01*
X103626842Y-120154019D01*
X103626843Y-120154018D01*
X103626847Y-120154018D01*
X103787849Y-120101705D01*
X103938685Y-120024850D01*
X104075641Y-119925346D01*
X104195346Y-119805641D01*
X104294850Y-119668685D01*
X104371705Y-119517849D01*
X104424018Y-119356847D01*
X104441202Y-119248353D01*
X104450499Y-119189653D01*
X104450500Y-119189642D01*
X104450500Y-119020357D01*
X104450499Y-119020346D01*
X104424019Y-118853157D01*
X104424017Y-118853151D01*
X104371705Y-118692151D01*
X104371703Y-118692147D01*
X104371702Y-118692144D01*
X104317680Y-118586121D01*
X104294850Y-118541315D01*
X104195346Y-118404359D01*
X104195342Y-118404355D01*
X104195338Y-118404350D01*
X104191830Y-118400842D01*
X104160545Y-118339442D01*
X104171325Y-118271380D01*
X104220052Y-118222653D01*
X104270672Y-118210500D01*
X104679279Y-118210500D01*
X104744817Y-118231795D01*
X104758121Y-118243158D01*
X107033842Y-120518879D01*
X107065127Y-120580279D01*
X107066500Y-120597721D01*
X107066500Y-125627033D01*
X107066499Y-125627033D01*
X107092090Y-125722538D01*
X107109454Y-125752613D01*
X107141525Y-125808162D01*
X107141529Y-125808167D01*
X109882642Y-128549279D01*
X109913927Y-128610679D01*
X109915300Y-128628121D01*
X109915300Y-128738006D01*
X109933327Y-128828640D01*
X109939337Y-128858853D01*
X109939339Y-128858858D01*
X109986489Y-128972686D01*
X110054941Y-129075132D01*
X110054943Y-129075135D01*
X110142064Y-129162256D01*
X110142067Y-129162258D01*
X110244514Y-129230711D01*
X110358348Y-129277863D01*
X110479194Y-129301900D01*
X110479197Y-129301900D01*
X110602403Y-129301900D01*
X110602406Y-129301900D01*
X110723252Y-129277863D01*
X110837086Y-129230711D01*
X110939533Y-129162258D01*
X111026658Y-129075133D01*
X111095111Y-128972686D01*
X111142263Y-128858852D01*
X111166300Y-128738006D01*
X111166300Y-128614794D01*
X111142263Y-128493948D01*
X111095111Y-128380114D01*
X111026658Y-128277667D01*
X111026656Y-128277664D01*
X110939535Y-128190543D01*
X110939532Y-128190541D01*
X110837086Y-128122089D01*
X110723258Y-128074939D01*
X110723253Y-128074937D01*
X110693040Y-128068927D01*
X110602406Y-128050900D01*
X110492521Y-128050900D01*
X110426983Y-128029605D01*
X110413679Y-128018242D01*
X107850158Y-125454721D01*
X107818873Y-125393321D01*
X107817500Y-125375879D01*
X107817500Y-120346566D01*
X107817500Y-120346565D01*
X107791910Y-120251062D01*
X107742475Y-120165438D01*
X107672562Y-120095525D01*
X105111563Y-117534526D01*
X105111562Y-117534525D01*
X105025938Y-117485090D01*
X104978186Y-117472295D01*
X104967418Y-117469409D01*
X104967415Y-117469408D01*
X104930439Y-117459500D01*
X104930436Y-117459500D01*
X104930435Y-117459500D01*
X104270672Y-117459500D01*
X104205134Y-117438205D01*
X104164629Y-117382455D01*
X104164629Y-117313545D01*
X104191830Y-117269158D01*
X104195338Y-117265649D01*
X104195346Y-117265641D01*
X104294850Y-117128685D01*
X104371705Y-116977849D01*
X104424018Y-116816847D01*
X104440155Y-116714962D01*
X104450499Y-116649653D01*
X104450500Y-116649642D01*
X104450500Y-116480357D01*
X104450499Y-116480346D01*
X104424019Y-116313157D01*
X104424017Y-116313151D01*
X104414116Y-116282678D01*
X104371705Y-116152151D01*
X104371703Y-116152147D01*
X104371702Y-116152144D01*
X104331235Y-116072724D01*
X104294850Y-116001315D01*
X104195346Y-115864359D01*
X104195342Y-115864355D01*
X104195338Y-115864350D01*
X104075649Y-115744661D01*
X104075644Y-115744657D01*
X104075641Y-115744654D01*
X104018492Y-115703133D01*
X103938690Y-115645153D01*
X103938683Y-115645149D01*
X103787855Y-115568297D01*
X103787849Y-115568295D01*
X103626848Y-115515982D01*
X103626842Y-115515980D01*
X103459653Y-115489500D01*
X103459644Y-115489500D01*
X103290356Y-115489500D01*
X103290346Y-115489500D01*
X103123157Y-115515980D01*
X103123151Y-115515982D01*
X102962150Y-115568295D01*
X102962144Y-115568297D01*
X102811316Y-115645149D01*
X102811309Y-115645153D01*
X102674360Y-115744653D01*
X102674350Y-115744661D01*
X102554661Y-115864350D01*
X102554653Y-115864360D01*
X102455153Y-116001309D01*
X102455149Y-116001316D01*
X102378297Y-116152144D01*
X102378295Y-116152150D01*
X102325982Y-116313151D01*
X102325980Y-116313157D01*
X102299500Y-116480346D01*
X102299500Y-116649653D01*
X102325980Y-116816842D01*
X102325982Y-116816848D01*
X102378295Y-116977849D01*
X102378297Y-116977855D01*
X102455149Y-117128683D01*
X102455153Y-117128690D01*
X102513133Y-117208492D01*
X102554654Y-117265641D01*
X102554657Y-117265644D01*
X102554661Y-117265649D01*
X102558170Y-117269158D01*
X102570022Y-117292419D01*
X102585371Y-117313545D01*
X102585371Y-117322542D01*
X102589455Y-117330558D01*
X102585371Y-117356343D01*
X102585371Y-117382455D01*
X102580082Y-117389734D01*
X102578675Y-117398620D01*
X102560212Y-117417082D01*
X102544866Y-117438205D01*
X102536309Y-117440985D01*
X102529948Y-117447347D01*
X102479328Y-117459500D01*
X102441122Y-117459500D01*
X102375584Y-117438205D01*
X102362280Y-117426842D01*
X101296958Y-116361520D01*
X101265673Y-116300120D01*
X101264300Y-116282678D01*
X101264300Y-111813666D01*
X101285595Y-111748128D01*
X101341345Y-111707623D01*
X101410255Y-111707623D01*
X101454642Y-111734824D01*
X102726909Y-113007092D01*
X102758194Y-113068492D01*
X102747414Y-113136554D01*
X102713607Y-113176138D01*
X102674357Y-113204655D01*
X102674350Y-113204661D01*
X102554661Y-113324350D01*
X102554653Y-113324360D01*
X102455153Y-113461309D01*
X102455149Y-113461316D01*
X102378297Y-113612144D01*
X102378295Y-113612150D01*
X102325982Y-113773151D01*
X102325980Y-113773157D01*
X102299500Y-113940346D01*
X102299500Y-114109653D01*
X102325980Y-114276842D01*
X102325982Y-114276848D01*
X102378295Y-114437849D01*
X102378297Y-114437855D01*
X102455149Y-114588683D01*
X102455153Y-114588690D01*
X102477005Y-114618766D01*
X102554654Y-114725641D01*
X102554657Y-114725644D01*
X102554661Y-114725649D01*
X102674350Y-114845338D01*
X102674355Y-114845342D01*
X102674359Y-114845346D01*
X102811315Y-114944850D01*
X102882724Y-114981235D01*
X102962144Y-115021702D01*
X102962147Y-115021703D01*
X102962151Y-115021705D01*
X103123153Y-115074018D01*
X103123154Y-115074018D01*
X103123157Y-115074019D01*
X103290346Y-115100499D01*
X103290354Y-115100499D01*
X103290356Y-115100500D01*
X103290357Y-115100500D01*
X103459643Y-115100500D01*
X103459644Y-115100500D01*
X103459645Y-115100499D01*
X103459653Y-115100499D01*
X103626842Y-115074019D01*
X103626843Y-115074018D01*
X103626847Y-115074018D01*
X103787849Y-115021705D01*
X103938685Y-114944850D01*
X104075641Y-114845346D01*
X104195346Y-114725641D01*
X104294850Y-114588685D01*
X104371705Y-114437849D01*
X104424018Y-114276847D01*
X104450500Y-114109644D01*
X104450500Y-114093166D01*
X104471795Y-114027628D01*
X104527545Y-113987123D01*
X104596455Y-113987123D01*
X104640842Y-114014324D01*
X107628248Y-117001730D01*
X107645968Y-117024822D01*
X107686925Y-117095762D01*
X107686929Y-117095767D01*
X108964242Y-118373079D01*
X108995527Y-118434479D01*
X108996900Y-118451921D01*
X108996900Y-121313924D01*
X108975605Y-121379462D01*
X108964242Y-121392766D01*
X108886543Y-121470464D01*
X108886541Y-121470467D01*
X108818089Y-121572913D01*
X108770939Y-121686741D01*
X108770937Y-121686746D01*
X108759207Y-121745721D01*
X108746900Y-121807594D01*
X108746900Y-121930806D01*
X108759503Y-121994166D01*
X108770937Y-122051653D01*
X108770939Y-122051658D01*
X108818089Y-122165486D01*
X108886541Y-122267932D01*
X108886543Y-122267935D01*
X108973664Y-122355056D01*
X108973667Y-122355058D01*
X109076114Y-122423511D01*
X109189948Y-122470663D01*
X109310794Y-122494700D01*
X109310797Y-122494700D01*
X109434003Y-122494700D01*
X109434006Y-122494700D01*
X109554852Y-122470663D01*
X109668686Y-122423511D01*
X109771133Y-122355058D01*
X109858258Y-122267933D01*
X109926711Y-122165486D01*
X109973863Y-122051652D01*
X109997900Y-121930806D01*
X109997900Y-121807594D01*
X109973863Y-121686748D01*
X109926711Y-121572914D01*
X109858258Y-121470467D01*
X109858256Y-121470464D01*
X109780558Y-121392766D01*
X109749273Y-121331366D01*
X109747900Y-121313924D01*
X109747900Y-118200766D01*
X109747900Y-118200765D01*
X109730406Y-118135475D01*
X109730406Y-118135474D01*
X109730406Y-118135473D01*
X109722312Y-118105265D01*
X109672875Y-118019637D01*
X109672871Y-118019632D01*
X108217967Y-116564729D01*
X108217962Y-116564725D01*
X108147022Y-116523768D01*
X108123930Y-116506048D01*
X104078277Y-112460394D01*
X104046992Y-112398994D01*
X104057772Y-112330932D01*
X104078274Y-112302712D01*
X104195346Y-112185641D01*
X104294850Y-112048685D01*
X104371705Y-111897849D01*
X104424018Y-111736847D01*
X104424019Y-111736842D01*
X104450499Y-111569653D01*
X104450500Y-111569642D01*
X104450500Y-111400357D01*
X104450499Y-111400346D01*
X104424019Y-111233157D01*
X104424017Y-111233151D01*
X104395817Y-111146361D01*
X104371705Y-111072151D01*
X104371703Y-111072147D01*
X104371702Y-111072144D01*
X104323802Y-110978137D01*
X104294850Y-110921315D01*
X104279027Y-110899537D01*
X104225378Y-110825695D01*
X104195346Y-110784359D01*
X104195342Y-110784355D01*
X104195338Y-110784350D01*
X104075649Y-110664661D01*
X104075644Y-110664657D01*
X104075641Y-110664654D01*
X104014448Y-110620195D01*
X103938690Y-110565153D01*
X103938683Y-110565149D01*
X103787855Y-110488297D01*
X103787849Y-110488295D01*
X103626848Y-110435982D01*
X103626842Y-110435980D01*
X103459653Y-110409500D01*
X103459644Y-110409500D01*
X103290356Y-110409500D01*
X103290346Y-110409500D01*
X103123157Y-110435980D01*
X103123151Y-110435982D01*
X102962150Y-110488295D01*
X102962144Y-110488297D01*
X102811316Y-110565149D01*
X102811309Y-110565153D01*
X102674360Y-110664653D01*
X102674350Y-110664661D01*
X102554661Y-110784350D01*
X102554653Y-110784360D01*
X102455153Y-110921309D01*
X102455149Y-110921316D01*
X102378297Y-111072144D01*
X102378295Y-111072150D01*
X102325982Y-111233151D01*
X102325981Y-111233155D01*
X102308032Y-111346482D01*
X102276747Y-111407882D01*
X102215347Y-111439166D01*
X102147285Y-111428386D01*
X102119063Y-111407881D01*
X99571528Y-108860346D01*
X102299500Y-108860346D01*
X102299500Y-109029653D01*
X102325980Y-109196842D01*
X102325982Y-109196848D01*
X102378295Y-109357849D01*
X102378297Y-109357855D01*
X102455149Y-109508683D01*
X102455153Y-109508690D01*
X102513133Y-109588492D01*
X102554654Y-109645641D01*
X102554657Y-109645644D01*
X102554661Y-109645649D01*
X102674350Y-109765338D01*
X102674355Y-109765342D01*
X102674359Y-109765346D01*
X102811315Y-109864850D01*
X102882724Y-109901235D01*
X102962144Y-109941702D01*
X102962147Y-109941703D01*
X102962151Y-109941705D01*
X103123153Y-109994018D01*
X103123154Y-109994018D01*
X103123157Y-109994019D01*
X103290346Y-110020499D01*
X103290354Y-110020499D01*
X103290356Y-110020500D01*
X103290357Y-110020500D01*
X103459643Y-110020500D01*
X103459644Y-110020500D01*
X103459645Y-110020499D01*
X103459653Y-110020499D01*
X103626842Y-109994019D01*
X103626843Y-109994018D01*
X103626847Y-109994018D01*
X103787849Y-109941705D01*
X103938685Y-109864850D01*
X104075641Y-109765346D01*
X104195346Y-109645641D01*
X104294850Y-109508685D01*
X104371705Y-109357849D01*
X104424018Y-109196847D01*
X104424311Y-109195000D01*
X104450499Y-109029653D01*
X104450500Y-109029642D01*
X104450500Y-108860357D01*
X104450499Y-108860346D01*
X104424019Y-108693157D01*
X104424017Y-108693151D01*
X104406095Y-108637993D01*
X104371705Y-108532151D01*
X104371703Y-108532147D01*
X104371702Y-108532144D01*
X104304466Y-108400188D01*
X104294850Y-108381315D01*
X104195346Y-108244359D01*
X104195342Y-108244355D01*
X104195338Y-108244350D01*
X104075649Y-108124661D01*
X104075644Y-108124657D01*
X104075641Y-108124654D01*
X104018492Y-108083133D01*
X103938690Y-108025153D01*
X103938683Y-108025149D01*
X103787855Y-107948297D01*
X103787849Y-107948295D01*
X103626848Y-107895982D01*
X103626842Y-107895980D01*
X103459653Y-107869500D01*
X103459644Y-107869500D01*
X103290356Y-107869500D01*
X103290346Y-107869500D01*
X103123157Y-107895980D01*
X103123151Y-107895982D01*
X102962150Y-107948295D01*
X102962144Y-107948297D01*
X102811316Y-108025149D01*
X102811309Y-108025153D01*
X102674360Y-108124653D01*
X102674350Y-108124661D01*
X102554661Y-108244350D01*
X102554653Y-108244360D01*
X102455153Y-108381309D01*
X102455149Y-108381316D01*
X102378297Y-108532144D01*
X102378295Y-108532150D01*
X102325982Y-108693151D01*
X102325980Y-108693157D01*
X102299500Y-108860346D01*
X99571528Y-108860346D01*
X97031528Y-106320346D01*
X102299500Y-106320346D01*
X102299500Y-106489653D01*
X102325980Y-106656842D01*
X102325982Y-106656848D01*
X102378295Y-106817849D01*
X102378297Y-106817855D01*
X102455149Y-106968683D01*
X102455153Y-106968690D01*
X102477005Y-106998766D01*
X102554654Y-107105641D01*
X102554657Y-107105644D01*
X102554661Y-107105649D01*
X102674350Y-107225338D01*
X102674355Y-107225342D01*
X102674359Y-107225346D01*
X102811315Y-107324850D01*
X102882724Y-107361235D01*
X102962144Y-107401702D01*
X102962147Y-107401703D01*
X102962151Y-107401705D01*
X103123153Y-107454018D01*
X103123154Y-107454018D01*
X103123157Y-107454019D01*
X103290346Y-107480499D01*
X103290354Y-107480499D01*
X103290356Y-107480500D01*
X103290357Y-107480500D01*
X103459643Y-107480500D01*
X103459644Y-107480500D01*
X103459645Y-107480499D01*
X103459653Y-107480499D01*
X103626842Y-107454019D01*
X103626843Y-107454018D01*
X103626847Y-107454018D01*
X103787849Y-107401705D01*
X103938685Y-107324850D01*
X104075641Y-107225346D01*
X104195346Y-107105641D01*
X104294850Y-106968685D01*
X104371705Y-106817849D01*
X104424018Y-106656847D01*
X104450500Y-106489644D01*
X104450500Y-106320356D01*
X104450499Y-106320354D01*
X104450499Y-106320346D01*
X104424019Y-106153157D01*
X104424017Y-106153151D01*
X104371705Y-105992151D01*
X104371703Y-105992147D01*
X104371702Y-105992144D01*
X104331235Y-105912724D01*
X104294850Y-105841315D01*
X104195346Y-105704359D01*
X104195342Y-105704355D01*
X104195338Y-105704350D01*
X104075649Y-105584661D01*
X104075644Y-105584657D01*
X104075641Y-105584654D01*
X104018492Y-105543133D01*
X103938690Y-105485153D01*
X103938683Y-105485149D01*
X103787855Y-105408297D01*
X103787849Y-105408295D01*
X103626848Y-105355982D01*
X103626842Y-105355980D01*
X103459653Y-105329500D01*
X103459644Y-105329500D01*
X103290356Y-105329500D01*
X103290346Y-105329500D01*
X103123157Y-105355980D01*
X103123151Y-105355982D01*
X102962150Y-105408295D01*
X102962144Y-105408297D01*
X102811316Y-105485149D01*
X102811309Y-105485153D01*
X102674360Y-105584653D01*
X102674350Y-105584661D01*
X102554661Y-105704350D01*
X102554653Y-105704360D01*
X102455153Y-105841309D01*
X102455149Y-105841316D01*
X102378297Y-105992144D01*
X102378295Y-105992150D01*
X102325982Y-106153151D01*
X102325980Y-106153157D01*
X102299500Y-106320346D01*
X97031528Y-106320346D01*
X92331158Y-101619976D01*
X92299873Y-101558576D01*
X92298500Y-101541134D01*
X92298500Y-101075000D01*
X102047768Y-101075000D01*
X102941988Y-101075000D01*
X102909075Y-101132007D01*
X102875000Y-101259174D01*
X102875000Y-101390826D01*
X102909075Y-101517993D01*
X102941988Y-101575000D01*
X102047769Y-101575000D01*
X102058240Y-101641121D01*
X102058243Y-101641131D01*
X102123905Y-101843217D01*
X102123908Y-101843226D01*
X102220376Y-102032552D01*
X102220380Y-102032559D01*
X102345277Y-102204464D01*
X102345285Y-102204474D01*
X102495525Y-102354714D01*
X102495535Y-102354722D01*
X102667440Y-102479619D01*
X102667447Y-102479623D01*
X102856773Y-102576091D01*
X102856782Y-102576094D01*
X103032749Y-102633269D01*
X103088499Y-102673774D01*
X103109794Y-102739312D01*
X103088500Y-102804850D01*
X103032751Y-102845354D01*
X102962158Y-102868292D01*
X102962144Y-102868297D01*
X102811316Y-102945149D01*
X102811309Y-102945153D01*
X102674360Y-103044653D01*
X102674350Y-103044661D01*
X102554661Y-103164350D01*
X102554653Y-103164360D01*
X102455153Y-103301309D01*
X102455149Y-103301316D01*
X102378297Y-103452144D01*
X102378295Y-103452150D01*
X102325982Y-103613151D01*
X102325980Y-103613157D01*
X102299500Y-103780346D01*
X102299500Y-103949653D01*
X102325980Y-104116842D01*
X102325982Y-104116848D01*
X102378295Y-104277849D01*
X102378297Y-104277855D01*
X102455149Y-104428683D01*
X102455153Y-104428690D01*
X102477005Y-104458766D01*
X102554654Y-104565641D01*
X102554657Y-104565644D01*
X102554661Y-104565649D01*
X102674350Y-104685338D01*
X102674355Y-104685342D01*
X102674359Y-104685346D01*
X102811315Y-104784850D01*
X102882724Y-104821235D01*
X102962144Y-104861702D01*
X102962147Y-104861703D01*
X102962151Y-104861705D01*
X103123153Y-104914018D01*
X103123154Y-104914018D01*
X103123157Y-104914019D01*
X103290346Y-104940499D01*
X103290354Y-104940499D01*
X103290356Y-104940500D01*
X103290357Y-104940500D01*
X103459643Y-104940500D01*
X103459644Y-104940500D01*
X103459645Y-104940499D01*
X103459653Y-104940499D01*
X103626842Y-104914019D01*
X103626843Y-104914018D01*
X103626847Y-104914018D01*
X103787849Y-104861705D01*
X103938685Y-104784850D01*
X104075641Y-104685346D01*
X104195346Y-104565641D01*
X104294850Y-104428685D01*
X104371705Y-104277849D01*
X104424018Y-104116847D01*
X104450500Y-103949644D01*
X104450500Y-103780356D01*
X104450499Y-103780354D01*
X104450499Y-103780346D01*
X104424019Y-103613157D01*
X104424017Y-103613151D01*
X104404039Y-103551665D01*
X104371705Y-103452151D01*
X104371703Y-103452147D01*
X104371702Y-103452144D01*
X104331235Y-103372724D01*
X104294850Y-103301315D01*
X104195346Y-103164359D01*
X104195342Y-103164355D01*
X104195338Y-103164350D01*
X104075649Y-103044661D01*
X104075644Y-103044657D01*
X104075641Y-103044654D01*
X104018492Y-103003133D01*
X103938690Y-102945153D01*
X103938683Y-102945149D01*
X103787855Y-102868297D01*
X103787841Y-102868292D01*
X103717248Y-102845354D01*
X103661499Y-102804849D01*
X103640205Y-102739311D01*
X103661500Y-102673773D01*
X103717250Y-102633269D01*
X103893217Y-102576094D01*
X103893226Y-102576091D01*
X104082552Y-102479623D01*
X104082559Y-102479619D01*
X104254464Y-102354722D01*
X104254474Y-102354714D01*
X104404714Y-102204474D01*
X104404722Y-102204464D01*
X104529619Y-102032559D01*
X104529623Y-102032552D01*
X104626091Y-101843226D01*
X104626094Y-101843217D01*
X104691756Y-101641131D01*
X104691759Y-101641121D01*
X104702231Y-101575000D01*
X103808012Y-101575000D01*
X103840925Y-101517993D01*
X103875000Y-101390826D01*
X103875000Y-101259174D01*
X103840925Y-101132007D01*
X103808012Y-101075000D01*
X104702231Y-101075000D01*
X104691759Y-101008878D01*
X104691756Y-101008868D01*
X104626094Y-100806782D01*
X104626091Y-100806773D01*
X104529623Y-100617447D01*
X104529619Y-100617440D01*
X104404722Y-100445535D01*
X104404714Y-100445525D01*
X104254474Y-100295285D01*
X104254464Y-100295277D01*
X104082559Y-100170380D01*
X104082552Y-100170376D01*
X103893226Y-100073908D01*
X103893217Y-100073905D01*
X103717250Y-100016730D01*
X103661500Y-99976225D01*
X103640205Y-99910687D01*
X103661500Y-99845149D01*
X103717250Y-99804644D01*
X103787849Y-99781705D01*
X103938685Y-99704850D01*
X104075641Y-99605346D01*
X104195346Y-99485641D01*
X104294850Y-99348685D01*
X104371705Y-99197849D01*
X104424018Y-99036847D01*
X104435632Y-98963517D01*
X104450499Y-98869653D01*
X104450500Y-98869642D01*
X104450500Y-98700357D01*
X104450499Y-98700346D01*
X104424019Y-98533157D01*
X104424017Y-98533151D01*
X104371705Y-98372151D01*
X104371703Y-98372147D01*
X104371702Y-98372144D01*
X104331235Y-98292724D01*
X104294850Y-98221315D01*
X104195346Y-98084359D01*
X104195342Y-98084355D01*
X104195338Y-98084350D01*
X104075649Y-97964661D01*
X104075644Y-97964657D01*
X104075641Y-97964654D01*
X104018492Y-97923133D01*
X103938690Y-97865153D01*
X103938683Y-97865149D01*
X103787855Y-97788297D01*
X103787849Y-97788295D01*
X103626848Y-97735982D01*
X103626842Y-97735980D01*
X103459653Y-97709500D01*
X103459644Y-97709500D01*
X103290356Y-97709500D01*
X103290346Y-97709500D01*
X103123157Y-97735980D01*
X103123151Y-97735982D01*
X102962150Y-97788295D01*
X102962144Y-97788297D01*
X102811316Y-97865149D01*
X102811309Y-97865153D01*
X102674360Y-97964653D01*
X102674350Y-97964661D01*
X102554661Y-98084350D01*
X102554653Y-98084360D01*
X102455153Y-98221309D01*
X102455149Y-98221316D01*
X102378297Y-98372144D01*
X102378295Y-98372150D01*
X102325982Y-98533151D01*
X102325980Y-98533157D01*
X102299500Y-98700346D01*
X102299500Y-98869653D01*
X102325980Y-99036842D01*
X102325982Y-99036848D01*
X102378295Y-99197849D01*
X102378297Y-99197855D01*
X102455149Y-99348683D01*
X102455153Y-99348690D01*
X102485131Y-99389951D01*
X102554654Y-99485641D01*
X102554657Y-99485644D01*
X102554661Y-99485649D01*
X102674350Y-99605338D01*
X102674355Y-99605342D01*
X102674359Y-99605346D01*
X102811315Y-99704850D01*
X102867373Y-99733413D01*
X102962144Y-99781702D01*
X102962147Y-99781703D01*
X102962151Y-99781705D01*
X103032750Y-99804644D01*
X103088500Y-99845149D01*
X103109794Y-99910688D01*
X103088499Y-99976225D01*
X103032750Y-100016730D01*
X102856779Y-100073906D01*
X102856773Y-100073908D01*
X102667447Y-100170376D01*
X102667440Y-100170380D01*
X102495535Y-100295277D01*
X102495525Y-100295285D01*
X102345285Y-100445525D01*
X102345277Y-100445535D01*
X102220380Y-100617440D01*
X102220376Y-100617447D01*
X102123908Y-100806773D01*
X102123905Y-100806782D01*
X102058243Y-101008868D01*
X102058240Y-101008878D01*
X102047768Y-101075000D01*
X92298500Y-101075000D01*
X92298500Y-96160346D01*
X102299500Y-96160346D01*
X102299500Y-96329653D01*
X102325980Y-96496842D01*
X102325982Y-96496848D01*
X102378295Y-96657849D01*
X102378297Y-96657855D01*
X102455149Y-96808683D01*
X102455153Y-96808690D01*
X102477005Y-96838766D01*
X102554654Y-96945641D01*
X102554657Y-96945644D01*
X102554661Y-96945649D01*
X102674350Y-97065338D01*
X102674355Y-97065342D01*
X102674359Y-97065346D01*
X102811315Y-97164850D01*
X102879311Y-97199496D01*
X102962144Y-97241702D01*
X102962147Y-97241703D01*
X102962151Y-97241705D01*
X103123153Y-97294018D01*
X103123154Y-97294018D01*
X103123157Y-97294019D01*
X103290346Y-97320499D01*
X103290354Y-97320499D01*
X103290356Y-97320500D01*
X103290357Y-97320500D01*
X103459643Y-97320500D01*
X103459644Y-97320500D01*
X103459645Y-97320499D01*
X103459653Y-97320499D01*
X103626842Y-97294019D01*
X103626843Y-97294018D01*
X103626847Y-97294018D01*
X103787849Y-97241705D01*
X103938685Y-97164850D01*
X104075641Y-97065346D01*
X104195346Y-96945641D01*
X104294850Y-96808685D01*
X104371705Y-96657849D01*
X104424018Y-96496847D01*
X104424019Y-96496842D01*
X104450499Y-96329653D01*
X104450500Y-96329642D01*
X104450500Y-96160357D01*
X104450499Y-96160346D01*
X104424019Y-95993157D01*
X104424017Y-95993151D01*
X104371705Y-95832151D01*
X104371703Y-95832147D01*
X104371702Y-95832144D01*
X104331235Y-95752724D01*
X104294850Y-95681315D01*
X104195346Y-95544359D01*
X104195342Y-95544355D01*
X104195338Y-95544350D01*
X104075649Y-95424661D01*
X104075644Y-95424657D01*
X104075641Y-95424654D01*
X104018492Y-95383133D01*
X103938690Y-95325153D01*
X103938683Y-95325149D01*
X103787855Y-95248297D01*
X103787849Y-95248295D01*
X103626848Y-95195982D01*
X103626842Y-95195980D01*
X103459653Y-95169500D01*
X103459644Y-95169500D01*
X103290356Y-95169500D01*
X103290346Y-95169500D01*
X103123157Y-95195980D01*
X103123151Y-95195982D01*
X102962150Y-95248295D01*
X102962144Y-95248297D01*
X102811316Y-95325149D01*
X102811309Y-95325153D01*
X102674360Y-95424653D01*
X102674350Y-95424661D01*
X102554661Y-95544350D01*
X102554653Y-95544360D01*
X102455153Y-95681309D01*
X102455149Y-95681316D01*
X102378297Y-95832144D01*
X102378295Y-95832150D01*
X102325982Y-95993151D01*
X102325980Y-95993157D01*
X102299500Y-96160346D01*
X92298500Y-96160346D01*
X92298500Y-94926857D01*
X92298500Y-94926856D01*
X92274614Y-94837712D01*
X92228470Y-94757788D01*
X92228466Y-94757783D01*
X91165500Y-93694817D01*
X91091029Y-93620346D01*
X102299500Y-93620346D01*
X102299500Y-93789653D01*
X102325980Y-93956842D01*
X102325982Y-93956848D01*
X102378295Y-94117849D01*
X102378297Y-94117855D01*
X102455149Y-94268683D01*
X102455153Y-94268690D01*
X102477005Y-94298766D01*
X102554654Y-94405641D01*
X102554657Y-94405644D01*
X102554661Y-94405649D01*
X102674350Y-94525338D01*
X102674355Y-94525342D01*
X102674359Y-94525346D01*
X102811315Y-94624850D01*
X102882724Y-94661235D01*
X102962144Y-94701702D01*
X102962147Y-94701703D01*
X102962151Y-94701705D01*
X103123153Y-94754018D01*
X103123154Y-94754018D01*
X103123157Y-94754019D01*
X103290346Y-94780499D01*
X103290354Y-94780499D01*
X103290356Y-94780500D01*
X103290357Y-94780500D01*
X103459643Y-94780500D01*
X103459644Y-94780500D01*
X103459645Y-94780499D01*
X103459653Y-94780499D01*
X103626842Y-94754019D01*
X103626843Y-94754018D01*
X103626847Y-94754018D01*
X103787849Y-94701705D01*
X103938685Y-94624850D01*
X104075641Y-94525346D01*
X104195346Y-94405641D01*
X104294850Y-94268685D01*
X104371705Y-94117849D01*
X104424018Y-93956847D01*
X104450500Y-93789644D01*
X104450500Y-93620356D01*
X104450499Y-93620354D01*
X104450499Y-93620346D01*
X104424019Y-93453157D01*
X104424017Y-93453151D01*
X104371705Y-93292151D01*
X104371703Y-93292147D01*
X104371702Y-93292144D01*
X104331235Y-93212724D01*
X104294850Y-93141315D01*
X104195346Y-93004359D01*
X104195342Y-93004355D01*
X104195338Y-93004350D01*
X104075649Y-92884661D01*
X104075644Y-92884657D01*
X104075641Y-92884654D01*
X104018492Y-92843133D01*
X103938690Y-92785153D01*
X103938683Y-92785149D01*
X103787855Y-92708297D01*
X103787849Y-92708295D01*
X103626848Y-92655982D01*
X103626842Y-92655980D01*
X103459653Y-92629500D01*
X103459644Y-92629500D01*
X103290356Y-92629500D01*
X103290346Y-92629500D01*
X103123157Y-92655980D01*
X103123151Y-92655982D01*
X102962150Y-92708295D01*
X102962144Y-92708297D01*
X102811316Y-92785149D01*
X102811309Y-92785153D01*
X102674360Y-92884653D01*
X102674350Y-92884661D01*
X102554661Y-93004350D01*
X102554653Y-93004360D01*
X102455153Y-93141309D01*
X102455149Y-93141316D01*
X102378297Y-93292144D01*
X102378295Y-93292150D01*
X102325982Y-93453151D01*
X102325980Y-93453157D01*
X102299500Y-93620346D01*
X91091029Y-93620346D01*
X88625499Y-91154817D01*
X88551028Y-91080346D01*
X102299500Y-91080346D01*
X102299500Y-91249653D01*
X102325980Y-91416842D01*
X102325982Y-91416848D01*
X102378295Y-91577849D01*
X102378297Y-91577855D01*
X102455149Y-91728683D01*
X102455153Y-91728690D01*
X102477005Y-91758766D01*
X102554654Y-91865641D01*
X102554657Y-91865644D01*
X102554661Y-91865649D01*
X102674350Y-91985338D01*
X102674355Y-91985342D01*
X102674359Y-91985346D01*
X102811315Y-92084850D01*
X102882724Y-92121235D01*
X102962144Y-92161702D01*
X102962147Y-92161703D01*
X102962151Y-92161705D01*
X103123153Y-92214018D01*
X103123154Y-92214018D01*
X103123157Y-92214019D01*
X103290346Y-92240499D01*
X103290354Y-92240499D01*
X103290356Y-92240500D01*
X103290357Y-92240500D01*
X103459643Y-92240500D01*
X103459644Y-92240500D01*
X103459645Y-92240499D01*
X103459653Y-92240499D01*
X103626842Y-92214019D01*
X103626843Y-92214018D01*
X103626847Y-92214018D01*
X103787849Y-92161705D01*
X103938685Y-92084850D01*
X104075641Y-91985346D01*
X104195346Y-91865641D01*
X104294850Y-91728685D01*
X104371705Y-91577849D01*
X104424018Y-91416847D01*
X104450500Y-91249644D01*
X104450500Y-91080356D01*
X104450499Y-91080354D01*
X104450499Y-91080346D01*
X104424019Y-90913157D01*
X104424017Y-90913151D01*
X104371705Y-90752151D01*
X104371703Y-90752147D01*
X104371702Y-90752144D01*
X104331235Y-90672724D01*
X104294850Y-90601315D01*
X104195346Y-90464359D01*
X104195342Y-90464355D01*
X104195338Y-90464350D01*
X104075649Y-90344661D01*
X104075644Y-90344657D01*
X104075641Y-90344654D01*
X104018492Y-90303133D01*
X103938690Y-90245153D01*
X103938683Y-90245149D01*
X103787855Y-90168297D01*
X103787849Y-90168295D01*
X103626848Y-90115982D01*
X103626842Y-90115980D01*
X103459653Y-90089500D01*
X103459644Y-90089500D01*
X103290356Y-90089500D01*
X103290346Y-90089500D01*
X103123157Y-90115980D01*
X103123151Y-90115982D01*
X102962150Y-90168295D01*
X102962144Y-90168297D01*
X102811316Y-90245149D01*
X102811309Y-90245153D01*
X102674360Y-90344653D01*
X102674350Y-90344661D01*
X102554661Y-90464350D01*
X102554653Y-90464360D01*
X102455153Y-90601309D01*
X102455149Y-90601316D01*
X102378297Y-90752144D01*
X102378295Y-90752150D01*
X102325982Y-90913151D01*
X102325980Y-90913157D01*
X102299500Y-91080346D01*
X88551028Y-91080346D01*
X86623396Y-89152714D01*
X86592111Y-89091314D01*
X86596195Y-89039416D01*
X86596702Y-89037853D01*
X86596705Y-89037849D01*
X86649018Y-88876847D01*
X86675500Y-88709644D01*
X86675500Y-88540356D01*
X86675499Y-88540354D01*
X86675499Y-88540346D01*
X86649019Y-88373157D01*
X86649017Y-88373151D01*
X86596705Y-88212151D01*
X86596703Y-88212147D01*
X86596702Y-88212144D01*
X86545515Y-88111686D01*
X86519850Y-88061315D01*
X86420346Y-87924359D01*
X86420342Y-87924355D01*
X86420338Y-87924350D01*
X86300649Y-87804661D01*
X86300644Y-87804657D01*
X86300641Y-87804654D01*
X86243492Y-87763133D01*
X86163690Y-87705153D01*
X86163683Y-87705149D01*
X86012855Y-87628297D01*
X86012841Y-87628292D01*
X85942248Y-87605354D01*
X85886499Y-87564849D01*
X85865205Y-87499311D01*
X85886500Y-87433773D01*
X85942250Y-87393269D01*
X86118217Y-87336094D01*
X86118226Y-87336091D01*
X86307552Y-87239623D01*
X86307559Y-87239619D01*
X86479464Y-87114722D01*
X86479474Y-87114714D01*
X86629714Y-86964474D01*
X86629722Y-86964464D01*
X86754619Y-86792559D01*
X86754623Y-86792552D01*
X86851091Y-86603226D01*
X86851094Y-86603217D01*
X86916756Y-86401131D01*
X86916759Y-86401121D01*
X86927231Y-86335000D01*
X86033012Y-86335000D01*
X86065925Y-86277993D01*
X86100000Y-86150826D01*
X86100000Y-86019174D01*
X86065925Y-85892007D01*
X86033012Y-85835000D01*
X86927231Y-85835000D01*
X102047768Y-85835000D01*
X102941988Y-85835000D01*
X102909075Y-85892007D01*
X102875000Y-86019174D01*
X102875000Y-86150826D01*
X102909075Y-86277993D01*
X102941988Y-86335000D01*
X102047769Y-86335000D01*
X102058240Y-86401121D01*
X102058243Y-86401131D01*
X102123905Y-86603217D01*
X102123908Y-86603226D01*
X102220376Y-86792552D01*
X102220380Y-86792559D01*
X102345277Y-86964464D01*
X102345285Y-86964474D01*
X102495525Y-87114714D01*
X102495535Y-87114722D01*
X102667440Y-87239619D01*
X102667447Y-87239623D01*
X102856773Y-87336091D01*
X102856782Y-87336094D01*
X103032749Y-87393269D01*
X103088499Y-87433774D01*
X103109794Y-87499312D01*
X103088500Y-87564850D01*
X103032751Y-87605354D01*
X102962158Y-87628292D01*
X102962144Y-87628297D01*
X102811316Y-87705149D01*
X102811309Y-87705153D01*
X102674360Y-87804653D01*
X102674350Y-87804661D01*
X102554661Y-87924350D01*
X102554653Y-87924360D01*
X102455153Y-88061309D01*
X102455149Y-88061316D01*
X102378297Y-88212144D01*
X102378295Y-88212150D01*
X102325982Y-88373151D01*
X102325980Y-88373157D01*
X102299500Y-88540346D01*
X102299500Y-88709653D01*
X102325980Y-88876842D01*
X102325982Y-88876848D01*
X102378295Y-89037849D01*
X102378297Y-89037855D01*
X102455149Y-89188683D01*
X102455153Y-89188690D01*
X102477005Y-89218766D01*
X102554654Y-89325641D01*
X102554657Y-89325644D01*
X102554661Y-89325649D01*
X102674350Y-89445338D01*
X102674355Y-89445342D01*
X102674359Y-89445346D01*
X102811315Y-89544850D01*
X102882724Y-89581235D01*
X102962144Y-89621702D01*
X102962147Y-89621703D01*
X102962151Y-89621705D01*
X103123153Y-89674018D01*
X103123154Y-89674018D01*
X103123157Y-89674019D01*
X103290346Y-89700499D01*
X103290354Y-89700499D01*
X103290356Y-89700500D01*
X103290357Y-89700500D01*
X103459643Y-89700500D01*
X103459644Y-89700500D01*
X103459645Y-89700499D01*
X103459653Y-89700499D01*
X103626842Y-89674019D01*
X103626843Y-89674018D01*
X103626847Y-89674018D01*
X103787849Y-89621705D01*
X103938685Y-89544850D01*
X104075641Y-89445346D01*
X104195346Y-89325641D01*
X104294850Y-89188685D01*
X104371705Y-89037849D01*
X104424018Y-88876847D01*
X104450500Y-88709644D01*
X104450500Y-88540356D01*
X104450499Y-88540354D01*
X104450499Y-88540346D01*
X104424019Y-88373157D01*
X104424017Y-88373151D01*
X104371705Y-88212151D01*
X104371703Y-88212147D01*
X104371702Y-88212144D01*
X104320515Y-88111686D01*
X104294850Y-88061315D01*
X104195346Y-87924359D01*
X104195342Y-87924355D01*
X104195338Y-87924350D01*
X104075649Y-87804661D01*
X104075644Y-87804657D01*
X104075641Y-87804654D01*
X104018492Y-87763133D01*
X103938690Y-87705153D01*
X103938683Y-87705149D01*
X103787855Y-87628297D01*
X103787841Y-87628292D01*
X103717248Y-87605354D01*
X103661499Y-87564849D01*
X103640205Y-87499311D01*
X103661500Y-87433773D01*
X103717250Y-87393269D01*
X103893217Y-87336094D01*
X103893226Y-87336091D01*
X104082552Y-87239623D01*
X104082559Y-87239619D01*
X104254464Y-87114722D01*
X104254474Y-87114714D01*
X104404714Y-86964474D01*
X104404722Y-86964464D01*
X104529619Y-86792559D01*
X104529623Y-86792552D01*
X104626091Y-86603226D01*
X104626094Y-86603217D01*
X104691756Y-86401131D01*
X104691759Y-86401121D01*
X104702231Y-86335000D01*
X103808012Y-86335000D01*
X103840925Y-86277993D01*
X103875000Y-86150826D01*
X103875000Y-86019174D01*
X103840925Y-85892007D01*
X103808012Y-85835000D01*
X104702231Y-85835000D01*
X104691759Y-85768878D01*
X104691756Y-85768868D01*
X104626094Y-85566782D01*
X104626091Y-85566773D01*
X104529623Y-85377447D01*
X104529619Y-85377440D01*
X104404722Y-85205535D01*
X104404714Y-85205525D01*
X104254474Y-85055285D01*
X104254464Y-85055277D01*
X104082559Y-84930380D01*
X104082552Y-84930376D01*
X103893226Y-84833908D01*
X103893217Y-84833905D01*
X103717250Y-84776730D01*
X103661500Y-84736225D01*
X103640205Y-84670687D01*
X103661500Y-84605149D01*
X103717250Y-84564644D01*
X103787849Y-84541705D01*
X103938685Y-84464850D01*
X104075641Y-84365346D01*
X104195346Y-84245641D01*
X104294850Y-84108685D01*
X104371705Y-83957849D01*
X104424018Y-83796847D01*
X104424019Y-83796842D01*
X104450499Y-83629653D01*
X104450500Y-83629642D01*
X104450500Y-83460357D01*
X104450499Y-83460346D01*
X104424019Y-83293157D01*
X104424017Y-83293151D01*
X104371705Y-83132151D01*
X104371703Y-83132147D01*
X104371702Y-83132144D01*
X104315503Y-83021849D01*
X104294850Y-82981315D01*
X104195346Y-82844359D01*
X104195342Y-82844355D01*
X104195338Y-82844350D01*
X104075649Y-82724661D01*
X104075644Y-82724657D01*
X104075641Y-82724654D01*
X103998105Y-82668321D01*
X103938690Y-82625153D01*
X103938683Y-82625149D01*
X103787855Y-82548297D01*
X103787849Y-82548295D01*
X103626848Y-82495982D01*
X103626842Y-82495980D01*
X103459653Y-82469500D01*
X103459644Y-82469500D01*
X103290356Y-82469500D01*
X103290346Y-82469500D01*
X103123157Y-82495980D01*
X103123151Y-82495982D01*
X102962150Y-82548295D01*
X102962144Y-82548297D01*
X102811316Y-82625149D01*
X102811309Y-82625153D01*
X102674360Y-82724653D01*
X102674350Y-82724661D01*
X102554661Y-82844350D01*
X102554653Y-82844360D01*
X102455153Y-82981309D01*
X102455149Y-82981316D01*
X102378297Y-83132144D01*
X102378295Y-83132150D01*
X102325982Y-83293151D01*
X102325980Y-83293157D01*
X102299500Y-83460346D01*
X102299500Y-83629653D01*
X102325980Y-83796842D01*
X102325982Y-83796848D01*
X102378295Y-83957849D01*
X102378297Y-83957855D01*
X102455149Y-84108683D01*
X102455153Y-84108690D01*
X102482252Y-84145988D01*
X102554654Y-84245641D01*
X102554657Y-84245644D01*
X102554661Y-84245649D01*
X102674350Y-84365338D01*
X102674355Y-84365342D01*
X102674359Y-84365346D01*
X102811315Y-84464850D01*
X102879459Y-84499571D01*
X102962144Y-84541702D01*
X102962147Y-84541703D01*
X102962151Y-84541705D01*
X103032750Y-84564644D01*
X103088500Y-84605149D01*
X103109794Y-84670688D01*
X103088499Y-84736225D01*
X103032750Y-84776730D01*
X102856779Y-84833906D01*
X102856773Y-84833908D01*
X102667447Y-84930376D01*
X102667440Y-84930380D01*
X102495535Y-85055277D01*
X102495525Y-85055285D01*
X102345285Y-85205525D01*
X102345277Y-85205535D01*
X102220380Y-85377440D01*
X102220376Y-85377447D01*
X102123908Y-85566773D01*
X102123905Y-85566782D01*
X102058243Y-85768868D01*
X102058240Y-85768878D01*
X102047768Y-85835000D01*
X86927231Y-85835000D01*
X86916759Y-85768878D01*
X86916756Y-85768868D01*
X86851094Y-85566782D01*
X86851091Y-85566773D01*
X86754623Y-85377447D01*
X86754619Y-85377440D01*
X86629722Y-85205535D01*
X86629714Y-85205525D01*
X86479474Y-85055285D01*
X86479464Y-85055277D01*
X86307559Y-84930380D01*
X86307552Y-84930376D01*
X86118226Y-84833908D01*
X86118217Y-84833905D01*
X85942250Y-84776730D01*
X85886500Y-84736225D01*
X85865205Y-84670687D01*
X85886500Y-84605149D01*
X85942250Y-84564644D01*
X86012849Y-84541705D01*
X86163685Y-84464850D01*
X86300641Y-84365346D01*
X86420346Y-84245641D01*
X86519850Y-84108685D01*
X86596705Y-83957849D01*
X86649018Y-83796847D01*
X86649019Y-83796842D01*
X86675499Y-83629653D01*
X86675500Y-83629642D01*
X86675500Y-83460357D01*
X86675499Y-83460346D01*
X86649019Y-83293157D01*
X86649017Y-83293151D01*
X86596705Y-83132151D01*
X86596703Y-83132147D01*
X86596702Y-83132144D01*
X86540503Y-83021849D01*
X86519850Y-82981315D01*
X86420346Y-82844359D01*
X86420342Y-82844355D01*
X86420338Y-82844350D01*
X86300649Y-82724661D01*
X86300644Y-82724657D01*
X86300641Y-82724654D01*
X86223105Y-82668321D01*
X86163690Y-82625153D01*
X86163683Y-82625149D01*
X86012855Y-82548297D01*
X86012849Y-82548295D01*
X85851848Y-82495982D01*
X85851842Y-82495980D01*
X85684653Y-82469500D01*
X85684644Y-82469500D01*
X85515356Y-82469500D01*
X85515346Y-82469500D01*
X85348157Y-82495980D01*
X85348151Y-82495982D01*
X85187150Y-82548295D01*
X85187144Y-82548297D01*
X85036316Y-82625149D01*
X85036309Y-82625153D01*
X84899360Y-82724653D01*
X84899350Y-82724661D01*
X84779661Y-82844350D01*
X84779653Y-82844360D01*
X84680153Y-82981309D01*
X84680149Y-82981316D01*
X84603297Y-83132144D01*
X84603295Y-83132150D01*
X84550982Y-83293151D01*
X84550980Y-83293157D01*
X84524500Y-83460346D01*
X84524500Y-83629653D01*
X84550980Y-83796842D01*
X84550983Y-83796852D01*
X84595133Y-83932732D01*
X84595133Y-84001643D01*
X84567932Y-84046029D01*
X83979442Y-84634520D01*
X83918043Y-84665805D01*
X83849980Y-84655025D01*
X83801253Y-84606298D01*
X83789100Y-84555678D01*
X83789100Y-83393120D01*
X83810395Y-83327582D01*
X83821752Y-83314284D01*
X85098971Y-82037064D01*
X85160369Y-82005781D01*
X85212264Y-82009864D01*
X85348153Y-82054018D01*
X85348154Y-82054018D01*
X85348157Y-82054019D01*
X85515346Y-82080499D01*
X85515354Y-82080499D01*
X85515356Y-82080500D01*
X85515357Y-82080500D01*
X85684643Y-82080500D01*
X85684644Y-82080500D01*
X85684645Y-82080499D01*
X85684653Y-82080499D01*
X85851842Y-82054019D01*
X85851843Y-82054018D01*
X85851847Y-82054018D01*
X86012849Y-82001705D01*
X86163685Y-81924850D01*
X86300641Y-81825346D01*
X86420346Y-81705641D01*
X86519850Y-81568685D01*
X86596705Y-81417849D01*
X86649018Y-81256847D01*
X86651004Y-81244308D01*
X86675499Y-81089653D01*
X86675500Y-81089642D01*
X86675500Y-80920357D01*
X86675499Y-80920346D01*
X86649019Y-80753157D01*
X86649017Y-80753151D01*
X86605489Y-80619186D01*
X86596705Y-80592151D01*
X86596703Y-80592147D01*
X86596702Y-80592144D01*
X86556235Y-80512724D01*
X86519850Y-80441315D01*
X86420346Y-80304359D01*
X86420342Y-80304355D01*
X86420338Y-80304350D01*
X86300649Y-80184661D01*
X86300644Y-80184657D01*
X86300641Y-80184654D01*
X86243492Y-80143133D01*
X86163690Y-80085153D01*
X86163683Y-80085149D01*
X86012855Y-80008297D01*
X86012849Y-80008295D01*
X85851848Y-79955982D01*
X85851842Y-79955980D01*
X85684653Y-79929500D01*
X85684644Y-79929500D01*
X85515356Y-79929500D01*
X85515346Y-79929500D01*
X85348157Y-79955980D01*
X85348151Y-79955982D01*
X85187150Y-80008295D01*
X85187144Y-80008297D01*
X85036316Y-80085149D01*
X85036309Y-80085153D01*
X84899360Y-80184653D01*
X84899350Y-80184661D01*
X84779661Y-80304350D01*
X84779653Y-80304360D01*
X84680153Y-80441309D01*
X84680149Y-80441316D01*
X84603297Y-80592144D01*
X84603295Y-80592150D01*
X84550982Y-80753151D01*
X84550980Y-80753157D01*
X84524500Y-80920346D01*
X84524500Y-81089653D01*
X84550980Y-81256842D01*
X84550983Y-81256852D01*
X84595133Y-81392732D01*
X84595133Y-81461643D01*
X84567932Y-81506029D01*
X83268242Y-82805720D01*
X83206842Y-82837005D01*
X83138780Y-82826225D01*
X83090053Y-82777498D01*
X83077900Y-82726878D01*
X83077900Y-81564320D01*
X83099195Y-81498782D01*
X83110552Y-81485484D01*
X85098971Y-79497064D01*
X85160369Y-79465781D01*
X85212264Y-79469864D01*
X85348153Y-79514018D01*
X85348154Y-79514018D01*
X85348157Y-79514019D01*
X85515346Y-79540499D01*
X85515354Y-79540499D01*
X85515356Y-79540500D01*
X85515357Y-79540500D01*
X85684643Y-79540500D01*
X85684644Y-79540500D01*
X85684645Y-79540499D01*
X85684653Y-79540499D01*
X85851842Y-79514019D01*
X85851843Y-79514018D01*
X85851847Y-79514018D01*
X86012849Y-79461705D01*
X86163685Y-79384850D01*
X86300641Y-79285346D01*
X86420346Y-79165641D01*
X86519850Y-79028685D01*
X86596705Y-78877849D01*
X86649018Y-78716847D01*
X86657623Y-78662518D01*
X86675499Y-78549653D01*
X86675500Y-78549642D01*
X86675500Y-78380357D01*
X86675499Y-78380346D01*
X86649019Y-78213157D01*
X86649017Y-78213151D01*
X86631095Y-78157993D01*
X86596705Y-78052151D01*
X86596703Y-78052147D01*
X86596702Y-78052144D01*
X86552299Y-77965000D01*
X86519850Y-77901315D01*
X86420346Y-77764359D01*
X86420342Y-77764355D01*
X86420338Y-77764350D01*
X86300649Y-77644661D01*
X86300644Y-77644657D01*
X86300641Y-77644654D01*
X86239180Y-77600000D01*
X86163690Y-77545153D01*
X86163683Y-77545149D01*
X86012855Y-77468297D01*
X86012849Y-77468295D01*
X85851848Y-77415982D01*
X85851842Y-77415980D01*
X85684653Y-77389500D01*
X85684644Y-77389500D01*
X85515356Y-77389500D01*
X85515346Y-77389500D01*
X85348157Y-77415980D01*
X85348151Y-77415982D01*
X85187150Y-77468295D01*
X85187144Y-77468297D01*
X85036316Y-77545149D01*
X85036309Y-77545153D01*
X84899360Y-77644653D01*
X84899350Y-77644661D01*
X84779661Y-77764350D01*
X84779653Y-77764360D01*
X84680153Y-77901309D01*
X84680149Y-77901316D01*
X84603297Y-78052144D01*
X84603295Y-78052150D01*
X84550982Y-78213151D01*
X84550980Y-78213157D01*
X84524500Y-78380346D01*
X84524500Y-78549653D01*
X84550980Y-78716842D01*
X84550983Y-78716852D01*
X84595133Y-78852732D01*
X84595133Y-78921643D01*
X84567932Y-78966029D01*
X82557042Y-80976920D01*
X82495642Y-81008205D01*
X82427580Y-80997425D01*
X82378853Y-80948698D01*
X82366700Y-80898078D01*
X82366700Y-79735520D01*
X82387995Y-79669982D01*
X82399352Y-79656684D01*
X85098971Y-76957064D01*
X85160369Y-76925781D01*
X85212264Y-76929864D01*
X85348153Y-76974018D01*
X85348154Y-76974018D01*
X85348157Y-76974019D01*
X85515346Y-77000499D01*
X85515354Y-77000499D01*
X85515356Y-77000500D01*
X85515357Y-77000500D01*
X85684643Y-77000500D01*
X85684644Y-77000500D01*
X85684645Y-77000499D01*
X85684653Y-77000499D01*
X85851842Y-76974019D01*
X85851843Y-76974018D01*
X85851847Y-76974018D01*
X86012849Y-76921705D01*
X86163685Y-76844850D01*
X86300641Y-76745346D01*
X86420346Y-76625641D01*
X86519850Y-76488685D01*
X86596705Y-76337849D01*
X86649018Y-76176847D01*
X86675500Y-76009644D01*
X86675500Y-75840356D01*
X86675499Y-75840354D01*
X86675499Y-75840346D01*
X86649019Y-75673157D01*
X86649017Y-75673151D01*
X86598900Y-75518907D01*
X86596705Y-75512151D01*
X86596703Y-75512147D01*
X86596702Y-75512144D01*
X86556235Y-75432724D01*
X86519850Y-75361315D01*
X86420346Y-75224359D01*
X86420342Y-75224355D01*
X86420338Y-75224350D01*
X86300649Y-75104661D01*
X86300644Y-75104657D01*
X86300641Y-75104654D01*
X86243492Y-75063133D01*
X86163690Y-75005153D01*
X86163683Y-75005149D01*
X86012855Y-74928297D01*
X86012849Y-74928295D01*
X85851848Y-74875982D01*
X85851842Y-74875980D01*
X85684653Y-74849500D01*
X85684644Y-74849500D01*
X85515356Y-74849500D01*
X85515346Y-74849500D01*
X85348157Y-74875980D01*
X85348151Y-74875982D01*
X85187150Y-74928295D01*
X85187144Y-74928297D01*
X85036316Y-75005149D01*
X85036309Y-75005153D01*
X84899360Y-75104653D01*
X84899350Y-75104661D01*
X84779661Y-75224350D01*
X84779653Y-75224360D01*
X84680153Y-75361309D01*
X84680149Y-75361316D01*
X84603297Y-75512144D01*
X84603295Y-75512150D01*
X84550982Y-75673151D01*
X84550980Y-75673157D01*
X84524500Y-75840346D01*
X84524500Y-76009653D01*
X84550980Y-76176842D01*
X84550983Y-76176852D01*
X84595133Y-76312732D01*
X84595133Y-76381643D01*
X84567932Y-76426029D01*
X81845842Y-79148120D01*
X81784442Y-79179405D01*
X81716380Y-79168625D01*
X81667653Y-79119898D01*
X81655500Y-79069278D01*
X81655500Y-77906720D01*
X81676795Y-77841182D01*
X81688152Y-77827884D01*
X85022879Y-74493156D01*
X85084279Y-74461872D01*
X85101721Y-74460499D01*
X86472205Y-74460499D01*
X86472210Y-74460499D01*
X86521312Y-74450733D01*
X86537982Y-74447418D01*
X86537982Y-74447417D01*
X86537986Y-74447417D01*
X86612577Y-74397577D01*
X86662417Y-74322986D01*
X86675500Y-74257211D01*
X86675499Y-72512791D01*
X102299500Y-72512791D01*
X102299500Y-74257205D01*
X102299501Y-74257212D01*
X102312581Y-74322982D01*
X102312584Y-74322987D01*
X102362421Y-74397576D01*
X102437012Y-74447416D01*
X102437014Y-74447417D01*
X102502789Y-74460500D01*
X104247210Y-74460499D01*
X104296312Y-74450733D01*
X104312982Y-74447418D01*
X104312982Y-74447417D01*
X104312986Y-74447417D01*
X104387577Y-74397577D01*
X104437417Y-74322986D01*
X104450500Y-74257211D01*
X104450499Y-73553542D01*
X108649500Y-73553542D01*
X108649500Y-73746457D01*
X108679675Y-73936969D01*
X108679676Y-73936973D01*
X108739285Y-74120429D01*
X108739287Y-74120435D01*
X108826858Y-74292300D01*
X108826862Y-74292307D01*
X108849149Y-74322982D01*
X108940241Y-74448359D01*
X108940244Y-74448362D01*
X108940248Y-74448367D01*
X109076632Y-74584751D01*
X109076637Y-74584755D01*
X109076641Y-74584759D01*
X109232698Y-74698141D01*
X109314067Y-74739600D01*
X109404564Y-74785712D01*
X109404567Y-74785713D01*
X109404571Y-74785715D01*
X109588028Y-74845324D01*
X109669336Y-74858202D01*
X109778542Y-74875499D01*
X109778551Y-74875500D01*
X109971449Y-74875500D01*
X109971457Y-74875499D01*
X110040009Y-74864641D01*
X110161972Y-74845324D01*
X110345429Y-74785715D01*
X110517302Y-74698141D01*
X110673359Y-74584759D01*
X110809759Y-74448359D01*
X110923141Y-74292302D01*
X111010715Y-74120429D01*
X111070324Y-73936972D01*
X111100500Y-73746449D01*
X111100500Y-73553551D01*
X111100499Y-73553542D01*
X115149500Y-73553542D01*
X115149500Y-73746457D01*
X115179675Y-73936969D01*
X115179676Y-73936973D01*
X115239285Y-74120429D01*
X115239287Y-74120435D01*
X115326858Y-74292300D01*
X115326862Y-74292307D01*
X115349149Y-74322982D01*
X115440241Y-74448359D01*
X115440244Y-74448362D01*
X115440248Y-74448367D01*
X115576632Y-74584751D01*
X115576637Y-74584755D01*
X115576641Y-74584759D01*
X115732698Y-74698141D01*
X115814067Y-74739600D01*
X115904564Y-74785712D01*
X115904567Y-74785713D01*
X115904571Y-74785715D01*
X116088028Y-74845324D01*
X116169336Y-74858202D01*
X116278542Y-74875499D01*
X116278551Y-74875500D01*
X116471449Y-74875500D01*
X116471457Y-74875499D01*
X116540009Y-74864641D01*
X116661972Y-74845324D01*
X116845429Y-74785715D01*
X117017302Y-74698141D01*
X117173359Y-74584759D01*
X117309759Y-74448359D01*
X117423141Y-74292302D01*
X117510715Y-74120429D01*
X117570324Y-73936972D01*
X117600500Y-73746449D01*
X117600500Y-73553551D01*
X117599806Y-73549170D01*
X117570324Y-73363030D01*
X117570323Y-73363026D01*
X117510715Y-73179571D01*
X117510713Y-73179567D01*
X117510712Y-73179564D01*
X117464600Y-73089067D01*
X117423141Y-73007698D01*
X117309759Y-72851641D01*
X117309755Y-72851637D01*
X117309751Y-72851632D01*
X117173367Y-72715248D01*
X117173362Y-72715244D01*
X117173359Y-72715241D01*
X117108239Y-72667929D01*
X117017307Y-72601862D01*
X117017300Y-72601858D01*
X116845435Y-72514287D01*
X116845429Y-72514285D01*
X116661973Y-72454676D01*
X116661969Y-72454675D01*
X116471457Y-72424500D01*
X116471449Y-72424500D01*
X116278551Y-72424500D01*
X116278542Y-72424500D01*
X116088030Y-72454675D01*
X116088026Y-72454676D01*
X115904570Y-72514285D01*
X115904564Y-72514287D01*
X115732699Y-72601858D01*
X115732692Y-72601862D01*
X115576642Y-72715240D01*
X115576632Y-72715248D01*
X115440248Y-72851632D01*
X115440240Y-72851642D01*
X115326862Y-73007692D01*
X115326858Y-73007699D01*
X115239287Y-73179564D01*
X115239285Y-73179570D01*
X115179676Y-73363026D01*
X115179675Y-73363030D01*
X115149500Y-73553542D01*
X111100499Y-73553542D01*
X111099806Y-73549170D01*
X111070324Y-73363030D01*
X111070323Y-73363026D01*
X111010715Y-73179571D01*
X111010713Y-73179567D01*
X111010712Y-73179564D01*
X110964600Y-73089067D01*
X110923141Y-73007698D01*
X110809759Y-72851641D01*
X110809755Y-72851637D01*
X110809751Y-72851632D01*
X110673367Y-72715248D01*
X110673362Y-72715244D01*
X110673359Y-72715241D01*
X110608239Y-72667929D01*
X110517307Y-72601862D01*
X110517300Y-72601858D01*
X110345435Y-72514287D01*
X110345429Y-72514285D01*
X110161973Y-72454676D01*
X110161969Y-72454675D01*
X109971457Y-72424500D01*
X109971449Y-72424500D01*
X109778551Y-72424500D01*
X109778542Y-72424500D01*
X109588030Y-72454675D01*
X109588026Y-72454676D01*
X109404570Y-72514285D01*
X109404564Y-72514287D01*
X109232699Y-72601858D01*
X109232692Y-72601862D01*
X109076642Y-72715240D01*
X109076632Y-72715248D01*
X108940248Y-72851632D01*
X108940240Y-72851642D01*
X108826862Y-73007692D01*
X108826858Y-73007699D01*
X108739287Y-73179564D01*
X108739285Y-73179570D01*
X108679676Y-73363026D01*
X108679675Y-73363030D01*
X108649500Y-73553542D01*
X104450499Y-73553542D01*
X104450499Y-73363030D01*
X104450499Y-72512794D01*
X104450499Y-72512791D01*
X104450499Y-72512790D01*
X104437417Y-72447014D01*
X104417534Y-72417257D01*
X104387578Y-72372423D01*
X104312987Y-72322583D01*
X104296542Y-72319312D01*
X104247211Y-72309500D01*
X104247208Y-72309500D01*
X102502794Y-72309500D01*
X102502787Y-72309501D01*
X102437017Y-72322581D01*
X102437012Y-72322584D01*
X102362423Y-72372421D01*
X102312583Y-72447012D01*
X102312583Y-72447014D01*
X102299501Y-72512787D01*
X102299500Y-72512791D01*
X86675499Y-72512791D01*
X86675499Y-72512790D01*
X86662417Y-72447014D01*
X86642534Y-72417257D01*
X86612578Y-72372423D01*
X86537987Y-72322583D01*
X86521542Y-72319312D01*
X86472211Y-72309500D01*
X86472208Y-72309500D01*
X84727794Y-72309500D01*
X84727787Y-72309501D01*
X84662017Y-72322581D01*
X84662012Y-72322584D01*
X84587423Y-72372421D01*
X84537583Y-72447012D01*
X84537583Y-72447014D01*
X84524501Y-72512787D01*
X84524500Y-72512791D01*
X84524500Y-73883278D01*
X84503205Y-73948816D01*
X84491842Y-73962120D01*
X82613617Y-75840346D01*
X81049438Y-77404525D01*
X81018686Y-77435277D01*
X80979524Y-77474438D01*
X80979522Y-77474441D01*
X80930090Y-77560061D01*
X80930089Y-77560067D01*
X80907425Y-77644650D01*
X80907424Y-77644654D01*
X80904500Y-77655564D01*
X80904500Y-96680007D01*
X80883205Y-96745545D01*
X80827455Y-96786050D01*
X80758545Y-96786050D01*
X80731054Y-96772716D01*
X80632386Y-96706789D01*
X80518558Y-96659639D01*
X80518553Y-96659637D01*
X80488340Y-96653627D01*
X80397706Y-96635600D01*
X80274494Y-96635600D01*
X80201986Y-96650022D01*
X80153646Y-96659637D01*
X80153641Y-96659639D01*
X80039813Y-96706789D01*
X79937367Y-96775241D01*
X79937364Y-96775243D01*
X79850243Y-96862364D01*
X79850241Y-96862367D01*
X79781789Y-96964813D01*
X79734639Y-97078641D01*
X79734637Y-97078646D01*
X79734637Y-97078648D01*
X79710600Y-97199494D01*
X79710600Y-97322706D01*
X79728627Y-97413340D01*
X79734637Y-97443553D01*
X79734639Y-97443558D01*
X79781789Y-97557386D01*
X79850241Y-97659832D01*
X79850243Y-97659835D01*
X79927942Y-97737534D01*
X79959227Y-97798934D01*
X79960600Y-97816376D01*
X79960600Y-141297464D01*
X79960600Y-141396336D01*
X79962590Y-141403763D01*
X79972769Y-141441750D01*
X79986190Y-141491839D01*
X80035624Y-141577461D01*
X80884542Y-142426379D01*
X80915827Y-142487779D01*
X80917200Y-142505221D01*
X80917200Y-145931520D01*
X80895905Y-145997058D01*
X80840155Y-146037563D01*
X80806077Y-146043019D01*
X79261718Y-146048237D01*
X79247130Y-146047329D01*
X79139243Y-146033465D01*
X79111046Y-146025994D01*
X79017277Y-145987432D01*
X78991987Y-145972907D01*
X78911427Y-145911343D01*
X78890772Y-145890757D01*
X78828939Y-145810408D01*
X78814331Y-145785173D01*
X78775449Y-145691527D01*
X78767884Y-145663350D01*
X78766857Y-145655561D01*
X78765900Y-145640986D01*
X78765900Y-133943134D01*
X78767273Y-133925693D01*
X78773675Y-133885270D01*
X78784453Y-133852095D01*
X78837312Y-133748353D01*
X78857812Y-133720138D01*
X78940138Y-133637812D01*
X78968353Y-133617312D01*
X79072095Y-133564453D01*
X79105268Y-133553675D01*
X79125509Y-133550469D01*
X79145693Y-133547273D01*
X79163134Y-133545900D01*
X79728169Y-133545900D01*
X79735900Y-133538169D01*
X79735900Y-127777231D01*
X79728169Y-127769500D01*
X79728168Y-127769500D01*
X79163134Y-127769500D01*
X79145692Y-127768127D01*
X79127440Y-127765236D01*
X79105267Y-127761724D01*
X79072091Y-127750944D01*
X78968357Y-127698089D01*
X78940135Y-127677584D01*
X78857815Y-127595264D01*
X78837310Y-127567042D01*
X78784454Y-127463306D01*
X78773675Y-127430129D01*
X78767273Y-127389705D01*
X78765900Y-127372264D01*
X78765900Y-119443134D01*
X78767273Y-119425693D01*
X78773675Y-119385270D01*
X78784453Y-119352095D01*
X78837312Y-119248353D01*
X78857812Y-119220138D01*
X78940138Y-119137812D01*
X78968353Y-119117312D01*
X79072095Y-119064453D01*
X79105268Y-119053675D01*
X79125509Y-119050469D01*
X79145693Y-119047273D01*
X79163134Y-119045900D01*
X79728169Y-119045900D01*
X79735900Y-119038169D01*
X79735900Y-113427231D01*
X79728169Y-113419500D01*
X79728168Y-113419500D01*
X79163134Y-113419500D01*
X79145692Y-113418127D01*
X79127440Y-113415236D01*
X79105267Y-113411724D01*
X79072091Y-113400944D01*
X78968357Y-113348089D01*
X78940135Y-113327584D01*
X78857815Y-113245264D01*
X78837310Y-113217042D01*
X78830998Y-113204653D01*
X78784454Y-113113306D01*
X78773675Y-113080129D01*
X78767273Y-113039705D01*
X78765900Y-113022264D01*
X78765900Y-71539742D01*
X78766852Y-71525201D01*
X78767820Y-71517847D01*
X78775352Y-71489731D01*
X78814071Y-71396257D01*
X78828620Y-71371057D01*
X78890215Y-71290786D01*
X78910786Y-71270215D01*
X78991057Y-71208620D01*
X79016258Y-71194071D01*
X79109731Y-71155352D01*
X79137851Y-71147819D01*
X79145204Y-71146852D01*
X79159743Y-71145900D01*
X118966924Y-71145900D01*
X118981515Y-71146859D01*
G37*
%TD.AperFunction*%
%TA.AperFunction,Conductor*%
G36*
X86835438Y-121652837D02*
G01*
X86863661Y-121673343D01*
X87655442Y-122465124D01*
X87686727Y-122526524D01*
X87688100Y-122543966D01*
X87688100Y-137351051D01*
X87666805Y-137416589D01*
X87611055Y-137457094D01*
X87542145Y-137457094D01*
X87533931Y-137454064D01*
X87456853Y-137422137D01*
X87426640Y-137416127D01*
X87336006Y-137398100D01*
X87212794Y-137398100D01*
X87140286Y-137412522D01*
X87091946Y-137422137D01*
X87091941Y-137422139D01*
X86978113Y-137469289D01*
X86875667Y-137537741D01*
X86875664Y-137537743D01*
X86788543Y-137624864D01*
X86788541Y-137624867D01*
X86720089Y-137727313D01*
X86672939Y-137841141D01*
X86672937Y-137841146D01*
X86672937Y-137841148D01*
X86648900Y-137961994D01*
X86648900Y-138085206D01*
X86663404Y-138158124D01*
X86672937Y-138206053D01*
X86672939Y-138206058D01*
X86720089Y-138319886D01*
X86788541Y-138422332D01*
X86788543Y-138422335D01*
X86866242Y-138500034D01*
X86897527Y-138561434D01*
X86898900Y-138578876D01*
X86898900Y-138888679D01*
X86877605Y-138954217D01*
X86866242Y-138967521D01*
X84961038Y-140872725D01*
X84926081Y-140907682D01*
X84891124Y-140942638D01*
X84891122Y-140942641D01*
X84841690Y-141028261D01*
X84841689Y-141028267D01*
X84816837Y-141121016D01*
X84816832Y-141121034D01*
X84816100Y-141123764D01*
X84816100Y-143460678D01*
X84794805Y-143526216D01*
X84783441Y-143539520D01*
X83602138Y-144720825D01*
X83567181Y-144755782D01*
X83532224Y-144790738D01*
X83482790Y-144876360D01*
X83457200Y-144971866D01*
X83457200Y-145922938D01*
X83435905Y-145988476D01*
X83380155Y-146028981D01*
X83346077Y-146034437D01*
X81780077Y-146039728D01*
X81714467Y-146018655D01*
X81673774Y-145963042D01*
X81668200Y-145928229D01*
X81668200Y-142254066D01*
X81668199Y-142254061D01*
X81662432Y-142232537D01*
X81662432Y-142232538D01*
X81642611Y-142158563D01*
X81593175Y-142072937D01*
X81593171Y-142072932D01*
X80744258Y-141224019D01*
X80712973Y-141162619D01*
X80711600Y-141145177D01*
X80711600Y-139470047D01*
X80732895Y-139404509D01*
X80788645Y-139364004D01*
X80857555Y-139364004D01*
X80913305Y-139404509D01*
X80919403Y-139413852D01*
X80926933Y-139426756D01*
X80930090Y-139438538D01*
X80979525Y-139524162D01*
X80979526Y-139524163D01*
X80989720Y-139534357D01*
X81587042Y-140131679D01*
X81618327Y-140193079D01*
X81619700Y-140210521D01*
X81619700Y-140320406D01*
X81637727Y-140411040D01*
X81643737Y-140441253D01*
X81643739Y-140441258D01*
X81690889Y-140555086D01*
X81759341Y-140657532D01*
X81759343Y-140657535D01*
X81846464Y-140744656D01*
X81846467Y-140744658D01*
X81948914Y-140813111D01*
X82062748Y-140860263D01*
X82183594Y-140884300D01*
X82183597Y-140884300D01*
X82306803Y-140884300D01*
X82306806Y-140884300D01*
X82427652Y-140860263D01*
X82541486Y-140813111D01*
X82643933Y-140744658D01*
X82731058Y-140657533D01*
X82799511Y-140555086D01*
X82846663Y-140441252D01*
X82870700Y-140320406D01*
X82870700Y-140230474D01*
X82891995Y-140164936D01*
X82947745Y-140124431D01*
X83016655Y-140124431D01*
X83044147Y-140137766D01*
X83066512Y-140152710D01*
X83066513Y-140152710D01*
X83066514Y-140152711D01*
X83180348Y-140199863D01*
X83301194Y-140223900D01*
X83301197Y-140223900D01*
X83418741Y-140223900D01*
X83484279Y-140245195D01*
X83524784Y-140300945D01*
X83524784Y-140369855D01*
X83515303Y-140391150D01*
X83470090Y-140469460D01*
X83444500Y-140564966D01*
X83444500Y-141532324D01*
X83423205Y-141597862D01*
X83411842Y-141611166D01*
X83334143Y-141688864D01*
X83334141Y-141688867D01*
X83265689Y-141791313D01*
X83218539Y-141905141D01*
X83218537Y-141905146D01*
X83218537Y-141905148D01*
X83194500Y-142025994D01*
X83194500Y-142149206D01*
X83211075Y-142232537D01*
X83218537Y-142270053D01*
X83218539Y-142270058D01*
X83265689Y-142383886D01*
X83334141Y-142486332D01*
X83334143Y-142486335D01*
X83421264Y-142573456D01*
X83421267Y-142573458D01*
X83523714Y-142641911D01*
X83637548Y-142689063D01*
X83758394Y-142713100D01*
X83758397Y-142713100D01*
X83881603Y-142713100D01*
X83881606Y-142713100D01*
X84002452Y-142689063D01*
X84116286Y-142641911D01*
X84218733Y-142573458D01*
X84305858Y-142486333D01*
X84374311Y-142383886D01*
X84421463Y-142270052D01*
X84445500Y-142149206D01*
X84445500Y-142025994D01*
X84421463Y-141905148D01*
X84374311Y-141791314D01*
X84305858Y-141688867D01*
X84305856Y-141688864D01*
X84228158Y-141611166D01*
X84196873Y-141549766D01*
X84195500Y-141532324D01*
X84195500Y-140816121D01*
X84216795Y-140750583D01*
X84228158Y-140737279D01*
X85900470Y-139064967D01*
X85900474Y-139064963D01*
X85939749Y-138996937D01*
X85949910Y-138979338D01*
X85975500Y-138883835D01*
X85975500Y-122729062D01*
X85996795Y-122663524D01*
X86036379Y-122629715D01*
X86163685Y-122564850D01*
X86300641Y-122465346D01*
X86420346Y-122345641D01*
X86519850Y-122208685D01*
X86596705Y-122057849D01*
X86649018Y-121896847D01*
X86674692Y-121734741D01*
X86705976Y-121673343D01*
X86767376Y-121642058D01*
X86835438Y-121652837D01*
G37*
%TD.AperFunction*%
%TA.AperFunction,Conductor*%
G36*
X87627220Y-139377574D02*
G01*
X87675947Y-139426301D01*
X87688100Y-139476921D01*
X87688100Y-141016633D01*
X87666805Y-141082171D01*
X87655442Y-141095475D01*
X86079533Y-142671383D01*
X86079529Y-142671388D01*
X86055447Y-142713100D01*
X86033387Y-142751309D01*
X86009500Y-142840457D01*
X86009500Y-143999116D01*
X85988205Y-144064654D01*
X85965052Y-144086914D01*
X85965504Y-144087465D01*
X85961269Y-144090940D01*
X85874140Y-144178068D01*
X85805689Y-144280513D01*
X85758539Y-144394341D01*
X85758537Y-144394346D01*
X85752440Y-144425000D01*
X85734500Y-144515194D01*
X85734500Y-144638406D01*
X85750894Y-144720825D01*
X85758537Y-144759253D01*
X85758539Y-144759258D01*
X85805689Y-144873086D01*
X85874141Y-144975532D01*
X85874143Y-144975535D01*
X85961264Y-145062656D01*
X85961267Y-145062658D01*
X86063714Y-145131111D01*
X86177548Y-145178263D01*
X86298394Y-145202300D01*
X86298397Y-145202300D01*
X86421603Y-145202300D01*
X86421606Y-145202300D01*
X86542452Y-145178263D01*
X86554880Y-145173114D01*
X86623576Y-145167705D01*
X86682334Y-145203708D01*
X86708708Y-145267372D01*
X86692624Y-145334380D01*
X86676394Y-145354968D01*
X86144122Y-145887240D01*
X86144112Y-145887250D01*
X86142138Y-145889225D01*
X86072225Y-145959138D01*
X86060132Y-145980083D01*
X86052179Y-145988875D01*
X86032069Y-146000422D01*
X86014838Y-146015936D01*
X85999227Y-146019281D01*
X85992420Y-146023190D01*
X85984804Y-146022371D01*
X85969870Y-146025572D01*
X84410060Y-146030843D01*
X84320077Y-146031147D01*
X84254467Y-146010074D01*
X84213774Y-145954461D01*
X84208200Y-145919648D01*
X84208200Y-145223021D01*
X84229495Y-145157483D01*
X84240858Y-145144179D01*
X84857559Y-144527479D01*
X85492075Y-143892963D01*
X85541511Y-143807337D01*
X85567100Y-143711836D01*
X85567100Y-143612964D01*
X85567100Y-141374921D01*
X85588395Y-141309383D01*
X85599758Y-141296079D01*
X87497758Y-139398079D01*
X87559158Y-139366794D01*
X87627220Y-139377574D01*
G37*
%TD.AperFunction*%
%TA.AperFunction,Conductor*%
G36*
X84702005Y-114618766D02*
G01*
X84779654Y-114725641D01*
X84779657Y-114725644D01*
X84779661Y-114725649D01*
X84899350Y-114845338D01*
X84899355Y-114845342D01*
X84899359Y-114845346D01*
X85036315Y-114944850D01*
X85107724Y-114981235D01*
X85187144Y-115021702D01*
X85187147Y-115021703D01*
X85187151Y-115021705D01*
X85348153Y-115074018D01*
X85348154Y-115074018D01*
X85348157Y-115074019D01*
X85515346Y-115100499D01*
X85515354Y-115100499D01*
X85515356Y-115100500D01*
X85515357Y-115100500D01*
X85684643Y-115100500D01*
X85684644Y-115100500D01*
X85684645Y-115100499D01*
X85684653Y-115100499D01*
X85851842Y-115074019D01*
X85851843Y-115074018D01*
X85851847Y-115074018D01*
X85987732Y-115029865D01*
X86056641Y-115029865D01*
X86101029Y-115057066D01*
X95954121Y-124910158D01*
X95985406Y-124971558D01*
X95974626Y-125039620D01*
X95925899Y-125088347D01*
X95875279Y-125100500D01*
X95449676Y-125100500D01*
X95384138Y-125079205D01*
X95370834Y-125067842D01*
X95293135Y-124990143D01*
X95293132Y-124990141D01*
X95190686Y-124921689D01*
X95076858Y-124874539D01*
X95076853Y-124874537D01*
X95046640Y-124868527D01*
X94956006Y-124850500D01*
X94832794Y-124850500D01*
X94760286Y-124864922D01*
X94711946Y-124874537D01*
X94711941Y-124874539D01*
X94598113Y-124921689D01*
X94495667Y-124990141D01*
X94495664Y-124990143D01*
X94408543Y-125077264D01*
X94408541Y-125077267D01*
X94340089Y-125179713D01*
X94292939Y-125293541D01*
X94292937Y-125293546D01*
X94292937Y-125293548D01*
X94268900Y-125414394D01*
X94268900Y-125537606D01*
X94286688Y-125627033D01*
X94292937Y-125658453D01*
X94292939Y-125658458D01*
X94340089Y-125772286D01*
X94408541Y-125874732D01*
X94408543Y-125874735D01*
X94495664Y-125961856D01*
X94495667Y-125961858D01*
X94598114Y-126030311D01*
X94711948Y-126077463D01*
X94832794Y-126101500D01*
X94832797Y-126101500D01*
X94956003Y-126101500D01*
X94956006Y-126101500D01*
X95076852Y-126077463D01*
X95190686Y-126030311D01*
X95293133Y-125961858D01*
X95293135Y-125961856D01*
X95370834Y-125884158D01*
X95432234Y-125852873D01*
X95449676Y-125851500D01*
X95861079Y-125851500D01*
X95926617Y-125872795D01*
X95939921Y-125884158D01*
X96779814Y-126724051D01*
X96811099Y-126785451D01*
X96800319Y-126853513D01*
X96751592Y-126902240D01*
X96683530Y-126913020D01*
X96669111Y-126909708D01*
X96619942Y-126899928D01*
X96547906Y-126885600D01*
X96424694Y-126885600D01*
X96352186Y-126900022D01*
X96303846Y-126909637D01*
X96303841Y-126909639D01*
X96190013Y-126956789D01*
X96087567Y-127025241D01*
X96087564Y-127025243D01*
X96000443Y-127112364D01*
X96000441Y-127112367D01*
X95931989Y-127214813D01*
X95884839Y-127328641D01*
X95884837Y-127328646D01*
X95872818Y-127389071D01*
X95860800Y-127449494D01*
X95860800Y-127572706D01*
X95878827Y-127663340D01*
X95884837Y-127693553D01*
X95884839Y-127693558D01*
X95931989Y-127807386D01*
X96000441Y-127909832D01*
X96000443Y-127909835D01*
X96087562Y-127996954D01*
X96087568Y-127996959D01*
X96107645Y-128010374D01*
X96150308Y-128064490D01*
X96157200Y-128103083D01*
X96157200Y-145880032D01*
X96135905Y-145945570D01*
X96080155Y-145986075D01*
X96046077Y-145991531D01*
X94480077Y-145996822D01*
X94414467Y-145975749D01*
X94373774Y-145920136D01*
X94368200Y-145885323D01*
X94368200Y-132004073D01*
X94386991Y-131942127D01*
X94429393Y-131878667D01*
X94457511Y-131836586D01*
X94504663Y-131722752D01*
X94528700Y-131601906D01*
X94528700Y-131478694D01*
X94504663Y-131357848D01*
X94457511Y-131244014D01*
X94389058Y-131141567D01*
X94389056Y-131141564D01*
X94301935Y-131054443D01*
X94301932Y-131054441D01*
X94199486Y-130985989D01*
X94085658Y-130938839D01*
X94085653Y-130938837D01*
X94055440Y-130932827D01*
X93964806Y-130914800D01*
X93841594Y-130914800D01*
X93769086Y-130929222D01*
X93720746Y-130938837D01*
X93720741Y-130938839D01*
X93606913Y-130985989D01*
X93504467Y-131054441D01*
X93504464Y-131054443D01*
X93417343Y-131141564D01*
X93417341Y-131141567D01*
X93348889Y-131244013D01*
X93301739Y-131357841D01*
X93301737Y-131357846D01*
X93301737Y-131357848D01*
X93277700Y-131478694D01*
X93277700Y-131601906D01*
X93290267Y-131665086D01*
X93301737Y-131722753D01*
X93301739Y-131722758D01*
X93348889Y-131836586D01*
X93417341Y-131939032D01*
X93417343Y-131939035D01*
X93504466Y-132026158D01*
X93567646Y-132068373D01*
X93610308Y-132122490D01*
X93617200Y-132161082D01*
X93617200Y-145888613D01*
X93595905Y-145954151D01*
X93540155Y-145994656D01*
X93506077Y-146000112D01*
X91940077Y-146005403D01*
X91874467Y-145984330D01*
X91833774Y-145928717D01*
X91828200Y-145893904D01*
X91828200Y-145527821D01*
X91849495Y-145462283D01*
X91860858Y-145448979D01*
X92086816Y-145223021D01*
X92350074Y-144959763D01*
X92350075Y-144959762D01*
X92399510Y-144874138D01*
X92412305Y-144826386D01*
X92425100Y-144778636D01*
X92425100Y-144679764D01*
X92425100Y-133854476D01*
X92446395Y-133788938D01*
X92457758Y-133775634D01*
X92535456Y-133697935D01*
X92535458Y-133697933D01*
X92603911Y-133595486D01*
X92651063Y-133481652D01*
X92675100Y-133360806D01*
X92675100Y-133237594D01*
X92651063Y-133116748D01*
X92603911Y-133002914D01*
X92535458Y-132900467D01*
X92535456Y-132900464D01*
X92448335Y-132813343D01*
X92448332Y-132813341D01*
X92345886Y-132744889D01*
X92232058Y-132697739D01*
X92232053Y-132697737D01*
X92201840Y-132691727D01*
X92111206Y-132673700D01*
X91987994Y-132673700D01*
X91915486Y-132688122D01*
X91867146Y-132697737D01*
X91867141Y-132697739D01*
X91753313Y-132744889D01*
X91650867Y-132813341D01*
X91650864Y-132813343D01*
X91563743Y-132900464D01*
X91563741Y-132900467D01*
X91495289Y-133002913D01*
X91448139Y-133116741D01*
X91448137Y-133116746D01*
X91448137Y-133116748D01*
X91424100Y-133237594D01*
X91424100Y-133360806D01*
X91442127Y-133451440D01*
X91448137Y-133481653D01*
X91448139Y-133481658D01*
X91495289Y-133595486D01*
X91563741Y-133697932D01*
X91563743Y-133697935D01*
X91641442Y-133775634D01*
X91672727Y-133837034D01*
X91674100Y-133854476D01*
X91674100Y-144527479D01*
X91652805Y-144593017D01*
X91641442Y-144606321D01*
X91222138Y-145025625D01*
X91187181Y-145060582D01*
X91152224Y-145095538D01*
X91102790Y-145181160D01*
X91077200Y-145276666D01*
X91077200Y-145897194D01*
X91055905Y-145962732D01*
X91000155Y-146003237D01*
X90966077Y-146008693D01*
X89400077Y-146013984D01*
X89383090Y-146008528D01*
X89365245Y-146008528D01*
X89351105Y-145998255D01*
X89334467Y-145992911D01*
X89323930Y-145978510D01*
X89309495Y-145968023D01*
X89304094Y-145951402D01*
X89293774Y-145937298D01*
X89288200Y-145902485D01*
X89288200Y-145781821D01*
X89309495Y-145716283D01*
X89320858Y-145702979D01*
X91080074Y-143943763D01*
X91080075Y-143943762D01*
X91129510Y-143858138D01*
X91155100Y-143762635D01*
X91155100Y-136343676D01*
X91176395Y-136278138D01*
X91187758Y-136264834D01*
X91265456Y-136187135D01*
X91265458Y-136187133D01*
X91333911Y-136084686D01*
X91381063Y-135970852D01*
X91405100Y-135850006D01*
X91405100Y-135726794D01*
X91381063Y-135605948D01*
X91333911Y-135492114D01*
X91265458Y-135389667D01*
X91265456Y-135389664D01*
X91178335Y-135302543D01*
X91178332Y-135302541D01*
X91075886Y-135234089D01*
X90962058Y-135186939D01*
X90962053Y-135186937D01*
X90931840Y-135180927D01*
X90841206Y-135162900D01*
X90717994Y-135162900D01*
X90645486Y-135177322D01*
X90597146Y-135186937D01*
X90597141Y-135186939D01*
X90483313Y-135234089D01*
X90380867Y-135302541D01*
X90380864Y-135302543D01*
X90293743Y-135389664D01*
X90293741Y-135389667D01*
X90225289Y-135492113D01*
X90178139Y-135605941D01*
X90178137Y-135605946D01*
X90178137Y-135605948D01*
X90154100Y-135726794D01*
X90154100Y-135850006D01*
X90170449Y-135932200D01*
X90178137Y-135970853D01*
X90178139Y-135970858D01*
X90225289Y-136084686D01*
X90293741Y-136187132D01*
X90293743Y-136187135D01*
X90371442Y-136264834D01*
X90402727Y-136326234D01*
X90404100Y-136343676D01*
X90404100Y-140521596D01*
X90382805Y-140587134D01*
X90327055Y-140627639D01*
X90258145Y-140627639D01*
X90230654Y-140614305D01*
X90161486Y-140568089D01*
X90047658Y-140520939D01*
X90047653Y-140520937D01*
X90017440Y-140514927D01*
X89926806Y-140496900D01*
X89803594Y-140496900D01*
X89731086Y-140511322D01*
X89682746Y-140520937D01*
X89682741Y-140520939D01*
X89568913Y-140568089D01*
X89466467Y-140636541D01*
X89466464Y-140636543D01*
X89379343Y-140723664D01*
X89379341Y-140723667D01*
X89310889Y-140826113D01*
X89263739Y-140939941D01*
X89263737Y-140939946D01*
X89263737Y-140939948D01*
X89239700Y-141060794D01*
X89239700Y-141184006D01*
X89253651Y-141254144D01*
X89263737Y-141304853D01*
X89263739Y-141304858D01*
X89310889Y-141418686D01*
X89379341Y-141521132D01*
X89379343Y-141521135D01*
X89457042Y-141598834D01*
X89488327Y-141660234D01*
X89489700Y-141677676D01*
X89489700Y-142495478D01*
X89468405Y-142561016D01*
X89457042Y-142574320D01*
X87138168Y-144893193D01*
X87076768Y-144924478D01*
X87008706Y-144913698D01*
X86959979Y-144864971D01*
X86949199Y-144796909D01*
X86956313Y-144771683D01*
X86961463Y-144759252D01*
X86985500Y-144638406D01*
X86985500Y-144515194D01*
X86961463Y-144394348D01*
X86914311Y-144280514D01*
X86845858Y-144178067D01*
X86758733Y-144090942D01*
X86758729Y-144090939D01*
X86754496Y-144087465D01*
X86755577Y-144086147D01*
X86717391Y-144037706D01*
X86710500Y-143999116D01*
X86710500Y-143077966D01*
X86731795Y-143012428D01*
X86743158Y-142999124D01*
X88319066Y-141423216D01*
X88319070Y-141423212D01*
X88365214Y-141343288D01*
X88369113Y-141328737D01*
X88371954Y-141318136D01*
X88379200Y-141291089D01*
X88389100Y-141254144D01*
X88389100Y-122306456D01*
X88365214Y-122217312D01*
X88360233Y-122208685D01*
X88319070Y-122137388D01*
X88319066Y-122137383D01*
X86280814Y-120099132D01*
X86249529Y-120037732D01*
X86260309Y-119969670D01*
X86294122Y-119930082D01*
X86300641Y-119925346D01*
X86420346Y-119805641D01*
X86519850Y-119668685D01*
X86596705Y-119517849D01*
X86649018Y-119356847D01*
X86666202Y-119248353D01*
X86675499Y-119189653D01*
X86675500Y-119189642D01*
X86675500Y-119020357D01*
X86675499Y-119020346D01*
X86649019Y-118853157D01*
X86649017Y-118853151D01*
X86596705Y-118692151D01*
X86596703Y-118692147D01*
X86596702Y-118692144D01*
X86542680Y-118586121D01*
X86519850Y-118541315D01*
X86420346Y-118404359D01*
X86420342Y-118404355D01*
X86420338Y-118404350D01*
X86416830Y-118400842D01*
X86404977Y-118377580D01*
X86389629Y-118356455D01*
X86389629Y-118347457D01*
X86385545Y-118339442D01*
X86389629Y-118313656D01*
X86389629Y-118287545D01*
X86394917Y-118280265D01*
X86396325Y-118271380D01*
X86414787Y-118252917D01*
X86430134Y-118231795D01*
X86438690Y-118229014D01*
X86445052Y-118222653D01*
X86495672Y-118210500D01*
X86594479Y-118210500D01*
X86660017Y-118231795D01*
X86673321Y-118243158D01*
X89304642Y-120874479D01*
X89335927Y-120935879D01*
X89337300Y-120953321D01*
X89337300Y-124306233D01*
X89337299Y-124306233D01*
X89337300Y-124306235D01*
X89362890Y-124401738D01*
X89362891Y-124401739D01*
X89362890Y-124401739D01*
X89412324Y-124487361D01*
X94892642Y-129967679D01*
X94923927Y-130029079D01*
X94925300Y-130046521D01*
X94925300Y-140516324D01*
X94904005Y-140581862D01*
X94892642Y-140595166D01*
X94814943Y-140672864D01*
X94814941Y-140672867D01*
X94746489Y-140775313D01*
X94699339Y-140889141D01*
X94699337Y-140889146D01*
X94688697Y-140942641D01*
X94675300Y-141009994D01*
X94675300Y-141133206D01*
X94686868Y-141191362D01*
X94699337Y-141254053D01*
X94699339Y-141254058D01*
X94746489Y-141367886D01*
X94814941Y-141470332D01*
X94814943Y-141470335D01*
X94902064Y-141557456D01*
X94902067Y-141557458D01*
X95004514Y-141625911D01*
X95118348Y-141673063D01*
X95239194Y-141697100D01*
X95239197Y-141697100D01*
X95362403Y-141697100D01*
X95362406Y-141697100D01*
X95483252Y-141673063D01*
X95597086Y-141625911D01*
X95699533Y-141557458D01*
X95786658Y-141470333D01*
X95855111Y-141367886D01*
X95902263Y-141254052D01*
X95926300Y-141133206D01*
X95926300Y-141009994D01*
X95902263Y-140889148D01*
X95855111Y-140775314D01*
X95786658Y-140672867D01*
X95786656Y-140672864D01*
X95708958Y-140595166D01*
X95677673Y-140533766D01*
X95676300Y-140516324D01*
X95676300Y-129795366D01*
X95676300Y-129795365D01*
X95650710Y-129699862D01*
X95601275Y-129614238D01*
X95531362Y-129544325D01*
X90120958Y-124133921D01*
X90089673Y-124072521D01*
X90088300Y-124055079D01*
X90088300Y-120702166D01*
X90088300Y-120702165D01*
X90062710Y-120606662D01*
X90013275Y-120521038D01*
X89943362Y-120451125D01*
X87026763Y-117534526D01*
X87026762Y-117534525D01*
X86941138Y-117485090D01*
X86893386Y-117472295D01*
X86882618Y-117469409D01*
X86882615Y-117469408D01*
X86845639Y-117459500D01*
X86845636Y-117459500D01*
X86845635Y-117459500D01*
X86495672Y-117459500D01*
X86430134Y-117438205D01*
X86389629Y-117382455D01*
X86389629Y-117313545D01*
X86416830Y-117269158D01*
X86420338Y-117265649D01*
X86420346Y-117265641D01*
X86519850Y-117128685D01*
X86596705Y-116977849D01*
X86649018Y-116816847D01*
X86665155Y-116714962D01*
X86675499Y-116649653D01*
X86675500Y-116649642D01*
X86675500Y-116480357D01*
X86675499Y-116480346D01*
X86649019Y-116313157D01*
X86649017Y-116313151D01*
X86639116Y-116282678D01*
X86596705Y-116152151D01*
X86596703Y-116152147D01*
X86596702Y-116152144D01*
X86556235Y-116072724D01*
X86519850Y-116001315D01*
X86420346Y-115864359D01*
X86420342Y-115864355D01*
X86420338Y-115864350D01*
X86300649Y-115744661D01*
X86300644Y-115744657D01*
X86300641Y-115744654D01*
X86243492Y-115703133D01*
X86163690Y-115645153D01*
X86163683Y-115645149D01*
X86012855Y-115568297D01*
X86012849Y-115568295D01*
X85851848Y-115515982D01*
X85851842Y-115515980D01*
X85684653Y-115489500D01*
X85684644Y-115489500D01*
X85515356Y-115489500D01*
X85515346Y-115489500D01*
X85348157Y-115515980D01*
X85348151Y-115515982D01*
X85187150Y-115568295D01*
X85187144Y-115568297D01*
X85036316Y-115645149D01*
X85036309Y-115645153D01*
X84899360Y-115744653D01*
X84899350Y-115744661D01*
X84779661Y-115864350D01*
X84779653Y-115864360D01*
X84702005Y-115971233D01*
X84646255Y-116011738D01*
X84577344Y-116011738D01*
X84521594Y-115971233D01*
X84500300Y-115905695D01*
X84500300Y-114684304D01*
X84521595Y-114618766D01*
X84577345Y-114578261D01*
X84646255Y-114578261D01*
X84702005Y-114618766D01*
G37*
%TD.AperFunction*%
%TA.AperFunction,Conductor*%
G36*
X97261800Y-127207524D02*
G01*
X97273348Y-127217585D01*
X98664542Y-128608779D01*
X98695827Y-128670179D01*
X98697200Y-128687621D01*
X98697200Y-145871450D01*
X98675905Y-145936988D01*
X98620155Y-145977493D01*
X98586077Y-145982949D01*
X97020077Y-145988240D01*
X96954467Y-145967167D01*
X96913774Y-145911554D01*
X96908200Y-145876741D01*
X96908200Y-128019975D01*
X96929495Y-127954437D01*
X96940853Y-127941137D01*
X96972158Y-127909833D01*
X97040611Y-127807386D01*
X97087763Y-127693552D01*
X97111800Y-127572706D01*
X97111800Y-127449494D01*
X97087763Y-127328648D01*
X97087762Y-127328646D01*
X97086694Y-127323275D01*
X97087921Y-127323030D01*
X97089159Y-127259899D01*
X97130749Y-127204954D01*
X97196692Y-127184948D01*
X97261800Y-127207524D01*
G37*
%TD.AperFunction*%
%TA.AperFunction,Conductor*%
G36*
X99638542Y-128594579D02*
G01*
X103744542Y-132700579D01*
X103775827Y-132761979D01*
X103777200Y-132779421D01*
X103777200Y-145854288D01*
X103755905Y-145919826D01*
X103700155Y-145960331D01*
X103666077Y-145965787D01*
X102100077Y-145971078D01*
X102034467Y-145950005D01*
X101993774Y-145894392D01*
X101988200Y-145859579D01*
X101988200Y-144867121D01*
X102009495Y-144801583D01*
X102020858Y-144788279D01*
X102351479Y-144457658D01*
X102412879Y-144426373D01*
X102430321Y-144425000D01*
X102540203Y-144425000D01*
X102540206Y-144425000D01*
X102661052Y-144400963D01*
X102774886Y-144353811D01*
X102877333Y-144285358D01*
X102964458Y-144198233D01*
X103032911Y-144095786D01*
X103080063Y-143981952D01*
X103104100Y-143861106D01*
X103104100Y-143737894D01*
X103080063Y-143617048D01*
X103032911Y-143503214D01*
X102964458Y-143400767D01*
X102964456Y-143400764D01*
X102877335Y-143313643D01*
X102877332Y-143313641D01*
X102774886Y-143245189D01*
X102661058Y-143198039D01*
X102661053Y-143198037D01*
X102630840Y-143192027D01*
X102540206Y-143174000D01*
X102416994Y-143174000D01*
X102344486Y-143188422D01*
X102296146Y-143198037D01*
X102296141Y-143198039D01*
X102182313Y-143245189D01*
X102079867Y-143313641D01*
X102079864Y-143313643D01*
X101992743Y-143400764D01*
X101992741Y-143400767D01*
X101924289Y-143503213D01*
X101877139Y-143617041D01*
X101877137Y-143617046D01*
X101877137Y-143617048D01*
X101858284Y-143711834D01*
X101853100Y-143737896D01*
X101853100Y-143847778D01*
X101831805Y-143913316D01*
X101820441Y-143926620D01*
X101382138Y-144364925D01*
X101352722Y-144394341D01*
X101312224Y-144434838D01*
X101312222Y-144434841D01*
X101262790Y-144520461D01*
X101262789Y-144520467D01*
X101245696Y-144584260D01*
X101245695Y-144584263D01*
X101237200Y-144615963D01*
X101237200Y-145862869D01*
X101215905Y-145928407D01*
X101160155Y-145968912D01*
X101126077Y-145974368D01*
X99560077Y-145979659D01*
X99494467Y-145958586D01*
X99453774Y-145902973D01*
X99448200Y-145868160D01*
X99448200Y-128673421D01*
X99469495Y-128607883D01*
X99525245Y-128567378D01*
X99594155Y-128567378D01*
X99638542Y-128594579D01*
G37*
%TD.AperFunction*%
%TA.AperFunction,Conductor*%
G36*
X87050847Y-108388824D02*
G01*
X87064151Y-108400188D01*
X90078142Y-111414179D01*
X90109427Y-111475579D01*
X90110800Y-111493021D01*
X90110800Y-113649733D01*
X90110799Y-113649733D01*
X90110800Y-113649735D01*
X90136390Y-113745238D01*
X90136391Y-113745239D01*
X90136390Y-113745239D01*
X90185824Y-113830861D01*
X106926913Y-130571950D01*
X106958198Y-130633350D01*
X106947418Y-130701412D01*
X106898691Y-130750139D01*
X106830629Y-130760919D01*
X106826320Y-130760150D01*
X106805849Y-130756078D01*
X106741606Y-130743300D01*
X106618394Y-130743300D01*
X106545886Y-130757722D01*
X106497546Y-130767337D01*
X106497541Y-130767339D01*
X106383713Y-130814489D01*
X106281267Y-130882941D01*
X106281264Y-130882943D01*
X106194143Y-130970064D01*
X106194141Y-130970067D01*
X106125689Y-131072513D01*
X106078539Y-131186341D01*
X106078537Y-131186346D01*
X106078537Y-131186348D01*
X106054500Y-131307194D01*
X106054500Y-131430406D01*
X106064105Y-131478694D01*
X106078537Y-131551253D01*
X106078539Y-131551258D01*
X106125689Y-131665086D01*
X106194141Y-131767532D01*
X106194143Y-131767535D01*
X106284542Y-131857934D01*
X106315827Y-131919334D01*
X106317200Y-131936776D01*
X106317200Y-145845707D01*
X106295905Y-145911245D01*
X106240155Y-145951750D01*
X106206077Y-145957206D01*
X104640077Y-145962497D01*
X104574467Y-145941424D01*
X104533774Y-145885811D01*
X104528200Y-145850998D01*
X104528200Y-132528266D01*
X104528200Y-132528265D01*
X104502610Y-132432762D01*
X104453175Y-132347138D01*
X104383262Y-132277225D01*
X86632066Y-114526029D01*
X86600781Y-114464629D01*
X86604865Y-114412732D01*
X86649018Y-114276847D01*
X86675500Y-114109644D01*
X86675500Y-113940356D01*
X86675499Y-113940354D01*
X86675499Y-113940346D01*
X86649019Y-113773157D01*
X86649017Y-113773151D01*
X86639948Y-113745239D01*
X86596705Y-113612151D01*
X86596703Y-113612147D01*
X86596702Y-113612144D01*
X86528056Y-113477421D01*
X86519850Y-113461315D01*
X86508650Y-113445900D01*
X86450378Y-113365695D01*
X86420346Y-113324359D01*
X86420342Y-113324355D01*
X86420338Y-113324350D01*
X86300649Y-113204661D01*
X86300644Y-113204657D01*
X86300641Y-113204654D01*
X86206909Y-113136554D01*
X86163690Y-113105153D01*
X86163683Y-113105149D01*
X86012855Y-113028297D01*
X86012849Y-113028295D01*
X85851848Y-112975982D01*
X85851842Y-112975980D01*
X85684653Y-112949500D01*
X85684644Y-112949500D01*
X85515356Y-112949500D01*
X85515346Y-112949500D01*
X85348157Y-112975980D01*
X85348151Y-112975982D01*
X85187150Y-113028295D01*
X85187144Y-113028297D01*
X85036316Y-113105149D01*
X85036309Y-113105153D01*
X84899360Y-113204653D01*
X84899350Y-113204661D01*
X84779661Y-113324350D01*
X84779653Y-113324360D01*
X84702005Y-113431233D01*
X84646255Y-113471738D01*
X84577344Y-113471738D01*
X84521594Y-113431233D01*
X84500300Y-113365695D01*
X84500300Y-112144304D01*
X84521595Y-112078766D01*
X84577345Y-112038261D01*
X84646255Y-112038261D01*
X84702005Y-112078766D01*
X84779654Y-112185641D01*
X84779655Y-112185642D01*
X84779661Y-112185649D01*
X84899350Y-112305338D01*
X84899355Y-112305342D01*
X84899359Y-112305346D01*
X84990998Y-112371925D01*
X85028254Y-112398994D01*
X85036315Y-112404850D01*
X85107724Y-112441235D01*
X85187144Y-112481702D01*
X85187147Y-112481703D01*
X85187151Y-112481705D01*
X85348153Y-112534018D01*
X85348154Y-112534018D01*
X85348157Y-112534019D01*
X85515346Y-112560499D01*
X85515354Y-112560499D01*
X85515356Y-112560500D01*
X85515357Y-112560500D01*
X85684643Y-112560500D01*
X85684644Y-112560500D01*
X85684645Y-112560499D01*
X85684653Y-112560499D01*
X85851842Y-112534019D01*
X85851843Y-112534018D01*
X85851847Y-112534018D01*
X86012849Y-112481705D01*
X86163685Y-112404850D01*
X86300641Y-112305346D01*
X86420346Y-112185641D01*
X86519850Y-112048685D01*
X86596705Y-111897849D01*
X86649018Y-111736847D01*
X86649019Y-111736842D01*
X86675499Y-111569653D01*
X86675500Y-111569642D01*
X86675500Y-111400357D01*
X86675499Y-111400346D01*
X86649019Y-111233157D01*
X86649017Y-111233151D01*
X86620817Y-111146361D01*
X86596705Y-111072151D01*
X86596703Y-111072147D01*
X86596702Y-111072144D01*
X86548802Y-110978137D01*
X86519850Y-110921315D01*
X86504027Y-110899537D01*
X86450378Y-110825695D01*
X86420346Y-110784359D01*
X86420342Y-110784355D01*
X86420338Y-110784350D01*
X86300649Y-110664661D01*
X86300644Y-110664657D01*
X86300641Y-110664654D01*
X86239448Y-110620195D01*
X86163690Y-110565153D01*
X86163683Y-110565149D01*
X86012855Y-110488297D01*
X86012841Y-110488292D01*
X85942248Y-110465354D01*
X85886499Y-110424849D01*
X85865205Y-110359311D01*
X85886500Y-110293773D01*
X85942250Y-110253269D01*
X86118217Y-110196094D01*
X86118226Y-110196091D01*
X86307552Y-110099623D01*
X86307559Y-110099619D01*
X86479464Y-109974722D01*
X86479474Y-109974714D01*
X86629714Y-109824474D01*
X86629722Y-109824464D01*
X86754619Y-109652559D01*
X86754623Y-109652552D01*
X86851091Y-109463226D01*
X86851094Y-109463217D01*
X86916756Y-109261131D01*
X86916759Y-109261121D01*
X86927231Y-109195000D01*
X86033012Y-109195000D01*
X86065925Y-109137993D01*
X86100000Y-109010826D01*
X86100000Y-108879174D01*
X86065925Y-108752007D01*
X86033012Y-108695000D01*
X86927231Y-108695000D01*
X86916759Y-108628878D01*
X86916757Y-108628872D01*
X86879266Y-108513486D01*
X86879266Y-108444575D01*
X86919771Y-108388825D01*
X86985309Y-108367530D01*
X87050847Y-108388824D01*
G37*
%TD.AperFunction*%
%TA.AperFunction,Conductor*%
G36*
X84702005Y-99378766D02*
G01*
X84779654Y-99485641D01*
X84779657Y-99485644D01*
X84779661Y-99485649D01*
X84899350Y-99605338D01*
X84899355Y-99605342D01*
X84899359Y-99605346D01*
X85036315Y-99704850D01*
X85092373Y-99733413D01*
X85187144Y-99781702D01*
X85187147Y-99781703D01*
X85187151Y-99781705D01*
X85348153Y-99834018D01*
X85348154Y-99834018D01*
X85348157Y-99834019D01*
X85515346Y-99860499D01*
X85515354Y-99860499D01*
X85515356Y-99860500D01*
X85515357Y-99860500D01*
X85684643Y-99860500D01*
X85684644Y-99860500D01*
X85684645Y-99860499D01*
X85684653Y-99860499D01*
X85851842Y-99834019D01*
X85851843Y-99834018D01*
X85851847Y-99834018D01*
X85987732Y-99789865D01*
X86056641Y-99789865D01*
X86101029Y-99817066D01*
X97229442Y-110945479D01*
X97260727Y-111006879D01*
X97262100Y-111024321D01*
X97262100Y-118819839D01*
X97272008Y-118856815D01*
X97272009Y-118856818D01*
X97274895Y-118867586D01*
X97287690Y-118915338D01*
X97337125Y-119000962D01*
X97337126Y-119000963D01*
X97350026Y-119013863D01*
X111364542Y-133028379D01*
X111395827Y-133089779D01*
X111397200Y-133107221D01*
X111397200Y-145828544D01*
X111375905Y-145894082D01*
X111320155Y-145934587D01*
X111286077Y-145940043D01*
X109720077Y-145945334D01*
X109654467Y-145924261D01*
X109613774Y-145868648D01*
X109608200Y-145833835D01*
X109608200Y-132297266D01*
X109608200Y-132297265D01*
X109582610Y-132201762D01*
X109533175Y-132116138D01*
X109463262Y-132046225D01*
X90894458Y-113477421D01*
X90863173Y-113416021D01*
X90861800Y-113398579D01*
X90861800Y-111241867D01*
X90861800Y-111241865D01*
X90859466Y-111233153D01*
X90836211Y-111146363D01*
X90786775Y-111060737D01*
X90786771Y-111060732D01*
X86632066Y-106906029D01*
X86600781Y-106844629D01*
X86604865Y-106792732D01*
X86649018Y-106656847D01*
X86675500Y-106489644D01*
X86675500Y-106320356D01*
X86675499Y-106320354D01*
X86675499Y-106320346D01*
X86649019Y-106153157D01*
X86649017Y-106153151D01*
X86596705Y-105992151D01*
X86596703Y-105992147D01*
X86596702Y-105992144D01*
X86556235Y-105912724D01*
X86519850Y-105841315D01*
X86420346Y-105704359D01*
X86420342Y-105704355D01*
X86420338Y-105704350D01*
X86300649Y-105584661D01*
X86300644Y-105584657D01*
X86300641Y-105584654D01*
X86243492Y-105543133D01*
X86163690Y-105485153D01*
X86163683Y-105485149D01*
X86012855Y-105408297D01*
X86012849Y-105408295D01*
X85851848Y-105355982D01*
X85851842Y-105355980D01*
X85684653Y-105329500D01*
X85684644Y-105329500D01*
X85515356Y-105329500D01*
X85515346Y-105329500D01*
X85348157Y-105355980D01*
X85348151Y-105355982D01*
X85187150Y-105408295D01*
X85187144Y-105408297D01*
X85036316Y-105485149D01*
X85036309Y-105485153D01*
X84899360Y-105584653D01*
X84899350Y-105584661D01*
X84779661Y-105704350D01*
X84779653Y-105704360D01*
X84702005Y-105811233D01*
X84646255Y-105851738D01*
X84577344Y-105851738D01*
X84521594Y-105811233D01*
X84500300Y-105745695D01*
X84500300Y-104524304D01*
X84521595Y-104458766D01*
X84577345Y-104418261D01*
X84646255Y-104418261D01*
X84702005Y-104458766D01*
X84779654Y-104565641D01*
X84779657Y-104565644D01*
X84779661Y-104565649D01*
X84899350Y-104685338D01*
X84899355Y-104685342D01*
X84899359Y-104685346D01*
X85036315Y-104784850D01*
X85107724Y-104821235D01*
X85187144Y-104861702D01*
X85187147Y-104861703D01*
X85187151Y-104861705D01*
X85348153Y-104914018D01*
X85348154Y-104914018D01*
X85348157Y-104914019D01*
X85515346Y-104940499D01*
X85515354Y-104940499D01*
X85515356Y-104940500D01*
X85515357Y-104940500D01*
X85684643Y-104940500D01*
X85684644Y-104940500D01*
X85684645Y-104940499D01*
X85684653Y-104940499D01*
X85851842Y-104914019D01*
X85851843Y-104914018D01*
X85851847Y-104914018D01*
X86012849Y-104861705D01*
X86163685Y-104784850D01*
X86300641Y-104685346D01*
X86420346Y-104565641D01*
X86519850Y-104428685D01*
X86596705Y-104277849D01*
X86649018Y-104116847D01*
X86675500Y-103949644D01*
X86675500Y-103780356D01*
X86675499Y-103780354D01*
X86675499Y-103780346D01*
X86649019Y-103613157D01*
X86649017Y-103613151D01*
X86629039Y-103551665D01*
X86596705Y-103452151D01*
X86596703Y-103452147D01*
X86596702Y-103452144D01*
X86556235Y-103372724D01*
X86519850Y-103301315D01*
X86420346Y-103164359D01*
X86420342Y-103164355D01*
X86420338Y-103164350D01*
X86300649Y-103044661D01*
X86300644Y-103044657D01*
X86300641Y-103044654D01*
X86243492Y-103003133D01*
X86163690Y-102945153D01*
X86163683Y-102945149D01*
X86012855Y-102868297D01*
X86012849Y-102868295D01*
X85851848Y-102815982D01*
X85851842Y-102815980D01*
X85684653Y-102789500D01*
X85684644Y-102789500D01*
X85515356Y-102789500D01*
X85515346Y-102789500D01*
X85348157Y-102815980D01*
X85348151Y-102815982D01*
X85187150Y-102868295D01*
X85187144Y-102868297D01*
X85036316Y-102945149D01*
X85036309Y-102945153D01*
X84899360Y-103044653D01*
X84899350Y-103044661D01*
X84779661Y-103164350D01*
X84779653Y-103164360D01*
X84702005Y-103271233D01*
X84646255Y-103311738D01*
X84577344Y-103311738D01*
X84521594Y-103271233D01*
X84500300Y-103205695D01*
X84500300Y-101984304D01*
X84521595Y-101918766D01*
X84577345Y-101878261D01*
X84646255Y-101878261D01*
X84702005Y-101918766D01*
X84779654Y-102025641D01*
X84779657Y-102025644D01*
X84779661Y-102025649D01*
X84899350Y-102145338D01*
X84899355Y-102145342D01*
X84899359Y-102145346D01*
X84980728Y-102204464D01*
X85025167Y-102236751D01*
X85036315Y-102244850D01*
X85107724Y-102281235D01*
X85187144Y-102321702D01*
X85187147Y-102321703D01*
X85187151Y-102321705D01*
X85348153Y-102374018D01*
X85348154Y-102374018D01*
X85348157Y-102374019D01*
X85515346Y-102400499D01*
X85515354Y-102400499D01*
X85515356Y-102400500D01*
X85515357Y-102400500D01*
X85684643Y-102400500D01*
X85684644Y-102400500D01*
X85684645Y-102400499D01*
X85684653Y-102400499D01*
X85851842Y-102374019D01*
X85851843Y-102374018D01*
X85851847Y-102374018D01*
X86012849Y-102321705D01*
X86163685Y-102244850D01*
X86300641Y-102145346D01*
X86420346Y-102025641D01*
X86519850Y-101888685D01*
X86596705Y-101737849D01*
X86649018Y-101576847D01*
X86649311Y-101575000D01*
X86675499Y-101409653D01*
X86675500Y-101409642D01*
X86675500Y-101240357D01*
X86675499Y-101240346D01*
X86649019Y-101073157D01*
X86649017Y-101073151D01*
X86631095Y-101017993D01*
X86596705Y-100912151D01*
X86596703Y-100912147D01*
X86596702Y-100912144D01*
X86552299Y-100825000D01*
X86519850Y-100761315D01*
X86420346Y-100624359D01*
X86420342Y-100624355D01*
X86420338Y-100624350D01*
X86300649Y-100504661D01*
X86300644Y-100504657D01*
X86300641Y-100504654D01*
X86240231Y-100460764D01*
X86163690Y-100405153D01*
X86163683Y-100405149D01*
X86012855Y-100328297D01*
X86012849Y-100328295D01*
X85851848Y-100275982D01*
X85851842Y-100275980D01*
X85684653Y-100249500D01*
X85684644Y-100249500D01*
X85515356Y-100249500D01*
X85515346Y-100249500D01*
X85348157Y-100275980D01*
X85348151Y-100275982D01*
X85187150Y-100328295D01*
X85187144Y-100328297D01*
X85036316Y-100405149D01*
X85036309Y-100405153D01*
X84899360Y-100504653D01*
X84899350Y-100504661D01*
X84779661Y-100624350D01*
X84779653Y-100624360D01*
X84702005Y-100731233D01*
X84646255Y-100771738D01*
X84577344Y-100771738D01*
X84521594Y-100731233D01*
X84500300Y-100665695D01*
X84500300Y-99444304D01*
X84521595Y-99378766D01*
X84577345Y-99338261D01*
X84646255Y-99338261D01*
X84702005Y-99378766D01*
G37*
%TD.AperFunction*%
%TA.AperFunction,Conductor*%
G36*
X112338542Y-133037179D02*
G01*
X113904542Y-134603179D01*
X113935827Y-134664579D01*
X113937200Y-134682021D01*
X113937200Y-145819963D01*
X113915905Y-145885501D01*
X113860155Y-145926006D01*
X113826077Y-145931462D01*
X112260077Y-145936753D01*
X112194467Y-145915680D01*
X112153774Y-145860067D01*
X112148200Y-145825254D01*
X112148200Y-133116021D01*
X112169495Y-133050483D01*
X112225245Y-133009978D01*
X112294155Y-133009978D01*
X112338542Y-133037179D01*
G37*
%TD.AperFunction*%
%TA.AperFunction,Conductor*%
G36*
X83979442Y-117428879D02*
G01*
X84616125Y-118065562D01*
X84655826Y-118105263D01*
X84686037Y-118135474D01*
X84686038Y-118135475D01*
X84771658Y-118184908D01*
X84771659Y-118184908D01*
X84771662Y-118184910D01*
X84771664Y-118184910D01*
X84778315Y-118187665D01*
X84830716Y-118232418D01*
X84846804Y-118299425D01*
X84820435Y-118363091D01*
X84814491Y-118369520D01*
X84779662Y-118404349D01*
X84779653Y-118404360D01*
X84680153Y-118541309D01*
X84680149Y-118541316D01*
X84603297Y-118692144D01*
X84603295Y-118692150D01*
X84550982Y-118853151D01*
X84550980Y-118853157D01*
X84524500Y-119020346D01*
X84524500Y-119189653D01*
X84550980Y-119356842D01*
X84550982Y-119356848D01*
X84603295Y-119517849D01*
X84603297Y-119517855D01*
X84680149Y-119668683D01*
X84680153Y-119668690D01*
X84738133Y-119748492D01*
X84779654Y-119805641D01*
X84779657Y-119805644D01*
X84779661Y-119805649D01*
X84899350Y-119925338D01*
X84899354Y-119925341D01*
X84899359Y-119925346D01*
X85036315Y-120024850D01*
X85187151Y-120101705D01*
X85187153Y-120101705D01*
X85188620Y-120102453D01*
X85237347Y-120151180D01*
X85249500Y-120201800D01*
X85249500Y-120327842D01*
X85249499Y-120327842D01*
X85273387Y-120416991D01*
X85273387Y-120416992D01*
X85303368Y-120468919D01*
X85317696Y-120536324D01*
X85289668Y-120599277D01*
X85241263Y-120630713D01*
X85187150Y-120648295D01*
X85187144Y-120648297D01*
X85036316Y-120725149D01*
X85036309Y-120725153D01*
X84899360Y-120824653D01*
X84899350Y-120824661D01*
X84779661Y-120944350D01*
X84779653Y-120944360D01*
X84680153Y-121081309D01*
X84680149Y-121081316D01*
X84603297Y-121232144D01*
X84603295Y-121232150D01*
X84550982Y-121393151D01*
X84550980Y-121393157D01*
X84524500Y-121560346D01*
X84524500Y-121729653D01*
X84550980Y-121896842D01*
X84550982Y-121896848D01*
X84603295Y-122057849D01*
X84603297Y-122057855D01*
X84680148Y-122208681D01*
X84680153Y-122208690D01*
X84723195Y-122267932D01*
X84779654Y-122345641D01*
X84779657Y-122345644D01*
X84779661Y-122345649D01*
X84899350Y-122465338D01*
X84899355Y-122465342D01*
X84899359Y-122465346D01*
X84983564Y-122526524D01*
X85007570Y-122543966D01*
X85036315Y-122564850D01*
X85163620Y-122629715D01*
X85212347Y-122678442D01*
X85224500Y-122729062D01*
X85224500Y-136870109D01*
X85203205Y-136935647D01*
X85147455Y-136976152D01*
X85078545Y-136976152D01*
X85051055Y-136962819D01*
X85039485Y-136955088D01*
X84925658Y-136907939D01*
X84925653Y-136907937D01*
X84895440Y-136901927D01*
X84804806Y-136883900D01*
X84694921Y-136883900D01*
X84629383Y-136862605D01*
X84616079Y-136851242D01*
X83821758Y-136056921D01*
X83790473Y-135995521D01*
X83789100Y-135978079D01*
X83789100Y-117507721D01*
X83810395Y-117442183D01*
X83866145Y-117401678D01*
X83935055Y-117401678D01*
X83979442Y-117428879D01*
G37*
%TD.AperFunction*%
%TA.AperFunction,Conductor*%
G36*
X84702005Y-91758766D02*
G01*
X84779654Y-91865641D01*
X84779657Y-91865644D01*
X84779661Y-91865649D01*
X84899350Y-91985338D01*
X84899355Y-91985342D01*
X84899359Y-91985346D01*
X85036315Y-92084850D01*
X85107724Y-92121235D01*
X85187144Y-92161702D01*
X85187147Y-92161703D01*
X85187151Y-92161705D01*
X85348153Y-92214018D01*
X85348154Y-92214018D01*
X85348157Y-92214019D01*
X85515346Y-92240499D01*
X85515354Y-92240499D01*
X85515356Y-92240500D01*
X85515357Y-92240500D01*
X85684643Y-92240500D01*
X85684644Y-92240500D01*
X85684645Y-92240499D01*
X85684653Y-92240499D01*
X85851842Y-92214019D01*
X85851843Y-92214018D01*
X85851847Y-92214018D01*
X85987732Y-92169865D01*
X86056641Y-92169865D01*
X86101029Y-92197066D01*
X90473042Y-96569079D01*
X90504327Y-96630479D01*
X90505700Y-96647921D01*
X90505700Y-101694278D01*
X90497631Y-101719110D01*
X90493547Y-101744898D01*
X90487185Y-101751259D01*
X90484405Y-101759816D01*
X90463282Y-101775162D01*
X90444820Y-101793625D01*
X90435934Y-101795032D01*
X90428655Y-101800321D01*
X90402543Y-101800321D01*
X90376758Y-101804405D01*
X90368743Y-101800321D01*
X90359745Y-101800321D01*
X90315358Y-101773120D01*
X90273358Y-101731120D01*
X90242073Y-101669720D01*
X90240700Y-101652278D01*
X90240700Y-100460765D01*
X90236619Y-100445535D01*
X90215111Y-100365263D01*
X90165675Y-100279637D01*
X90165671Y-100279632D01*
X86632066Y-96746029D01*
X86600781Y-96684629D01*
X86604865Y-96632732D01*
X86649018Y-96496847D01*
X86649019Y-96496842D01*
X86675499Y-96329653D01*
X86675500Y-96329642D01*
X86675500Y-96160357D01*
X86675499Y-96160346D01*
X86649019Y-95993157D01*
X86649017Y-95993151D01*
X86596705Y-95832151D01*
X86596703Y-95832147D01*
X86596702Y-95832144D01*
X86556235Y-95752724D01*
X86519850Y-95681315D01*
X86420346Y-95544359D01*
X86420342Y-95544355D01*
X86420338Y-95544350D01*
X86300649Y-95424661D01*
X86300644Y-95424657D01*
X86300641Y-95424654D01*
X86243492Y-95383133D01*
X86163690Y-95325153D01*
X86163683Y-95325149D01*
X86012855Y-95248297D01*
X86012849Y-95248295D01*
X85851848Y-95195982D01*
X85851842Y-95195980D01*
X85684653Y-95169500D01*
X85684644Y-95169500D01*
X85515356Y-95169500D01*
X85515346Y-95169500D01*
X85348157Y-95195980D01*
X85348151Y-95195982D01*
X85187150Y-95248295D01*
X85187144Y-95248297D01*
X85036316Y-95325149D01*
X85036309Y-95325153D01*
X84899360Y-95424653D01*
X84899350Y-95424661D01*
X84779661Y-95544350D01*
X84779653Y-95544360D01*
X84702005Y-95651233D01*
X84646255Y-95691738D01*
X84577344Y-95691738D01*
X84521594Y-95651233D01*
X84500300Y-95585695D01*
X84500300Y-94364304D01*
X84521595Y-94298766D01*
X84577345Y-94258261D01*
X84646255Y-94258261D01*
X84702005Y-94298766D01*
X84779654Y-94405641D01*
X84779657Y-94405644D01*
X84779661Y-94405649D01*
X84899350Y-94525338D01*
X84899355Y-94525342D01*
X84899359Y-94525346D01*
X85036315Y-94624850D01*
X85107724Y-94661235D01*
X85187144Y-94701702D01*
X85187147Y-94701703D01*
X85187151Y-94701705D01*
X85348153Y-94754018D01*
X85348154Y-94754018D01*
X85348157Y-94754019D01*
X85515346Y-94780499D01*
X85515354Y-94780499D01*
X85515356Y-94780500D01*
X85515357Y-94780500D01*
X85684643Y-94780500D01*
X85684644Y-94780500D01*
X85684645Y-94780499D01*
X85684653Y-94780499D01*
X85851842Y-94754019D01*
X85851843Y-94754018D01*
X85851847Y-94754018D01*
X86012849Y-94701705D01*
X86163685Y-94624850D01*
X86300641Y-94525346D01*
X86420346Y-94405641D01*
X86519850Y-94268685D01*
X86596705Y-94117849D01*
X86649018Y-93956847D01*
X86675500Y-93789644D01*
X86675500Y-93620356D01*
X86675499Y-93620354D01*
X86675499Y-93620346D01*
X86649019Y-93453157D01*
X86649017Y-93453151D01*
X86596705Y-93292151D01*
X86596703Y-93292147D01*
X86596702Y-93292144D01*
X86556235Y-93212724D01*
X86519850Y-93141315D01*
X86420346Y-93004359D01*
X86420342Y-93004355D01*
X86420338Y-93004350D01*
X86300649Y-92884661D01*
X86300644Y-92884657D01*
X86300641Y-92884654D01*
X86243492Y-92843133D01*
X86163690Y-92785153D01*
X86163683Y-92785149D01*
X86012855Y-92708297D01*
X86012849Y-92708295D01*
X85851848Y-92655982D01*
X85851842Y-92655980D01*
X85684653Y-92629500D01*
X85684644Y-92629500D01*
X85515356Y-92629500D01*
X85515346Y-92629500D01*
X85348157Y-92655980D01*
X85348151Y-92655982D01*
X85187150Y-92708295D01*
X85187144Y-92708297D01*
X85036316Y-92785149D01*
X85036309Y-92785153D01*
X84899360Y-92884653D01*
X84899350Y-92884661D01*
X84779661Y-93004350D01*
X84779653Y-93004360D01*
X84702005Y-93111233D01*
X84646255Y-93151738D01*
X84577344Y-93151738D01*
X84521594Y-93111233D01*
X84500300Y-93045695D01*
X84500300Y-91824304D01*
X84521595Y-91758766D01*
X84577345Y-91718261D01*
X84646255Y-91718261D01*
X84702005Y-91758766D01*
G37*
%TD.AperFunction*%
%TD*%
%TA.AperFunction,NonConductor*%
G36*
X84690642Y-87084831D02*
G01*
X84720525Y-87114714D01*
X84720535Y-87114722D01*
X84892440Y-87239619D01*
X84892447Y-87239623D01*
X85081773Y-87336091D01*
X85081782Y-87336094D01*
X85257749Y-87393269D01*
X85313499Y-87433774D01*
X85334794Y-87499312D01*
X85313500Y-87564850D01*
X85257751Y-87605354D01*
X85187158Y-87628292D01*
X85187144Y-87628297D01*
X85036316Y-87705149D01*
X85036309Y-87705153D01*
X84899360Y-87804653D01*
X84899350Y-87804661D01*
X84779661Y-87924350D01*
X84779653Y-87924360D01*
X84702005Y-88031233D01*
X84646255Y-88071738D01*
X84577344Y-88071738D01*
X84521594Y-88031233D01*
X84500300Y-87965695D01*
X84500300Y-87163673D01*
X84521595Y-87098135D01*
X84577345Y-87057630D01*
X84646255Y-87057630D01*
X84690642Y-87084831D01*
G37*
%TD.AperFunction*%
%TA.AperFunction,NonConductor*%
G36*
X84702005Y-89218766D02*
G01*
X84779654Y-89325641D01*
X84779657Y-89325644D01*
X84779661Y-89325649D01*
X84899350Y-89445338D01*
X84899355Y-89445342D01*
X84899359Y-89445346D01*
X85036315Y-89544850D01*
X85107724Y-89581235D01*
X85187144Y-89621702D01*
X85187147Y-89621703D01*
X85187151Y-89621705D01*
X85348153Y-89674018D01*
X85348154Y-89674018D01*
X85348157Y-89674019D01*
X85515346Y-89700499D01*
X85515354Y-89700499D01*
X85515356Y-89700500D01*
X85515357Y-89700500D01*
X85684643Y-89700500D01*
X85684644Y-89700500D01*
X85684645Y-89700499D01*
X85684653Y-89700499D01*
X85851842Y-89674019D01*
X85851843Y-89674018D01*
X85851847Y-89674018D01*
X86012849Y-89621705D01*
X86012853Y-89621702D01*
X86014416Y-89621195D01*
X86083327Y-89621195D01*
X86127714Y-89648396D01*
X91564842Y-95085524D01*
X91596127Y-95146924D01*
X91597500Y-95164366D01*
X91597500Y-101570025D01*
X91589431Y-101594857D01*
X91585347Y-101620645D01*
X91578985Y-101627006D01*
X91576205Y-101635563D01*
X91555082Y-101650909D01*
X91536620Y-101669372D01*
X91527734Y-101670779D01*
X91520455Y-101676068D01*
X91494343Y-101676068D01*
X91468558Y-101680152D01*
X91460543Y-101676068D01*
X91451545Y-101676068D01*
X91407158Y-101648867D01*
X91289358Y-101531067D01*
X91258073Y-101469667D01*
X91256700Y-101452225D01*
X91256700Y-96396765D01*
X91256700Y-96396764D01*
X91231111Y-96301263D01*
X91181675Y-96215637D01*
X91181671Y-96215632D01*
X86632066Y-91666029D01*
X86600781Y-91604629D01*
X86604865Y-91552732D01*
X86649018Y-91416847D01*
X86675500Y-91249644D01*
X86675500Y-91080356D01*
X86675499Y-91080354D01*
X86675499Y-91080346D01*
X86649019Y-90913157D01*
X86649017Y-90913151D01*
X86596705Y-90752151D01*
X86596703Y-90752147D01*
X86596702Y-90752144D01*
X86556235Y-90672724D01*
X86519850Y-90601315D01*
X86420346Y-90464359D01*
X86420342Y-90464355D01*
X86420338Y-90464350D01*
X86300649Y-90344661D01*
X86300644Y-90344657D01*
X86300641Y-90344654D01*
X86243492Y-90303133D01*
X86163690Y-90245153D01*
X86163683Y-90245149D01*
X86012855Y-90168297D01*
X86012849Y-90168295D01*
X85851848Y-90115982D01*
X85851842Y-90115980D01*
X85684653Y-90089500D01*
X85684644Y-90089500D01*
X85515356Y-90089500D01*
X85515346Y-90089500D01*
X85348157Y-90115980D01*
X85348151Y-90115982D01*
X85187150Y-90168295D01*
X85187144Y-90168297D01*
X85036316Y-90245149D01*
X85036309Y-90245153D01*
X84899360Y-90344653D01*
X84899350Y-90344661D01*
X84779661Y-90464350D01*
X84779653Y-90464360D01*
X84702005Y-90571233D01*
X84646255Y-90611738D01*
X84577344Y-90611738D01*
X84521594Y-90571233D01*
X84500300Y-90505695D01*
X84500300Y-89284304D01*
X84521595Y-89218766D01*
X84577345Y-89178261D01*
X84646255Y-89178261D01*
X84702005Y-89218766D01*
G37*
%TD.AperFunction*%
%TA.AperFunction,NonConductor*%
G36*
X84702005Y-96838766D02*
G01*
X84779654Y-96945641D01*
X84779657Y-96945644D01*
X84779661Y-96945649D01*
X84899350Y-97065338D01*
X84899355Y-97065342D01*
X84899359Y-97065346D01*
X85036315Y-97164850D01*
X85104311Y-97199496D01*
X85187144Y-97241702D01*
X85187147Y-97241703D01*
X85187151Y-97241705D01*
X85348153Y-97294018D01*
X85348154Y-97294018D01*
X85348157Y-97294019D01*
X85515346Y-97320499D01*
X85515354Y-97320499D01*
X85515356Y-97320500D01*
X85515357Y-97320500D01*
X85684643Y-97320500D01*
X85684644Y-97320500D01*
X85684645Y-97320499D01*
X85684653Y-97320499D01*
X85851842Y-97294019D01*
X85851843Y-97294018D01*
X85851847Y-97294018D01*
X85987732Y-97249865D01*
X86056641Y-97249865D01*
X86101029Y-97277066D01*
X89457042Y-100633079D01*
X89488327Y-100694479D01*
X89489700Y-100711921D01*
X89489700Y-101874479D01*
X89468405Y-101940017D01*
X89412655Y-101980522D01*
X89343745Y-101980522D01*
X89299358Y-101953321D01*
X86632066Y-99286029D01*
X86600781Y-99224629D01*
X86604865Y-99172732D01*
X86649018Y-99036847D01*
X86660632Y-98963517D01*
X86675499Y-98869653D01*
X86675500Y-98869642D01*
X86675500Y-98700357D01*
X86675499Y-98700346D01*
X86649019Y-98533157D01*
X86649017Y-98533151D01*
X86596705Y-98372151D01*
X86596703Y-98372147D01*
X86596702Y-98372144D01*
X86556235Y-98292724D01*
X86519850Y-98221315D01*
X86420346Y-98084359D01*
X86420342Y-98084355D01*
X86420338Y-98084350D01*
X86300649Y-97964661D01*
X86300644Y-97964657D01*
X86300641Y-97964654D01*
X86243492Y-97923133D01*
X86163690Y-97865153D01*
X86163683Y-97865149D01*
X86012855Y-97788297D01*
X86012849Y-97788295D01*
X85851848Y-97735982D01*
X85851842Y-97735980D01*
X85684653Y-97709500D01*
X85684644Y-97709500D01*
X85515356Y-97709500D01*
X85515346Y-97709500D01*
X85348157Y-97735980D01*
X85348151Y-97735982D01*
X85187150Y-97788295D01*
X85187144Y-97788297D01*
X85036316Y-97865149D01*
X85036309Y-97865153D01*
X84899360Y-97964653D01*
X84899350Y-97964661D01*
X84779661Y-98084350D01*
X84779653Y-98084360D01*
X84702005Y-98191233D01*
X84646255Y-98231738D01*
X84577344Y-98231738D01*
X84521594Y-98191233D01*
X84500300Y-98125695D01*
X84500300Y-96904304D01*
X84521595Y-96838766D01*
X84577345Y-96798261D01*
X84646255Y-96798261D01*
X84702005Y-96838766D01*
G37*
%TD.AperFunction*%
%TA.AperFunction,NonConductor*%
G36*
X84702005Y-106998766D02*
G01*
X84779654Y-107105641D01*
X84779657Y-107105644D01*
X84779661Y-107105649D01*
X84899350Y-107225338D01*
X84899355Y-107225342D01*
X84899359Y-107225346D01*
X85036315Y-107324850D01*
X85107724Y-107361235D01*
X85187144Y-107401702D01*
X85187147Y-107401703D01*
X85187151Y-107401705D01*
X85257750Y-107424644D01*
X85313500Y-107465149D01*
X85334794Y-107530688D01*
X85313499Y-107596225D01*
X85257750Y-107636730D01*
X85081779Y-107693906D01*
X85081773Y-107693908D01*
X84892447Y-107790376D01*
X84892440Y-107790380D01*
X84720535Y-107915277D01*
X84720525Y-107915285D01*
X84690642Y-107945169D01*
X84629242Y-107976454D01*
X84561180Y-107965674D01*
X84512453Y-107916947D01*
X84500300Y-107866327D01*
X84500300Y-107064304D01*
X84521595Y-106998766D01*
X84577345Y-106958261D01*
X84646255Y-106958261D01*
X84702005Y-106998766D01*
G37*
%TD.AperFunction*%
%TA.AperFunction,NonConductor*%
G36*
X84690642Y-109944831D02*
G01*
X84720525Y-109974714D01*
X84720535Y-109974722D01*
X84892440Y-110099619D01*
X84892447Y-110099623D01*
X85081773Y-110196091D01*
X85081782Y-110196094D01*
X85257749Y-110253269D01*
X85313499Y-110293774D01*
X85334794Y-110359312D01*
X85313500Y-110424850D01*
X85257751Y-110465354D01*
X85187158Y-110488292D01*
X85187144Y-110488297D01*
X85036316Y-110565149D01*
X85036309Y-110565153D01*
X84899360Y-110664653D01*
X84899350Y-110664661D01*
X84779661Y-110784350D01*
X84779653Y-110784360D01*
X84702005Y-110891233D01*
X84646255Y-110931738D01*
X84577344Y-110931738D01*
X84521594Y-110891233D01*
X84500300Y-110825695D01*
X84500300Y-110023673D01*
X84521595Y-109958135D01*
X84577345Y-109917630D01*
X84646255Y-109917630D01*
X84690642Y-109944831D01*
G37*
%TD.AperFunction*%
%TA.AperFunction,NonConductor*%
G36*
X98203442Y-110723279D02*
G01*
X98347042Y-110866879D01*
X98378327Y-110928279D01*
X98379700Y-110945721D01*
X98379700Y-118712279D01*
X98371631Y-118737111D01*
X98367547Y-118762899D01*
X98361185Y-118769260D01*
X98358405Y-118777817D01*
X98337282Y-118793163D01*
X98318820Y-118811626D01*
X98309934Y-118813033D01*
X98302655Y-118818322D01*
X98276543Y-118818322D01*
X98250758Y-118822406D01*
X98242743Y-118818322D01*
X98233745Y-118818322D01*
X98189358Y-118791121D01*
X98045758Y-118647521D01*
X98014473Y-118586121D01*
X98013100Y-118568679D01*
X98013100Y-110802121D01*
X98034395Y-110736583D01*
X98090145Y-110696078D01*
X98159055Y-110696078D01*
X98203442Y-110723279D01*
G37*
%TD.AperFunction*%
%TA.AperFunction,NonConductor*%
G36*
X83268242Y-136565479D02*
G01*
X84085042Y-137382279D01*
X84089126Y-137390294D01*
X84096405Y-137395583D01*
X84104473Y-137420416D01*
X84116327Y-137443679D01*
X84117700Y-137461121D01*
X84117700Y-137479237D01*
X84096405Y-137544775D01*
X84040655Y-137585280D01*
X83984449Y-137588595D01*
X83937602Y-137579277D01*
X83880906Y-137568000D01*
X83771021Y-137568000D01*
X83705483Y-137546705D01*
X83692179Y-137535342D01*
X83110558Y-136953721D01*
X83079273Y-136892321D01*
X83077900Y-136874879D01*
X83077900Y-136644321D01*
X83099195Y-136578783D01*
X83154945Y-136538278D01*
X83223855Y-136538278D01*
X83268242Y-136565479D01*
G37*
%TD.AperFunction*%
%TA.AperFunction,NonConductor*%
G36*
X81845842Y-138612479D02*
G01*
X82704642Y-139471279D01*
X82708726Y-139479294D01*
X82716005Y-139484583D01*
X82724073Y-139509416D01*
X82735927Y-139532679D01*
X82737300Y-139550121D01*
X82737300Y-139626725D01*
X82716005Y-139692263D01*
X82660255Y-139732768D01*
X82591345Y-139732768D01*
X82563856Y-139719435D01*
X82541489Y-139704490D01*
X82541487Y-139704489D01*
X82427658Y-139657339D01*
X82427653Y-139657337D01*
X82397440Y-139651327D01*
X82306806Y-139633300D01*
X82196921Y-139633300D01*
X82131383Y-139612005D01*
X82118079Y-139600642D01*
X81688158Y-139170721D01*
X81656873Y-139109321D01*
X81655500Y-139091879D01*
X81655500Y-138691321D01*
X81676795Y-138625783D01*
X81732545Y-138585278D01*
X81801455Y-138585278D01*
X81845842Y-138612479D01*
G37*
%TD.AperFunction*%
%TA.AperFunction,NonConductor*%
G36*
X82557042Y-137462279D02*
G01*
X83161142Y-138066379D01*
X83192427Y-138127779D01*
X83193800Y-138145221D01*
X83193800Y-138255106D01*
X83206685Y-138319886D01*
X83217837Y-138375953D01*
X83217839Y-138375958D01*
X83264989Y-138489786D01*
X83333441Y-138592232D01*
X83333443Y-138592235D01*
X83420564Y-138679356D01*
X83420567Y-138679358D01*
X83523014Y-138747811D01*
X83573040Y-138768532D01*
X83612029Y-138784683D01*
X83612041Y-138784687D01*
X83636848Y-138794963D01*
X83757694Y-138819000D01*
X83757697Y-138819000D01*
X83880903Y-138819000D01*
X83880906Y-138819000D01*
X84001752Y-138794963D01*
X84115586Y-138747811D01*
X84218033Y-138679358D01*
X84305158Y-138592233D01*
X84373611Y-138489786D01*
X84420763Y-138375952D01*
X84444800Y-138255106D01*
X84444800Y-138223662D01*
X84466095Y-138158124D01*
X84521845Y-138117619D01*
X84578048Y-138114304D01*
X84681594Y-138134900D01*
X84681597Y-138134900D01*
X84804803Y-138134900D01*
X84804806Y-138134900D01*
X84925652Y-138110863D01*
X85039486Y-138063711D01*
X85051052Y-138055982D01*
X85117374Y-138037276D01*
X85182027Y-138061125D01*
X85220313Y-138118422D01*
X85224500Y-138148690D01*
X85224500Y-138632679D01*
X85203205Y-138698217D01*
X85191842Y-138711521D01*
X84178642Y-139724721D01*
X84117242Y-139756006D01*
X84049180Y-139745226D01*
X84000453Y-139696499D01*
X83988300Y-139645879D01*
X83988300Y-139536796D01*
X83987815Y-139534357D01*
X83964263Y-139415948D01*
X83917111Y-139302114D01*
X83848658Y-139199667D01*
X83848656Y-139199664D01*
X83761535Y-139112543D01*
X83761532Y-139112541D01*
X83659086Y-139044089D01*
X83570068Y-139007215D01*
X83570034Y-139007202D01*
X83545252Y-138996937D01*
X83540207Y-138995933D01*
X83540206Y-138995933D01*
X83488573Y-138985663D01*
X83424406Y-138972900D01*
X83314521Y-138972900D01*
X83248983Y-138951605D01*
X83235679Y-138940242D01*
X82399358Y-138103921D01*
X82368073Y-138042521D01*
X82366700Y-138025079D01*
X82366700Y-137541121D01*
X82387995Y-137475583D01*
X82443745Y-137435078D01*
X82512655Y-137435078D01*
X82557042Y-137462279D01*
G37*
%TD.AperFunction*%
%TA.AperFunction,NonConductor*%
G36*
X107473693Y-131118851D02*
G01*
X107476849Y-131121886D01*
X108824542Y-132469579D01*
X108855827Y-132530979D01*
X108857200Y-132548421D01*
X108857200Y-145837126D01*
X108835905Y-145902664D01*
X108780155Y-145943169D01*
X108746077Y-145948625D01*
X107180077Y-145953916D01*
X107114467Y-145932843D01*
X107073774Y-145877230D01*
X107068200Y-145842417D01*
X107068200Y-131911376D01*
X107089495Y-131845838D01*
X107100858Y-131832534D01*
X107165856Y-131767535D01*
X107165858Y-131767533D01*
X107234311Y-131665086D01*
X107281463Y-131551252D01*
X107305500Y-131430406D01*
X107305500Y-131307194D01*
X107288649Y-131222477D01*
X107296749Y-131154047D01*
X107343526Y-131103445D01*
X107411113Y-131090001D01*
X107473693Y-131118851D01*
G37*
%TD.AperFunction*%
%TA.AperFunction,NonConductor*%
G36*
X90375468Y-142856320D02*
G01*
X90403490Y-142919276D01*
X90404100Y-142930920D01*
X90404100Y-143511479D01*
X90382805Y-143577017D01*
X90371442Y-143590321D01*
X88682138Y-145279625D01*
X88647181Y-145314582D01*
X88612224Y-145349538D01*
X88562790Y-145435160D01*
X88537200Y-145530666D01*
X88537200Y-145905775D01*
X88515905Y-145971313D01*
X88460155Y-146011818D01*
X88426077Y-146017274D01*
X87342058Y-146020937D01*
X87276448Y-145999864D01*
X87235755Y-145944252D01*
X87235522Y-145875341D01*
X87262837Y-145830599D01*
X90165675Y-142927763D01*
X90165677Y-142927759D01*
X90165679Y-142927757D01*
X90190357Y-142885010D01*
X90190392Y-142884950D01*
X90196044Y-142875159D01*
X90247259Y-142829055D01*
X90315793Y-142821859D01*
X90375468Y-142856320D01*
G37*
%TD.AperFunction*%
M02*
